<svg width="20" height="20" viewBox="0 0 20 20" fill="none" xmlns="http://www.w3.org/2000/svg">
<path d="M10 2C14.4181 2 18 5.5819 18 10.0001C18 14.4183 14.4181 18 10 18C5.58186 18 2 14.4183 2 10.0001C2 5.58171 5.58166 2 10 2ZM4.58403 12.8139L14.2809 5.65151C13.1794 4.56691 11.6678 3.89796 10 3.89796C6.62975 3.89796 3.89793 6.62981 3.89793 10.0001C3.89793 11.0149 4.14585 11.9721 4.58403 12.8139ZM15.408 7.17111L5.70691 14.3367C6.80945 15.4279 8.32604 16.1022 10 16.1022C13.37 16.1022 16.1021 13.3702 16.1021 10.0001C16.1021 8.97912 15.8512 8.01678 15.408 7.17111Z" fill="#3C3C3C"/>
</svg>
