<svg width="20" height="20" viewBox="0 0 20 20" fill="none" xmlns="http://www.w3.org/2000/svg">
<path d="M11.88 12.24C11.88 13.46 10.9 14.44 9.67996 14.44C8.45996 14.44 7.47996 13.46 7.47996 12.24C7.47996 11.02 8.45996 10.04 9.67996 10.04C10.9 10.04 11.88 11.04 11.88 12.24ZM17.42 8.22004C15.96 5.42004 13.04 3.60004 9.83996 3.54004C9.77996 3.54004 9.73996 3.54004 9.67996 3.54004C7.39996 3.54004 5.25996 4.40004 3.61996 5.98004C1.93996 7.60004 0.999961 9.78004 0.959961 12.1L2.53996 12.12C2.59996 8.18004 5.85996 5.06004 9.79996 5.12004C12.28 5.16004 14.54 6.50004 15.8 8.60004L14.34 8.94004L17.62 12.4L18.98 7.86004L17.42 8.22004Z" fill="#3C3C3C"/>
</svg>
