<svg width="20" height="20" viewBox="0 0 20 20" fill="none" xmlns="http://www.w3.org/2000/svg">
<path d="M14.3641 9.97988C14.3641 6.51334 11.5909 3.69336 8.18218 3.69336C4.77342 3.69336 2 6.51356 2 9.97988C2 13.4462 4.77342 16.2668 8.18218 16.2668C11.5909 16.2668 14.3641 13.4464 14.3641 9.97988ZM12.8089 9.97988C12.8089 12.5021 10.6898 14.5541 8.31106 14.5541V5.40584C10.6898 5.40584 12.8089 7.45788 12.8089 9.97988Z" fill="#3C3C3C"/>
<path d="M8.31086 2.85341C8.62096 2.85341 8.95961 2.59765 8.95961 2.28251V0.570902C8.95961 0.255762 8.62096 0 8.31086 0C8.00076 0 7.66211 0.255762 7.66211 0.570902V2.28251C7.66211 2.59787 8.00076 2.85341 8.31086 2.85341Z" fill="#3C3C3C"/>
<path d="M11.6782 3.81031C11.7666 3.86221 11.8631 3.88684 11.9585 3.88684C12.1522 3.88684 12.3412 3.78436 12.445 3.60139L13.2865 2.11916C13.4417 1.84602 13.3496 1.4968 13.081 1.33912C12.8126 1.18166 12.469 1.27534 12.3142 1.54826L11.4728 3.03049C11.3177 3.30319 11.4098 3.65241 11.6782 3.81031Z" fill="#3C3C3C"/>
<path d="M14.7379 6.71065C14.833 6.71065 14.9297 6.68602 15.0182 6.63412L16.4753 5.77843C16.7441 5.62075 16.8362 5.27152 16.6811 4.99839C16.5261 4.72547 16.1825 4.63179 15.9139 4.78947L14.4568 5.64538C14.188 5.80306 14.0961 6.15206 14.2511 6.4252C14.3549 6.60817 14.5439 6.71065 14.7379 6.71065Z" fill="#3C3C3C"/>
<path d="M17.4378 9.3125H15.7547C15.4449 9.3125 15.1934 9.54693 15.1934 9.86229C15.1934 10.1777 15.4449 10.4121 15.7547 10.4121H17.4378C17.7479 10.4121 17.9994 10.1777 17.9994 9.86229C17.9994 9.54693 17.7479 9.3125 17.4378 9.3125Z" fill="#3C3C3C"/>
<path d="M16.4773 14.2187L15.02 13.3628C14.7514 13.2049 14.408 13.2988 14.2531 13.5717C14.0981 13.8449 14.1898 14.1941 14.4581 14.3518L15.9159 15.2077C16.0041 15.2594 16.1008 15.2842 16.1962 15.2842C16.3899 15.2842 16.5789 15.1817 16.6827 14.9988C16.838 14.7254 16.7459 14.3762 16.4773 14.2187Z" fill="#3C3C3C"/>
<path d="M12.449 16.3968C12.2941 16.1239 11.951 16.0302 11.6822 16.1879C11.4136 16.3458 11.3217 16.6948 11.4767 16.9679L12.3184 18.4497C12.4219 18.6332 12.6112 18.7354 12.8051 18.7354C12.9001 18.7354 12.997 18.711 13.0854 18.6591C13.354 18.501 13.4459 18.1522 13.2906 17.8791L12.449 16.3968Z" fill="#3C3C3C"/>
<path d="M8.31086 17.1465C8.00076 17.1465 7.66211 17.402 7.66211 17.7174V19.429C7.66211 19.7444 8.00076 19.9999 8.31086 19.9999C8.62096 19.9999 8.95961 19.7444 8.95961 19.429V17.7174C8.95961 17.402 8.62096 17.1465 8.31086 17.1465Z" fill="#3C3C3C"/>
</svg>
