<svg width="44" height="44" viewBox="0 0 44 44" fill="none" xmlns="http://www.w3.org/2000/svg">
<g clip-path="url(#clip0)">
<path d="M27.5175 7.54318C26.6794 7.26382 26.2604 6.28604 26.5398 5.44794C26.8191 4.60985 27.7969 4.05112 28.635 4.33048C36.8763 7.26382 42.3239 14.9464 42.3239 23.6067C42.3239 34.7813 33.2445 44.0003 22.0699 44.0003C10.7556 44.0003 1.67627 34.7813 1.67627 23.6067C1.67627 14.9464 7.12389 7.26382 15.3652 4.33048C16.2033 4.05112 17.181 4.60985 17.4604 5.44794C17.7398 6.28604 17.3207 7.26382 16.4826 7.54318C9.63817 9.91779 5.02865 16.3432 5.02865 23.6067C5.02865 32.9654 12.5715 40.6479 22.0699 40.6479C31.4286 40.6479 39.1112 32.9654 39.1112 23.6067C39.1112 16.3432 34.5017 9.91779 27.5175 7.54318Z" fill="white"/>
<path d="M20.394 1.67619C20.394 0.698413 21.0925 0 22.0702 0C22.9083 0 23.6067 0.698413 23.6067 1.67619V23.8857C23.6067 24.8635 22.9083 25.5619 22.0702 25.5619C21.0925 25.5619 20.394 24.8635 20.394 23.8857V1.67619Z" fill="white"/>
</g>
<defs>
<clipPath id="clip0">
<rect width="44" height="44" fill="white"/>
</clipPath>
</defs>
</svg>
