<svg width="1em" height="1em" viewBox="0 0 60 60" fill="none" xmlns="http://www.w3.org/2000/svg"><path d="M7.586 48.086a2 2 0 102.828 2.828l-2.828-2.828zM21 37.5l1.414-1.414a2 2 0 00-2.828 0L21 37.5zm6 6l-1.414 1.414a2 2 0 002.828 0L27 43.5zM40.5 30l1.414-1.414a2 2 0 00-2.828 0L40.5 30zm10.586 13.414a2 2 0 102.828-2.828l-2.828 2.828zM30 8a2 2 0 100-4v4zm26 22a2 2 0 00-4 0h4zM34.286 13a2 2 0 000 4v-4zm21.428 4a2 2 0 100-4v4zM47 4.286a2 2 0 10-4 0h4zm-4 21.428a2 2 0 104 0h-4zm-32.586 25.2l12-12-2.828-2.828-12 12 2.828 2.828zm9.172-12l6 6 2.828-2.828-6-6-2.828 2.828zm8.828 6l13.5-13.5-2.828-2.828-13.5 13.5 2.828 2.828zm10.672-13.5l12 12 2.828-2.828-12-12-2.828 2.828zM45 52H15v4h30v-4zM8 45V15H4v30h4zm7 7a7 7 0 01-7-7H4c0 6.075 4.925 11 11 11v-4zm37-7a7 7 0 01-7 7v4c6.075 0 11-4.925 11-11h-4zM15 4C8.925 4 4 8.925 4 15h4a7 7 0 017-7V4zm7 15.5a2.5 2.5 0 01-2.5 2.5v4a6.5 6.5 0 006.5-6.5h-4zM19.5 22a2.5 2.5 0 01-2.5-2.5h-4a6.5 6.5 0 006.5 6.5v-4zM17 19.5a2.5 2.5 0 012.5-2.5v-4a6.5 6.5 0 00-6.5 6.5h4zm2.5-2.5a2.5 2.5 0 012.5 2.5h4a6.5 6.5 0 00-6.5-6.5v4zM15 8h15V4H15v4zm37 22v15h4V30h-4zM34.286 17h21.428v-4H34.286v4zM43 4.286v21.428h4V4.286h-4z" fill="currentColor"/><path d="M34.286 15h21.429M45 4.286v21.428" stroke="#FB992D" stroke-width="4" stroke-linecap="round"/></svg>