<svg width="14" height="14" viewBox="0 0 14 14" fill="none" xmlns="http://www.w3.org/2000/svg">
<g id="&#231;&#148;&#187;&#230;&#157;&#191;">
<path id="Vector" d="M3.79218 10.5002C3.79218 11.1445 4.31455 11.6668 4.95892 11.6668C5.6033 11.6668 6.12567 11.1445 6.12567 10.5002M3.79218 10.5002C3.79218 9.85583 4.31455 9.3335 4.95892 9.3335C5.6033 9.3335 6.12567 9.85583 6.12567 10.5002M3.79218 10.5002L1.16699 10.5002M6.12567 10.5002L12.8345 10.5002" stroke="currentColor" stroke-linecap="round"/>
<path id="Vector_2" d="M3.79218 3.50016C3.79218 4.14449 4.31455 4.66683 4.95892 4.66683C5.6033 4.66683 6.12567 4.14449 6.12567 3.50016M3.79218 3.50016C3.79218 2.85583 4.31455 2.3335 4.95892 2.3335C5.6033 2.3335 6.12567 2.85583 6.12567 3.50016M3.79218 3.50016L1.16699 3.50016M6.12567 3.50016L12.8345 3.50016" stroke="currentColor" stroke-linecap="round"/>
<path id="Vector_3" d="M9.04254 7.00016C9.04254 7.6445 9.56491 8.16683 10.2093 8.16683C10.8537 8.16683 11.376 7.6445 11.376 7.00016M9.04254 7.00016C9.04254 6.35583 9.56491 5.8335 10.2093 5.8335C10.8537 5.8335 11.376 6.35583 11.376 7.00016M9.04254 7.00016L1.16699 7.00016M11.376 7.00016L12.8345 7.00016" stroke="currentColor" stroke-linecap="round"/>
</g>
</svg>
