<svg width="1em" height="1em" viewBox="0 0 63 60" fill="none" xmlns="http://www.w3.org/2000/svg"><path d="M56 27.75V15c0-6.075-4.925-11-11-11H15C8.925 4 4 8.925 4 15v12.75h4V15a7 7 0 017-7h30a7 7 0 017 7v12.75h4z" fill="currentColor"/><path fill-rule="evenodd" clip-rule="evenodd" d="M19.5 13a6.5 6.5 0 100 13 6.5 6.5 0 000-13zM17 19.5a2.5 2.5 0 115 0 2.5 2.5 0 01-5 0zM55.405 42.375l-.14 2.454c-.423 6.06-5.68 10.63-11.74 10.207l-29.927-2.089c-4.391-.306-7.98-2.973-9.473-6.822l3.479-2.328L19.56 33.4a2 2 0 012.821.197l4.256 4.894 12.898-11.215a2 2 0 012.821.197l9.359 10.763 3.69 4.138zm-4.932.53c.243.28.547.476.875.585l-.074 1.06a7 7 0 01-7.47 6.496l-29.927-2.089a6.97 6.97 0 01-4.131-1.722l10.929-9.503 4.255 4.894a2 2 0 002.822.197L40.65 31.608l9.823 11.297z" fill="currentColor"/><path fill-rule="evenodd" clip-rule="evenodd" d="M61.843 28.986a2 2 0 10-2.829-2.829L54 31.172l-5.014-5.015a2 2 0 00-2.829 2.829L51.171 34l-5.014 5.014a2 2 0 102.829 2.829L54 36.828l5.014 5.015a2 2 0 002.829-2.829L56.828 34l5.015-5.014z" fill="#E65A5A"/></svg>