<svg width="1em" height="1em" viewBox="0 0 48 48" fill="none" xmlns="http://www.w3.org/2000/svg">
  <path fill-rule="evenodd" clip-rule="evenodd"
    d="M15.401 2.25c3.794 0 6.927 2.86 7.399 6.562V9.5h-6.96a.717.717 0 00-.458.165l-2.908 2.412a1.664 1.664 0 00-.714-.16c-.928 0-1.68.757-1.68 1.691 0 .935.752 1.692 1.68 1.692a1.686 1.686 0 001.63-2.104l2.708-2.246H22.8v12.325H9.198a1.68 1.68 0 00-1.518-.967C6.752 22.308 6 23.066 6 24c0 .934.752 1.692 1.68 1.692a1.68 1.68 0 001.518-.967H22.8V37.05h-6.702l-2.708-2.246c.033-.132.05-.27.05-.412 0-.935-.752-1.692-1.68-1.692-.928 0-1.68.757-1.68 1.692 0 .934.752 1.691 1.68 1.691.255 0 .498-.057.714-.16l2.908 2.412c.13.106.291.165.458.165h6.96v.689c-.526 3.71-3.7 6.561-7.519 6.561-3.52 0-6.48-2.423-7.333-5.707a7.295 7.295 0 01-4.338-6.687c0-.705.099-1.387.284-2.033a7.298 7.298 0 01-3.893-6.36L0 24.725a7.252 7.252 0 014.46-6.707 7.056 7.056 0 01-.839-2.967l-.006-.144a6.887 6.887 0 014.547-6.949c.808-3.279 3.743-5.708 7.24-5.708zm24.457 5.792c-.778-3.321-3.733-5.792-7.26-5.792-3.793 0-6.926 2.86-7.398 6.562v30.377c.526 3.71 3.7 6.561 7.519 6.561 3.52 0 6.48-2.423 7.333-5.707a7.295 7.295 0 004.338-6.687c0-.705-.099-1.387-.284-2.033A7.299 7.299 0 0048 24.851a7.301 7.301 0 00-3.222-6.072.73.73 0 01-.15.4c-1.446 1.876-3.08 3.056-4.88 3.538a5.024 5.024 0 00-.3 1.975c.026.51.126 1.026.313 1.547a.731.731 0 01-.431.934.72.72 0 01-.925-.436 6.767 6.767 0 01-.398-1.974 6.502 6.502 0 01.162-1.801c-1.817.083-3.78-.478-5.868-1.682a.733.733 0 01-.27-.995.718.718 0 01.986-.272l.128.073c4.215 2.378 7.586 1.598 10.353-1.991a7.068 7.068 0 00.892-3.451 7.047 7.047 0 00-4.532-6.602zM28.79 32.607a.731.731 0 01.402-.948.72.72 0 01.922.367l.016.04.031.064c.064.127.158.28.284.44.208.263.463.492.766.668.743.428 1.712.505 2.99.075 1.047-.684 2.35-1.01 3.895-.965a.726.726 0 01.7.75.725.725 0 01-.742.707c-2.841-.083-4.516 1.28-5.195 4.253a.722.722 0 11-1.407-.328c.237-1.039.592-1.932 1.06-2.675a4.185 4.185 0 01-2.017-.551 4.052 4.052 0 01-1.664-1.801l-.006-.015-.035-.081zm3.29-23.553a.726.726 0 00-.705.746c.03 1.307.31 2.43.83 3.36-1.231.087-2.433.742-3.526 2.059a.734.734 0 00.089 1.027.717.717 0 001.017-.09c.892-1.074 1.778-1.529 2.65-1.548.35-.008.684.056.997.174.19.071.348.153.467.229l.06.04.037.026a.614.614 0 00.05.03c.818.53 1.82.902 3 1.112a.723.723 0 00.836-.592.728.728 0 00-.586-.844c-1-.178-1.826-.48-2.484-.91l-.065-.044-.073-.049c-1.21-.854-1.813-2.178-1.855-4.014a.725.725 0 00-.739-.712z"
    fill="url(#prefix__paint0_linear_6011_1043)" />
  <defs>
    <linearGradient id="prefix__paint0_linear_6011_1043" x1="23.945" y1="-13.46" x2="-13.671" y2="28.058"
      gradientUnits="userSpaceOnUse">
      <stop stop-color="#32C5FF" />
      <stop offset=".541" stop-color="#B620E0" />
      <stop offset="1" stop-color="#F7B500" />
    </linearGradient>
  </defs>
</svg>
