<svg width="100" height="100" viewBox="0 0 100 100" fill="none" xmlns="http://www.w3.org/2000/svg">
<path d="M50 3.18567e-08C36.7392 3.18567e-08 24.0215 5.26782 14.6447 14.6446C5.26784 24.0214 0 36.739 0 49.9998C0 63.2606 5.26784 75.9782 14.6447 85.355C24.0215 94.7318 36.7392 99.9996 50 99.9996C61.4099 100.045 72.4842 96.1417 81.3444 88.9526C89.4072 82.4653 95.2584 73.636 98.0908 63.6825C100.923 53.7291 100.597 43.142 97.158 33.3816C93.7188 23.6212 87.3356 15.1685 78.889 9.18948C70.4424 3.21042 60.3486 -0.000369286 50 3.18567e-08V3.18567e-08ZM49.9989 17.5094C53.2119 17.5094 56.3527 18.4622 59.0242 20.2472C61.6957 22.0322 63.7779 24.5694 65.0075 27.5378C66.237 30.5062 66.5588 33.7725 65.9319 36.9238C65.3051 40.075 63.7579 42.9696 61.486 45.2416C59.2141 47.5135 56.3194 49.0607 53.1682 49.6875C50.0169 50.3143 46.7506 49.9926 43.7821 48.7631C40.8137 47.5335 38.2766 45.4514 36.4915 42.7799C34.7065 40.1084 33.7537 36.9675 33.7537 33.7545C33.7537 29.4461 35.4653 25.3141 38.5118 22.2675C41.5584 19.221 45.6904 17.5094 49.9989 17.5094V17.5094ZM82.0377 79.175C80.5328 80.8258 78.9033 82.3584 77.1636 83.7595C68.571 90.6864 57.6571 94.0696 46.653 93.2175C35.649 92.3654 25.386 87.3422 17.9623 79.175C17.246 78.3905 16.5709 77.5765 15.9186 76.7477C18.5784 65.7311 32.817 57.3108 50.0001 57.3108C67.172 57.3108 81.4178 65.7298 84.0807 76.7454C83.4286 77.575 82.7537 78.3896 82.0377 79.175Z" fill="#717984"/>
</svg>
