<svg width="24" height="24" viewBox="0 0 24 24" fill="none" xmlns="http://www.w3.org/2000/svg">
<path d="M22.8937 12.0006L22.7785 11.7246C21.8854 9.60963 20.384 7.80773 18.465 6.5476C16.546 5.28747 14.2958 4.62594 12.0001 4.64697C9.70442 4.62594 7.45424 5.28747 5.53521 6.5476C3.61617 7.80773 2.11481 9.60963 1.22171 11.7246L1.10651 12.0006L1.22171 12.2766C2.11481 14.3915 3.61617 16.1934 5.53521 17.4535C7.45424 18.7137 9.70442 19.3752 12.0001 19.3542C14.2958 19.3752 16.546 18.7137 18.465 17.4535C20.384 16.1934 21.8854 14.3915 22.7785 12.2766L22.8937 12.0006ZM12.0001 17.9142C10.0404 17.9333 8.11706 17.3852 6.46184 16.3359C4.80662 15.2867 3.49021 13.781 2.67131 12.0006C3.49021 10.2201 4.80662 8.71449 6.46184 7.66523C8.11706 6.61598 10.0404 6.06786 12.0001 6.08697C13.9598 6.06786 15.8832 6.61598 17.5384 7.66523C19.1936 8.71449 20.51 10.2201 21.3289 12.0006C20.51 13.781 19.1936 15.2867 17.5384 16.3359C15.8832 17.3852 13.9598 17.9333 12.0001 17.9142Z" fill="#717984"/>
<path d="M11.9999 6.91992C10.995 6.91992 10.0127 7.21791 9.17719 7.77619C8.34166 8.33448 7.69044 9.12799 7.30588 10.0564C6.92133 10.9848 6.82071 12.0064 7.01676 12.9919C7.2128 13.9775 7.6967 14.8828 8.40726 15.5934C9.11783 16.304 10.0231 16.7879 11.0087 16.9839C11.9943 17.1799 13.0159 17.0793 13.9443 16.6948C14.8727 16.3102 15.6662 15.659 16.2245 14.8235C16.7828 13.9879 17.0807 13.0056 17.0807 12.0007C17.0795 10.6536 16.5438 9.36202 15.5912 8.40946C14.6386 7.4569 13.3471 6.92119 11.9999 6.91992ZM11.9999 15.6391C11.2797 15.6391 10.5757 15.4255 9.97696 15.0254C9.37818 14.6252 8.91153 14.0565 8.63604 13.391C8.36055 12.7256 8.28859 11.9935 8.42926 11.2872C8.56994 10.5808 8.91693 9.93212 9.42635 9.42304C9.93576 8.91396 10.5847 8.5674 11.2911 8.42719C11.9975 8.28698 12.7296 8.35942 13.3949 8.63535C14.0601 8.91128 14.6285 9.37831 15.0283 9.97735C15.4281 10.5764 15.6412 11.2805 15.6407 12.0007C15.6401 12.9661 15.2563 13.8918 14.5737 14.5745C13.891 15.2571 12.9653 15.6409 11.9999 15.6415V15.6391Z" fill="#8C8E97"/>
</svg>
