<svg width="22" height="11" viewBox="0 0 22 11" fill="none" xmlns="http://www.w3.org/2000/svg">
<path d="M21.1557 0.606761C20.7868 0.385449 20.3196 0.53299 20.1229 0.877252C19.6803 1.63955 19.1393 2.35266 18.5245 2.99201C18.4016 3.11496 18.5245 2.99201 18.4016 3.11496C17.4672 4.04939 16.3606 4.78709 15.1557 5.30348C15.0081 5.37725 15.1557 5.30348 15.0081 5.37725C13.7786 5.89365 12.4508 6.13955 11.0983 6.16414C10.9508 6.16414 11.0983 6.16414 10.9508 6.16414C9.57372 6.16414 8.24585 5.89365 6.99175 5.37725C6.84421 5.30348 6.99175 5.37725 6.84421 5.30348C5.63929 4.78709 4.53274 4.04939 3.59831 3.11496C3.47536 2.99201 3.59831 3.11496 3.47536 2.99201C2.8606 2.35266 2.31962 1.66414 1.877 0.901843C1.65569 0.532991 1.21306 0.410039 0.844211 0.631351C0.475359 0.852662 0.352408 1.29529 0.573719 1.66414C0.991752 2.37725 1.48356 3.06578 2.04913 3.68053L1.01634 5.47561C0.795031 5.84447 0.917982 6.31168 1.28683 6.53299C1.40978 6.60676 1.53274 6.63135 1.68028 6.63135C1.95077 6.63135 2.19667 6.48381 2.34421 6.23791L3.18028 4.78709C3.94257 5.45102 4.80323 6.0166 5.71306 6.45922L5.22126 8.22971C5.1229 8.64775 5.34421 9.06578 5.76224 9.16414C5.83601 9.18873 5.88519 9.18873 5.95896 9.18873C6.30323 9.18873 6.59831 8.96742 6.69667 8.62316L7.1147 7.0248C8.1229 7.36906 9.15569 7.56578 10.2377 7.63955V9.28709C10.2377 9.70512 10.5819 10.0494 10.9999 10.0494C11.418 10.0494 11.7622 9.70512 11.7622 9.28709V7.63955C12.795 7.56578 13.8278 7.36906 14.8114 7.04939L15.2295 8.62316C15.3278 8.96742 15.6229 9.18873 15.9672 9.18873C16.0409 9.18873 16.0901 9.18873 16.1639 9.16414C16.5819 9.06578 16.8278 8.62316 16.7049 8.22971L16.2377 6.45922C17.1475 6.0166 18.0081 5.45102 18.7704 4.78709L19.6065 6.21332C19.754 6.45922 19.9999 6.60676 20.2704 6.60676C20.3934 6.60676 20.5409 6.58217 20.6639 6.5084C21.0327 6.28709 21.1557 5.81988 20.9344 5.45102L19.9262 3.68053C20.4918 3.06578 20.9836 2.37725 21.4016 1.63955C21.6475 1.2707 21.5245 0.803482 21.1557 0.606761Z" fill="#717984"/>
</svg>
