<svg width="28" height="28" viewBox="0 0 28 28" fill="none" xmlns="http://www.w3.org/2000/svg">
<path fill-rule="evenodd" clip-rule="evenodd" d="M14.0003 5.49459C16.6042 5.49459 18.3606 6.61933 19.3621 7.55918L23.2756 3.73815C20.8721 1.50407 17.7443 0.132812 14.0003 0.132812C8.57694 0.132812 3.89309 3.24511 1.61279 7.77489L6.09635 11.257C7.22109 7.91355 10.3334 5.49459 14.0003 5.49459Z" fill="#EA4335"/>
<path fill-rule="evenodd" clip-rule="evenodd" d="M27.3125 14.3076C27.3125 13.1675 27.22 12.3355 27.0197 11.4727H14.0005V16.6187H21.6426C21.4885 17.8975 20.6565 19.8235 18.8076 21.1177L23.1833 24.5073C25.8026 22.0884 27.3125 18.5292 27.3125 14.3076Z" fill="#4285F4"/>
<path fill-rule="evenodd" clip-rule="evenodd" d="M6.11186 16.7425C5.81912 15.8797 5.64964 14.9552 5.64964 14C5.64964 13.0447 5.81912 12.1203 6.09646 11.2575L1.6129 7.77539C0.673048 9.65509 0.133789 11.7659 0.133789 14C0.133789 16.2341 0.673048 18.3449 1.6129 20.2246L6.11186 16.7425Z" fill="#FBBC05"/>
<path fill-rule="evenodd" clip-rule="evenodd" d="M14.0006 27.8663C17.7446 27.8663 20.8877 26.6337 23.1834 24.5075L18.8077 21.1179C17.6367 21.9345 16.0652 22.5046 14.0006 22.5046C10.3336 22.5046 7.22131 20.0856 6.11197 16.7422L1.62842 20.2243C3.90871 24.754 8.57716 27.8663 14.0006 27.8663Z" fill="#34A853"/>
</svg>
