<svg width="140" height="140" viewBox="0 0 140 140" fill="none" xmlns="http://www.w3.org/2000/svg">
<path fill-rule="evenodd" clip-rule="evenodd" d="M37.4272 57.8617C37.2499 57.4524 36.5485 57.703 36.6955 58.1165C38.8313 64.1314 40.3264 70.355 41.1559 76.6837C41.2296 77.1929 41.9898 77.0207 41.9291 76.5227C41.3691 71.9368 39.3499 62.302 37.4272 57.8617ZM52.5285 112.088C51.1192 111.695 50.2069 111.431 48.7747 111.125C48.6719 111.098 48.5626 111.112 48.4702 111.164C48.3777 111.217 48.3094 111.303 48.2799 111.405C48.2504 111.507 48.262 111.617 48.3123 111.711C48.3625 111.804 48.4474 111.874 48.5488 111.906C49.7845 112.334 51.6974 112.578 51.8155 112.854C51.8621 112.965 48.931 123.121 48.4303 123.903C48.007 124.563 47.3243 124.013 46.7605 123.774C46.131 123.507 45.6681 123.4 45.0367 123.139C44.4421 122.892 44.1617 123.863 44.7567 124.107C45.4669 124.399 46.0167 124.519 46.7283 124.804C47.9183 125.278 48.7817 125.707 49.3062 124.156C50.5769 120.404 51.6755 116.46 52.844 112.662C52.8758 112.544 52.8604 112.418 52.8012 112.311C52.7421 112.204 52.6436 112.124 52.5267 112.088H52.5285ZM26.3705 101.341C33.3448 104.939 40.8777 107.256 48.3635 109.717C46.5953 112.606 43.0305 120.784 43.0305 127.818C34.7173 125.68 6.20208 113.128 3.50054 106.149C0.799011 99.1696 3.05348 69.7901 7.55448 63.6003C10.6396 59.3578 19.3177 55.3267 25.453 53.5254C30.3306 58.7703 39.1805 75.9847 42.4126 83.8027C42.3603 90.4047 42.4233 97.022 42.9259 103.607C42.9633 104.092 43.6609 103.987 43.6623 103.522C43.6791 96.4517 43.4691 89.3752 43.4925 82.2884C43.5233 72.683 45.1991 63.5284 44.2088 53.7676C48.4174 54.5158 52.5503 55.6403 56.5577 57.1276C56.5577 60.8698 56.0696 98.3123 56.0015 109.037C47.307 108.567 35.7696 104.479 27.8797 100.706C24.2247 98.9587 21.5419 97.5923 21.8807 93.2177C22.3119 87.6448 22.2587 82.0233 23.0609 76.4943C23.0715 76.3953 23.0434 76.296 22.9824 76.2173C22.9214 76.1385 22.8324 76.0864 22.7339 76.0719C22.6354 76.0574 22.5351 76.0815 22.454 76.1393C22.3729 76.197 22.3173 76.2839 22.2988 76.3818C21.2367 81.5497 20.9683 88.7396 20.8265 94.0563C20.7308 97.6389 23.2415 99.7249 26.3691 101.339L26.3705 101.341ZM44.2522 86.0707C44.212 86.1681 44.2108 86.2772 44.2489 86.3754C44.287 86.4736 44.3615 86.5534 44.4569 86.5981C44.5522 86.6429 44.6612 86.6492 44.7611 86.6157C44.861 86.5822 44.9441 86.5116 44.9933 86.4184C46.7455 83.0581 48.2581 79.5782 49.5199 76.0047C50.6026 73.0311 51.5037 71.577 49.0005 69.0794C47.9235 68.0037 47.6803 67.7191 48.9492 67.3896C49.718 67.2054 50.4517 66.8972 51.1215 66.4773C51.9237 65.8515 51.7165 64.9251 51.3633 64.108C50.3014 61.5683 49.0243 59.124 47.5459 56.8019C47.2692 56.3819 46.691 56.8126 46.9155 57.2354C47.7261 58.7647 50.4958 63.5713 50.7538 65.0619C50.9274 66.0699 48.7555 66.4619 47.9249 66.7689C46.1814 67.4078 47.0928 68.5147 48.0401 69.4247C50.4822 71.7716 49.8363 72.4553 48.7831 75.3775C47.4568 79.06 45.886 82.5175 44.2536 86.0707H44.2522ZM23.8547 57.7497C23.9979 57.3096 24.6947 57.5523 24.5906 57.9937C24.2257 59.537 23.5126 62.5419 23.6717 64.1071C23.7506 64.8836 24.3251 65.1963 24.963 65.4254C26.0606 65.8211 27.1904 66.1347 28.2997 66.4936C30.9349 67.3462 30.2657 68.5469 30.0996 70.8411C29.8378 74.4475 29.5774 74.4563 32.3765 76.8214C35.0626 79.0913 37.829 81.741 40.6122 83.8214C41.0593 84.1555 40.5058 84.8056 40.0709 84.4878C37.0996 82.3164 33.3275 78.9844 30.6143 76.5017C28.6217 74.6775 29.0743 72.9625 29.2484 70.5438C29.3632 68.9464 29.9554 67.9977 28.1461 67.3999C27.0261 67.0307 25.8945 66.7036 24.7819 66.3163C24.0031 66.0447 23.2083 65.6242 22.9269 64.7548C22.4598 63.3081 23.3955 59.1604 23.8547 57.7497Z" fill="#FE573F"/>
<path fill-rule="evenodd" clip-rule="evenodd" d="M29.6384 28.8719C30.0033 29.1468 30.3921 28.6922 30.5451 28.4001C31.7151 26.1652 32.5051 22.8533 31.9951 20.3534C31.9111 19.9413 31.2106 19.9114 31.2181 20.3772C31.2647 23.2509 31.1513 25.2772 29.7835 27.8966C28.3663 26.6394 25.8757 26.6324 25.4986 28.7132C25.1635 30.5654 26.0614 33.5871 27.4049 34.9166C27.6532 35.1925 27.9778 35.3886 28.3376 35.48C28.6974 35.5714 29.0762 35.5539 29.4261 35.43C29.9763 40.1517 30.7794 44.8543 30.9712 49.9004C30.9907 49.9941 31.0427 50.0779 31.1182 50.1369C31.1936 50.1959 31.2875 50.2262 31.3832 50.2224C31.4789 50.2187 31.5701 50.1811 31.6407 50.1164C31.7113 50.0517 31.7567 49.9641 31.7687 49.8691C32.0795 45.4012 30.8004 39.132 30.1223 34.674C30.0523 34.211 29.6239 34.0267 29.3122 34.2815C28.5697 34.8882 27.9472 34.0323 27.5804 33.4177C26.963 32.3836 26.1575 30.0316 26.5509 28.8154C27.0311 27.3319 28.8231 28.2587 29.6384 28.8719ZM41.9537 51.8146C42.0261 52.6915 42.1609 58.0283 41.4231 58.2434C40.5859 58.4875 37.8601 55.9353 36.3285 55.6105C35.6052 56.1817 31.9008 59.0246 30.9866 58.3517C29.8666 57.5285 29.5619 52.3317 29.6291 51.1594C29.6387 51.0867 29.6647 51.017 29.7051 50.9558C29.7456 50.8945 29.7993 50.8432 29.8624 50.8057C29.9255 50.7682 29.9963 50.7455 30.0695 50.7392C30.1426 50.733 30.2162 50.7435 30.2847 50.7698C32.3658 51.3745 34.3469 52.2812 36.1647 53.461C37.3703 52.9273 38.5176 52.2705 39.5882 51.501C40.4651 50.8687 41.7904 49.8187 41.9561 51.8151L41.9537 51.8146ZM39.0366 44.9187C42.5268 45.8282 45.9251 44.9831 47.3316 41.3156C49.5427 35.5518 47.4277 23.7745 44.6478 18.0429C44.4205 17.5739 43.7686 17.9496 43.9478 18.4162C46.4333 24.8054 48.3097 32.574 46.9984 39.377C46.1271 43.8967 43.056 45.2104 38.8747 44.011C37.8615 43.7203 36.868 43.3241 35.9109 42.9666C35.4531 42.7958 35.2692 43.486 35.6925 43.6774C36.5125 44.0561 37.3525 44.3901 38.2087 44.6779C38.4094 46.224 38.2708 49.4309 38.3212 50.2616C38.3492 50.7222 39.0347 50.7002 39.1145 50.256C39.2774 49.3502 39.1411 45.7956 39.0361 44.921L39.0366 44.9187ZM38.1135 12.1881C37.6609 12.2054 37.6851 12.918 38.1182 12.9726C40.2131 13.2362 43.3999 13.8317 43.1031 16.691C43.1009 16.7833 43.1331 16.8732 43.1934 16.9433C43.2537 17.0133 43.3378 17.0585 43.4294 17.0701C43.5211 17.0817 43.6138 17.0589 43.6897 17.0061C43.7655 16.9533 43.8191 16.8743 43.84 16.7843C44.5017 13.6656 40.7133 12.085 38.1135 12.1862V12.1881ZM40.5332 17.201C40.5816 17.2877 40.5937 17.39 40.5667 17.4855C40.5397 17.581 40.4759 17.6619 40.3892 17.7104C40.3026 17.7588 40.2003 17.7709 40.1047 17.7439C40.0092 17.7169 39.9283 17.6531 39.8799 17.5664C39.0661 16.3564 37.9493 15.381 36.6409 14.7374C35.3325 14.0937 33.8781 13.8045 32.423 13.8984C30.2264 13.9824 24.9778 15.3213 24.5536 17.8982C24.4696 18.4074 23.5997 18.2832 23.6613 17.7769C24.0347 14.7114 29.5147 13.1863 32.0739 13.0085C35.3075 12.784 39.0212 14.1467 40.5332 17.201ZM34.8987 18.5609C35.2669 18.797 34.9285 19.4406 34.5351 19.2446C32.1463 18.0536 29.1745 17.5534 26.7049 18.8456C23.7677 20.3818 24.4248 23.5552 25.9905 25.861C26.056 25.9499 26.0847 26.0608 26.0705 26.1705C26.0564 26.2801 26.0004 26.38 25.9143 26.4494C25.8282 26.5187 25.7186 26.5522 25.6085 26.5427C25.4983 26.5332 25.3961 26.4816 25.3231 26.3986C23.3379 24.0494 23.0365 20.0986 25.892 18.2954C28.5053 16.6438 32.3502 16.9257 34.8987 18.5609ZM45.3408 27.8644C45.7459 28.1542 45.6338 28.5816 45.3408 28.7202C44.9105 28.9238 44.5 29 43.8237 28.5816C43.4466 28.675 43.1615 28.2848 43.6207 27.9358C43.8776 27.7784 44.1704 27.6893 44.4715 27.6768C44.7725 27.6643 45.0717 27.7289 45.3408 27.8644ZM39.3315 28.2088C40.1211 28.408 40 29.5 39.5 29.5C39 29.5 38.5 29.5 38 29C37.6425 29.1106 36.9077 29.0096 37.2311 28.7202C37.5242 28.4899 37.8634 28.3253 38.2257 28.2375C38.588 28.1496 38.965 28.1406 39.3311 28.2111L39.3315 28.2088ZM45.4785 25.0947C45.7188 25.4839 45.4103 25.8008 45.0641 25.5544C44.1167 24.8777 43.4396 25.0812 42.7625 25.7956C42.6928 25.8622 42.6016 25.9016 42.5053 25.9067C42.4091 25.9117 42.3143 25.882 42.2381 25.823C42.1619 25.764 42.1094 25.6796 42.0902 25.5851C42.071 25.4907 42.0863 25.3925 42.1334 25.3084C42.72 24.0951 44.8027 23.9985 45.4785 25.0947ZM39.6083 25.4144C40.1062 25.7256 39.5877 26.4877 39.0949 26.169C38.575 25.8351 37.9442 25.7203 37.3399 25.8495C36.7357 25.9788 36.2071 26.3417 35.8693 26.8592C35.8094 26.9386 35.7212 26.9919 35.623 27.0081C35.5248 27.0242 35.4242 27.002 35.3419 26.9459C35.2597 26.8898 35.2022 26.8043 35.1814 26.707C35.1605 26.6097 35.1779 26.5081 35.23 26.4233C36.0756 24.8525 38.1518 24.5039 39.6083 25.4144ZM42.3658 27.4985C43.4397 29.8505 44.0081 32.4017 44.0341 34.9871C44.0257 36.8071 42.9636 36.5789 41.6966 36.1258C41.1525 35.9643 40.637 35.7188 40.1687 35.3982C40.1076 35.3403 40.0668 35.2642 40.0525 35.1812C40.0382 35.0983 40.0512 35.0129 40.0895 34.9379C40.1278 34.8629 40.1894 34.8024 40.265 34.7653C40.3406 34.7282 40.4262 34.7166 40.5089 34.7323C40.9579 34.8676 41.3737 35.1056 41.8119 35.2746C42.5842 35.5695 43.1862 35.6866 43.1792 35.0235C43.1549 32.5133 42.6389 30.0323 41.6602 27.7206C41.4754 27.2708 42.1717 27.079 42.3677 27.4985H42.3658ZM81.5658 113.772C82.1258 113.1 82.5225 113.823 82.207 114.233C81.0595 115.723 77.8073 115.819 76.047 116.015C70.0335 116.681 68.7287 118.162 63.517 120.644C60.0514 122.343 56.1964 123.091 52.3469 122.81C50.8825 122.72 51.5694 121.813 52.3893 121.852C55.6933 122.01 59.2713 121.577 64.0135 119.188C68.6965 116.829 70.4344 115.699 75.7665 115.099C77.3373 114.923 80.5592 114.981 81.5658 113.772ZM87.2125 65.7988C87.3249 61.2208 91.3775 56.6054 96.7059 56.6054C102.859 56.6054 106.241 61.8214 106.294 65.1608C100.12 65.6858 90.4395 65.8734 87.2125 65.7988ZM95.9555 46.2655C98.4591 46.0382 100.459 47.2791 100.533 50.2434C100.608 53.2076 98.4694 54.5582 96.781 54.5582C95.0926 54.5582 92.3155 53.3952 92.1279 50.8062C91.9403 48.2171 93.4821 46.4909 95.9555 46.2655ZM113.3 33.4788C113.208 33.4514 113.11 33.4549 113.021 33.489C112.932 33.523 112.856 33.5856 112.806 33.667C112.757 33.7484 112.735 33.844 112.745 33.939C112.755 34.0339 112.796 34.1228 112.862 34.1919C113.548 35.1136 114.04 35.5494 114.181 36.8052C114.283 37.7162 115.035 37.9117 115.233 36.7903C115.44 35.619 114.416 33.8344 113.3 33.4788ZM109.314 32.72C111.187 32.4722 112.827 35.7972 112.751 37.459C112.693 38.7503 111.869 39.0821 111.621 37.5356C111.435 36.353 110.688 33.7136 109.313 33.532C109.216 33.5166 109.128 33.4673 109.065 33.3929C109.001 33.3184 108.966 33.2238 108.966 33.126C108.966 33.0282 109.001 32.9336 109.065 32.8592C109.128 32.7848 109.216 32.7354 109.313 32.72H109.314ZM109.468 37.5267C109.485 35.0604 107.695 31.8278 104.852 32.5418C104.509 32.6281 104.419 33.267 104.856 33.3262C107.435 33.6767 107.872 35.5536 108.232 37.7502C108.529 39.559 109.457 39.3439 109.468 37.5267ZM100.653 33.6235C103.099 31.6014 106.533 34.8672 105.88 37.9901C105.737 38.6742 104.987 38.2738 104.936 37.69C104.803 36.144 103.77 33.35 101.058 34.296C100.694 34.4224 100.343 33.8806 100.653 33.6235ZM136.928 73.4171C136.814 64.4104 137.292 54.9982 136.928 46.1096C136.68 40.043 136.524 36.4842 129.728 35.6437C125.671 35.142 120.454 35.5396 116.517 35.5648C116.412 35.5691 116.312 35.6136 116.239 35.6891C116.166 35.7646 116.125 35.8654 116.125 35.9705C116.124 36.0756 116.164 36.1769 116.236 36.2534C116.308 36.3299 116.406 36.3758 116.511 36.3815C120.63 36.5864 125.389 36.459 129.146 36.6853C135.139 37.046 135.992 40.182 136.002 46.7261C136.016 55.6978 135.769 64.6582 135.851 73.6416C135.935 82.9119 136.67 93.2126 136.401 102.363C136.135 111.404 131.896 111.043 125.58 111.198C106.548 111.674 86.3701 111.326 67.3871 111.467C66.9517 111.47 66.9521 112.234 67.3871 112.238C85.5759 112.425 106.364 112.916 124.673 112.404C133.148 112.167 136.904 112.507 137.522 102.651C138.032 94.5086 136.988 78.3652 136.926 73.4194L136.928 73.4171ZM101.836 35.514C91.2057 35.395 79.8853 35.072 69.2887 35.443C64.126 35.6236 58.0211 37.522 58.0211 43.6942C58.0103 60.2543 57.9221 76.8116 57.9483 93.375C57.9539 97.219 57.6515 102.104 58.0822 105.779C58.2819 107.481 58.8391 108.668 60.0931 109.644C60.4557 109.927 61.1664 109.455 60.6862 108.976C59.5223 107.818 59.1929 106.626 59.0893 105.142C58.8093 101.05 59.079 96.2651 59.0813 92.0828C59.0888 75.966 59.0347 59.8474 59.0347 43.7324C59.0347 37.6896 65.4854 36.5649 70.2552 36.5066C80.7449 36.3778 91.2552 36.6396 101.751 36.5859C102.434 36.5822 102.532 35.5219 101.835 35.5126L101.836 35.514ZM105.891 92.5448C106.087 92.5284 106.285 92.5557 106.47 92.6248C106.655 92.6939 106.822 92.8031 106.96 92.9446C107.097 93.0861 107.202 93.2562 107.265 93.4429C107.329 93.6296 107.351 93.8281 107.329 94.0242C107.183 95.3126 105.688 95.308 105.089 94.4568C104.96 94.2897 104.878 94.0915 104.851 93.8824C104.824 93.6733 104.853 93.4608 104.934 93.2664C105.016 93.072 105.148 92.9027 105.316 92.7757C105.484 92.6487 105.683 92.5686 105.893 92.5434L105.891 92.5448ZM100.871 92.6335C101.064 92.6735 101.244 92.7623 101.393 92.8914C101.542 93.0205 101.656 93.1856 101.723 93.371C101.79 93.5563 101.809 93.7559 101.778 93.9506C101.746 94.1453 101.665 94.3287 101.543 94.4834C100.902 95.3551 99.3178 94.8875 99.259 93.9766C99.2606 93.7769 99.3057 93.58 99.3911 93.3995C99.4766 93.219 99.6003 93.0593 99.7537 92.9315C99.9071 92.8037 100.086 92.7108 100.279 92.6593C100.472 92.6079 100.674 92.5991 100.871 92.6335ZM96.4445 93.3148C96.5406 93.4484 96.6087 93.6 96.6449 93.7605C96.6811 93.921 96.6845 94.0871 96.6552 94.249C96.6258 94.4108 96.5641 94.5651 96.4738 94.7027C96.3835 94.8402 96.2664 94.9581 96.1295 95.0494C95.9332 95.1472 95.7151 95.1935 95.496 95.1839C95.2768 95.1743 95.0636 95.1091 94.8766 94.9944C94.6896 94.8798 94.5348 94.7194 94.4267 94.5285C94.3187 94.3375 94.261 94.1222 94.2591 93.9028C94.2759 93.654 94.3699 93.4167 94.5282 93.2239C94.6864 93.0312 94.9009 92.8928 95.1417 92.828C95.3825 92.7632 95.6376 92.7753 95.8712 92.8626C96.1048 92.9499 96.3052 93.108 96.4445 93.3148ZM90.5426 93.1244C91.4008 93.4408 91.7517 94.4988 90.9015 94.9818C90.613 95.1523 90.282 95.2376 89.947 95.2278C89.612 95.218 89.2867 95.1134 89.0087 94.9262C87.982 94.1124 88.8757 92.5103 90.5426 93.1244ZM84.1441 93.0012C84.3367 92.959 84.5364 92.9613 84.728 93.0079C84.9195 93.0546 85.0979 93.1443 85.2495 93.2703C85.4012 93.3964 85.522 93.5553 85.6029 93.7351C85.6838 93.9149 85.7226 94.1108 85.7163 94.3079C85.6519 95.4769 84.2767 95.5175 83.5627 94.9351C83.4012 94.7955 83.2836 94.6121 83.2241 94.4072C83.1645 94.2022 83.1655 93.9844 83.227 93.78C83.2885 93.5756 83.4078 93.3934 83.5705 93.2553C83.7332 93.1172 83.9325 93.0286 84.1441 93.0012ZM79.3603 93.1748C79.5493 93.1979 79.7302 93.2652 79.8882 93.3715C80.0463 93.4777 80.1769 93.6198 80.2696 93.7861C80.3623 93.9524 80.4143 94.1383 80.4215 94.3286C80.4287 94.5188 80.3908 94.7081 80.3109 94.881C79.9171 95.7774 78.3761 95.937 78.0173 94.7951C77.9551 94.5955 77.9438 94.3835 77.9843 94.1784C78.0248 93.9734 78.1159 93.7816 78.2493 93.6207C78.3828 93.4597 78.5543 93.3347 78.7483 93.2568C78.9423 93.1789 79.1527 93.1508 79.3603 93.1748ZM120.4 98.5541C120.611 95.804 120.249 91.2512 120.462 89.5829C120.52 89.1223 121.225 88.9408 121.333 89.4742C121.352 89.5703 121.528 96.2964 121.419 98.3544C121.359 99.4781 121.486 99.5817 120.238 99.6536C111.013 100.182 101.497 100.129 92.2385 100.26C86.2493 100.346 80.4131 100.494 74.4239 100.365C73.5065 100.346 73.7155 100.003 73.6605 99.2406C73.4943 96.945 73.6605 93.9206 73.6189 90.1275C73.6364 89.9728 73.7081 89.8292 73.8213 89.7223C73.9345 89.6154 74.0818 89.5519 74.2373 89.5432C87.0328 89.0346 104.635 89.0495 119.05 88.819C119.18 88.8249 119.302 88.8807 119.392 88.9747C119.481 89.0686 119.531 89.1934 119.53 89.3231C119.53 89.4528 119.479 89.5773 119.389 89.6707C119.299 89.764 119.177 89.819 119.047 89.8242C103.901 89.736 86.5927 90.6996 74.6106 90.3272C74.5149 93.4618 74.6764 96.7994 74.5639 99.5084C83.9439 99.2219 93.2306 99.2457 102.627 99.045C108.583 98.9176 114.47 98.5695 120.403 98.5541H120.4ZM120.214 80.6341C120.546 77.7767 120.061 74.6715 120.206 71.8995C105.059 72.0236 89.6578 72.054 74.5051 72.0708C74.4006 74.5226 74.4809 78.9177 74.3703 81.2039C74.3446 81.7345 73.5508 81.791 73.5303 81.2412C73.4304 78.5229 73.373 75.0966 73.4864 72.3442C73.5331 71.1939 73.6801 71.1911 74.7371 71.1673C88.7277 70.8556 105.712 70.5807 119.677 70.934C120.824 70.9634 121.007 71.004 121.167 72.2406C121.372 73.8189 121.521 79.9724 121.21 81.231C121.187 81.352 121.123 81.4615 121.029 81.5411C120.935 81.6208 120.816 81.6658 120.693 81.6687C105.583 82.0126 90.9472 82.2572 76.348 82.0696C75.8095 82.063 75.8729 81.252 76.3947 81.2468C91.0111 81.0886 105.741 80.7228 120.215 80.6299L120.214 80.6341ZM66.7197 106.84C68.7553 106.338 68.9947 107.773 67.6643 109.072C66.5058 110.19 65.5773 111.523 64.931 112.997C64.6888 113.544 63.811 113.22 64.0555 112.671C64.7987 111.025 65.8457 109.534 67.1416 108.277C67.7735 107.645 67.7221 107.599 66.9185 107.804C62.5165 108.924 59.4173 115.009 54.5789 114.652C52.9106 114.529 53.2037 113.795 54.5789 113.765C59.2153 113.66 62.2141 107.95 66.7197 106.84Z" fill="black"/>
<path d="M40.2761 39.6263C40.6096 39.793 41.3821 40.1264 42.2763 40.1269C43.2765 40.1274 44 39 44.4999 39C44.4999 39 44.7188 39.0098 43.7702 39.6264C43 40.127 42.2763 40.1268 41.8076 40.1269C41.1122 40.1269 39.2761 39.1263 40.2761 39.6263Z" stroke="black"/>
</svg>
