<svg width="28" height="18" viewBox="0 0 28 18" fill="none" xmlns="http://www.w3.org/2000/svg">
<path d="M2.1 0C1.82491 0 1.56378 0.05715 1.32344 0.151442L13.2016 10.4171C13.715 10.8607 14.2619 10.861 14.7766 10.4171L26.6766 0.151442C26.4362 0.05715 26.1751 0 25.9 0H2.1ZM0.021875 1.78483C0.0086345 1.87947 0 1.97858 0 2.07692V15.9231C0 17.0737 0.936621 18 2.1 18H25.9C27.0634 18 28 17.0737 28 15.9231V2.07692C28 1.97858 27.9914 1.87947 27.9781 1.78483L16.1547 11.9856C14.9211 13.0497 13.0569 13.0514 11.8234 11.9856L0.021875 1.78483Z" fill="#FE573F"/>
</svg>
