<svg width="12" height="20" viewBox="0 0 12 20" fill="none" xmlns="http://www.w3.org/2000/svg">
<path fill-rule="evenodd" clip-rule="evenodd" d="M11.7985 13.1652V13.1707L11.7822 13.2824L11.3505 16.1861C11.1809 17.2126 10.6319 18.1489 9.80111 18.8284C9.11951 19.3858 8.27808 19.7389 7.3838 19.8428C6.48952 19.9467 5.58278 19.7967 4.77886 19.4118C4.11479 19.0973 3.54287 18.6329 3.1137 18.0596C2.97584 17.8793 2.85327 17.689 2.74715 17.4905L1.90002 15.9054L0.924314 14.1729C0.794914 13.9439 0.766266 13.6758 0.844594 13.4269C0.922922 13.1781 1.1019 12.9685 1.34264 12.8437C1.46152 12.7829 1.59197 12.745 1.72644 12.7322C1.86091 12.7194 1.99673 12.7319 2.12605 12.7691C2.25536 12.8062 2.37561 12.8673 2.47982 12.9487C2.58404 13.0301 2.67015 13.1302 2.73319 13.2433L3.7409 15.032V7.4149C3.7409 6.87224 4.19995 6.43359 4.76839 6.43359C5.33508 6.43359 5.79471 6.87224 5.79471 7.41545V11.0264C5.85982 10.8289 5.98971 10.6562 6.16555 10.5332C6.34139 10.4102 6.55406 10.3433 6.77275 10.3423C7.34119 10.3423 7.80024 10.7837 7.80024 11.3242V11.8608C7.83521 11.6298 7.95697 11.4186 8.14322 11.2656C8.32947 11.1127 8.56772 11.0284 8.81435 11.0281C9.38279 11.0281 9.84184 11.4667 9.84184 12.0099V12.6742C9.94893 12.4495 10.1426 12.2718 10.3833 12.1774C10.6241 12.0831 10.8938 12.079 11.1376 12.1662C11.3457 12.2416 11.5224 12.3785 11.6416 12.5566C11.7607 12.7348 11.8157 12.9445 11.7985 13.1547H11.8002L11.7985 13.1652Z" fill="#3C3C3C"/>
<path d="M4.05548 5.42641C4.03133 5.44932 4.00265 5.4675 3.97108 5.47993C3.9395 5.49236 3.90565 5.49878 3.87145 5.49883C3.83725 5.49888 3.80338 5.49256 3.77176 5.48023C3.74015 5.4679 3.71141 5.44979 3.68719 5.42696C3.66297 5.40412 3.64374 5.37699 3.6306 5.34712C3.61746 5.31725 3.61067 5.28523 3.61062 5.25288C3.61057 5.22053 3.61725 5.18848 3.63029 5.15858C3.64332 5.12867 3.66246 5.10148 3.6866 5.07857C3.81239 4.95835 3.96213 4.8629 4.12716 4.79777C4.29219 4.73263 4.46924 4.69909 4.64806 4.69909C4.82688 4.69909 5.00392 4.73263 5.16895 4.79777C5.33398 4.8629 5.48372 4.95835 5.60951 5.07857C5.6529 5.12587 5.67569 5.18698 5.67327 5.24956C5.67086 5.31214 5.64342 5.37151 5.5965 5.41569C5.54958 5.45986 5.48668 5.48554 5.42051 5.48753C5.35435 5.48952 5.28985 5.46767 5.24006 5.42641C5.16262 5.35226 5.07039 5.29338 4.96872 5.2532C4.86705 5.21302 4.75796 5.19233 4.64777 5.19233C4.53758 5.19233 4.42849 5.21302 4.32682 5.2532C4.22515 5.29338 4.13292 5.35226 4.05548 5.42641ZM2.92093 4.35539C2.87217 4.40166 2.80597 4.42771 2.73691 4.42782C2.66784 4.42792 2.60156 4.40206 2.55264 4.35594C2.50372 4.30981 2.47618 4.2472 2.47607 4.18186C2.47597 4.11653 2.5033 4.05383 2.55206 4.00755C2.82647 3.74527 3.15313 3.53706 3.51316 3.39495C3.87318 3.25285 4.25941 3.17969 4.64951 3.17969C5.03962 3.17969 5.42585 3.25285 5.78587 3.39495C6.14589 3.53706 6.47256 3.74527 6.74697 4.00755C6.78876 4.05501 6.81025 4.11554 6.80721 4.17724C6.80417 4.23893 6.77682 4.29731 6.73054 4.34088C6.68427 4.38445 6.62242 4.41005 6.55719 4.41263C6.49195 4.41521 6.42806 4.3946 6.3781 4.35484C6.15202 4.13855 5.88284 3.96683 5.58612 3.84964C5.2894 3.73244 4.97106 3.6721 4.64951 3.6721C4.32797 3.6721 4.00962 3.73244 3.71291 3.84964C3.41619 3.96683 3.147 4.13855 2.92093 4.35484V4.35539Z" fill="#FF533F"/>
<path d="M1.78617 3.28378C1.73741 3.33005 1.67121 3.3561 1.60214 3.35621C1.53307 3.35631 1.46679 3.33046 1.41788 3.28433C1.36896 3.23821 1.34142 3.17559 1.34131 3.11025C1.3412 3.04492 1.36853 2.98222 1.41729 2.93595C1.8403 2.53145 2.34391 2.21034 2.89898 1.99118C3.45405 1.77202 4.04956 1.65918 4.65104 1.65918C5.25252 1.65918 5.84803 1.77202 6.4031 1.99118C6.95817 2.21034 7.46178 2.53145 7.88479 2.93595C7.92817 2.98324 7.95096 3.04435 7.94855 3.10693C7.94613 3.16951 7.91869 3.22889 7.87177 3.27306C7.82485 3.31724 7.76195 3.34291 7.69578 3.3449C7.62962 3.34689 7.56512 3.32505 7.51533 3.28378C7.14068 2.92536 6.69458 2.64082 6.20287 2.44662C5.71115 2.25242 5.1836 2.15242 4.65075 2.15242C4.1179 2.15242 3.59034 2.25242 3.09863 2.44662C2.60692 2.64082 2.16082 2.92536 1.78617 3.28378Z" fill="#FF533F"/>
<path d="M0.651889 2.18064C0.627745 2.20355 0.599066 2.22174 0.567491 2.23417C0.535916 2.2466 0.502062 2.25302 0.467864 2.25307C0.433665 2.25312 0.39979 2.2468 0.368174 2.23447C0.336557 2.22214 0.307818 2.20403 0.283598 2.18119C0.259377 2.15835 0.24015 2.13123 0.227012 2.10136C0.213875 2.07149 0.207086 2.03947 0.207032 2.00712C0.206978 1.97477 0.21366 1.94272 0.226698 1.91281C0.239735 1.88291 0.258872 1.85572 0.283016 1.83281C0.854601 1.28619 1.53512 0.852243 2.28519 0.55608C3.03525 0.259917 3.83997 0.107422 4.65276 0.107422C5.46555 0.107422 6.27026 0.259917 7.02033 0.55608C7.7704 0.852243 8.45092 1.28619 9.0225 1.83281C9.06508 1.88016 9.08722 1.94095 9.08452 2.00306C9.08183 2.06517 9.05448 2.12404 9.00794 2.16793C8.9614 2.21181 8.89908 2.23749 8.83342 2.23985C8.76775 2.24221 8.70355 2.22107 8.65363 2.18064C8.13038 1.68002 7.50734 1.28257 6.82058 1.01131C6.13382 0.740056 5.39698 0.600384 4.65276 0.600384C3.90853 0.600384 3.1717 0.740056 2.48494 1.01131C1.79818 1.28257 1.17513 1.68002 0.651889 2.18064Z" fill="#FF533F"/>
</svg>
