<svg width="309" height="68" viewBox="0 0 309 68" fill="none" xmlns="http://www.w3.org/2000/svg">
<path d="M72.4011 51.4143V26.4567H63.0815V23.5509H84.8933V26.4567H75.5737V51.4143H72.4011ZM111.963 47.6727C109.293 50.4855 105.896 51.892 101.771 51.892C97.6468 51.892 94.2626 50.4855 91.6188 47.6727C88.9749 44.8598 87.653 41.4631 87.653 37.4826C87.653 33.5287 88.9881 30.1452 91.6584 27.3324C94.3287 24.4929 97.7261 23.0732 101.85 23.0732C105.975 23.0732 109.359 24.4797 112.003 27.2926C114.647 30.1054 115.969 33.5021 115.969 37.4826C115.969 41.4366 114.633 44.8332 111.963 47.6727ZM93.9982 45.6426C96.0869 47.8717 98.7043 48.9862 101.85 48.9862C104.997 48.9862 107.588 47.885 109.623 45.6824C111.686 43.4533 112.717 40.7201 112.717 37.4826C112.717 34.2717 111.672 31.5517 109.584 29.3226C107.522 27.0935 104.917 25.979 101.771 25.979C98.625 25.979 96.0208 27.0935 93.9586 29.3226C91.9228 31.5251 90.9049 34.2451 90.9049 37.4826C90.9049 40.6935 91.936 43.4135 93.9982 45.6426ZM133.68 51.8522C130.164 51.8522 127.361 50.804 125.273 48.7076C123.184 46.5847 122.14 43.5993 122.14 39.7515V23.5509H125.273V39.5525C125.273 42.5511 126.013 44.8731 127.494 46.5183C129.001 48.1371 131.089 48.9464 133.759 48.9464C136.377 48.9464 138.426 48.1636 139.906 46.5979C141.387 45.0323 142.127 42.7501 142.127 39.7515V23.5509H145.26V39.5127C145.26 43.4931 144.216 46.5449 142.127 48.6678C140.039 50.7907 137.223 51.8522 133.68 51.8522ZM165.359 51.892C161.366 51.892 158.048 50.5121 155.404 47.7523C152.76 44.9659 151.438 41.5427 151.438 37.4826C151.438 33.4756 152.774 30.0789 155.444 27.2926C158.114 24.4797 161.459 23.0732 165.478 23.0732C167.804 23.0732 169.787 23.458 171.427 24.2276C173.066 24.9706 174.665 26.0851 176.225 27.5712L174.163 29.8003C171.493 27.2528 168.584 25.979 165.438 25.979C162.371 25.979 159.806 27.0803 157.744 29.2828C155.708 31.4853 154.69 34.2186 154.69 37.4826C154.69 40.7201 155.721 43.4533 157.784 45.6824C159.846 47.885 162.397 48.9862 165.438 48.9862C167.236 48.9862 168.822 48.6545 170.197 47.9911C171.572 47.3277 172.973 46.3193 174.401 44.9659L176.463 47.1552C174.903 48.7209 173.264 49.9017 171.546 50.6978C169.827 51.4939 167.765 51.892 165.359 51.892ZM181.946 51.4143V23.5509H185.079V35.9302H201.1V23.5509H204.233V51.4143H201.1V38.8758H185.079V51.4143H181.946ZM233.524 51.6133L221.587 23.5509H225.077L234.952 47.5532L244.866 23.5509H248.237L236.3 51.6133H233.524ZM253.71 51.4143V23.5509H264.1C267.273 23.5509 269.798 24.347 271.675 25.9392C273.552 27.5314 274.49 29.7074 274.49 32.4672C274.49 35.3597 273.446 37.602 271.357 39.1942C269.295 40.7864 266.704 41.5825 263.585 41.5825H256.843V51.4143H253.71ZM256.843 38.7166H263.704C266.004 38.7166 267.841 38.1593 269.216 37.0448C270.617 35.9037 271.318 34.3911 271.318 32.507C271.318 30.5698 270.644 29.0838 269.295 28.0489C267.973 26.9874 266.162 26.4567 263.862 26.4567H256.843V38.7166ZM280.2 51.4143V23.5509H283.134L300.623 45.8814V23.5509H303.677V51.4143H301.178L283.253 28.5663V51.4143H280.2Z" fill="white"/>
<path fill-rule="evenodd" clip-rule="evenodd" d="M34.1182 40.3947V40.4116L34.0711 40.7544L32.8227 49.6639C32.3323 52.8134 30.7446 55.6862 28.3424 57.7713C26.3714 59.4816 23.9382 60.5649 21.3522 60.8837C18.7662 61.2025 16.1441 60.7421 13.8194 59.5614C11.8991 58.5964 10.2453 57.1714 9.00425 55.4122C8.60559 54.8592 8.25118 54.2753 7.9443 53.6661L5.49466 48.8028L2.67319 43.4867C2.299 42.7841 2.21617 41.9616 2.44266 41.1979C2.66917 40.4343 3.18671 39.7913 3.88287 39.4085C4.22663 39.2219 4.60386 39.1056 4.9927 39.0662C5.38155 39.0269 5.77431 39.0653 6.14827 39.1794C6.5222 39.2934 6.86992 39.4806 7.17127 39.7304C7.47264 39.9802 7.72165 40.2875 7.90393 40.6345L10.8179 46.1227V22.7513C10.8179 21.0861 12.1454 19.7402 13.7891 19.7402C15.4278 19.7402 16.757 21.0861 16.757 22.753V33.8325C16.9452 33.2265 17.3208 32.6964 17.8293 32.3191C18.3379 31.9416 18.9527 31.7366 19.5851 31.7334C21.2289 31.7334 22.5563 33.0878 22.5563 34.746V36.3924C22.6574 35.6839 23.0096 35.0356 23.5483 34.5664C24.0868 34.0972 24.7757 33.8385 25.4888 33.8375C27.1327 33.8375 28.46 35.1834 28.46 36.8502V38.8884C28.7699 38.1987 29.3297 37.6538 30.0259 37.3642C30.722 37.0744 31.5021 37.0622 32.2069 37.3297C32.8087 37.5609 33.3199 37.981 33.6644 38.5276C34.0088 39.0741 34.1679 39.7178 34.1182 40.3626H34.1232L34.1182 40.3947Z" fill="white"/>
<path d="M11.7288 16.6485C11.659 16.7187 11.5761 16.7746 11.4847 16.8127C11.3935 16.8509 11.2955 16.8706 11.1967 16.8708C11.0978 16.8708 10.9998 16.8515 10.9084 16.8135C10.817 16.7757 10.7339 16.7202 10.6638 16.6502C10.5938 16.5801 10.5382 16.4968 10.5002 16.4052C10.4622 16.3135 10.4426 16.2153 10.4424 16.116C10.4422 16.0168 10.4616 15.9185 10.4993 15.8267C10.537 15.7349 10.5923 15.6515 10.6621 15.5812C11.0259 15.2123 11.4589 14.9195 11.9361 14.7196C12.4133 14.5198 12.9253 14.4169 13.4424 14.4169C13.9595 14.4169 14.4714 14.5198 14.9487 14.7196C15.4259 14.9195 15.8589 15.2123 16.2226 15.5812C16.3481 15.7263 16.414 15.9138 16.407 16.1058C16.4 16.2979 16.3207 16.48 16.185 16.6155C16.0493 16.7512 15.8674 16.83 15.6761 16.8359C15.4848 16.8421 15.2983 16.7751 15.1543 16.6485C14.9303 16.421 14.6636 16.2403 14.3696 16.117C14.0756 15.9938 13.7602 15.9303 13.4415 15.9303C13.1229 15.9303 12.8074 15.9938 12.5134 16.117C12.2194 16.2403 11.9527 16.421 11.7288 16.6485ZM8.44802 13.3623C8.30702 13.5042 8.11561 13.5842 7.91588 13.5845C7.71615 13.5848 7.52449 13.5055 7.38304 13.364C7.24158 13.2224 7.16195 13.0303 7.16162 12.8298C7.16131 12.6294 7.24036 12.437 7.38136 12.295C8.17488 11.4902 9.11949 10.8514 10.1606 10.4154C11.2016 9.97937 12.3185 9.75488 13.4466 9.75488C14.5747 9.75488 15.6915 9.97937 16.7326 10.4154C17.7737 10.8514 18.7183 11.4902 19.5117 12.295C19.6327 12.4406 19.6948 12.6264 19.6861 12.8156C19.6773 13.005 19.5982 13.1841 19.4643 13.3178C19.3305 13.4514 19.1517 13.53 18.963 13.5379C18.7744 13.5458 18.5897 13.4826 18.4451 13.3606C17.7914 12.6969 17.013 12.1701 16.155 11.8105C15.297 11.4509 14.3764 11.2657 13.4466 11.2657C12.5168 11.2657 11.5962 11.4509 10.7382 11.8105C9.88018 12.1701 9.10176 12.6969 8.44802 13.3606V13.3623Z" fill="white"/>
<path d="M5.16872 10.0746C5.02772 10.2166 4.83631 10.2965 4.63658 10.2968C4.43686 10.2971 4.24518 10.2178 4.10373 10.0763C3.96228 9.93474 3.88264 9.74262 3.88233 9.54215C3.88201 9.34168 3.96105 9.14931 4.10205 9.00734C5.32526 7.76624 6.78155 6.78095 8.38665 6.10852C9.99177 5.43608 11.7138 5.08984 13.4531 5.08984C15.1924 5.08984 16.9145 5.43608 18.5195 6.10852C20.1246 6.78095 21.5809 7.76624 22.8042 9.00734C22.9296 9.15245 22.9955 9.33996 22.9886 9.53197C22.9815 9.72398 22.9022 9.90617 22.7665 10.0417C22.6308 10.1772 22.4489 10.256 22.2576 10.2621C22.0664 10.2682 21.8798 10.2012 21.7359 10.0746C20.6524 8.97487 19.3624 8.1018 17.9405 7.50593C16.5187 6.91005 14.9931 6.60324 13.4523 6.60324C11.9114 6.60324 10.3859 6.91005 8.96399 7.50593C7.54211 8.1018 6.25211 8.97487 5.16872 10.0746Z" fill="white"/>
</svg>
