<svg width="18" height="18" viewBox="0 0 18 18" fill="none" xmlns="http://www.w3.org/2000/svg">
<path d="M9 1C4.584 1 1 4.584 1 9C1 13.416 4.584 17 9 17C13.416 17 17 13.416 17 9C17 4.584 13.416 1 9 1Z" stroke="#717984" stroke-width="1.5"/>
<path fill-rule="evenodd" clip-rule="evenodd" d="M9.0002 4.59961C8.55837 4.59961 8.2002 4.95778 8.2002 5.39961C8.2002 5.84144 8.55837 6.19961 9.0002 6.19961C9.44202 6.19961 9.8002 5.84144 9.8002 5.39961C9.8002 4.95778 9.44202 4.59961 9.0002 4.59961ZM9.0002 7.79961C8.55837 7.79961 8.2002 8.15778 8.2002 8.59961V12.5996C8.2002 13.0414 8.55837 13.3996 9.0002 13.3996C9.44202 13.3996 9.8002 13.0414 9.8002 12.5996V8.59961C9.8002 8.15778 9.44202 7.79961 9.0002 7.79961Z" fill="#717984"/>
</svg>
