<svg width="14" height="20" viewBox="0 0 14 20" fill="none" xmlns="http://www.w3.org/2000/svg">
    <path d="M12.8521 7.36842H12.1768V4.84211C12.1768 2.16842 9.85852 0 7 0C4.14148 0 1.82315 2.16842 1.82315 4.84211V7.36842H1.14791C0.517685 7.36842 0 7.85263 0 8.44211V18.9263C0 19.5158 0.517685 20 1.14791 20H12.8521C13.4823 20 14 19.5158 14 18.9263V8.44211C14 7.85263 13.4823 7.36842 12.8521 7.36842ZM7.81029 13.8105V15.8105C7.81029 16.2316 7.45016 16.5684 7 16.5684C6.54984 16.5684 6.18971 16.2316 6.18971 15.8105V13.8105C5.67203 13.5368 5.33441 13.0316 5.33441 12.4632C5.33441 11.6 6.07717 10.9053 7 10.9053C7.92283 10.9053 8.6656 11.6 8.6656 12.4632C8.6656 13.0526 8.32797 13.5579 7.81029 13.8105ZM9.88103 7.36842H4.11897V4.84211C4.11897 3.34737 5.40193 2.14737 7 2.14737C8.59807 2.14737 9.88103 3.34737 9.88103 4.84211V7.36842Z" fill="#D1DDE4"/>
</svg>
