<svg width="16" height="16" viewBox="0 0 16 16" fill="none" xmlns="http://www.w3.org/2000/svg">
<path d="M14.8846 6.8692H9.16367V1.14768C9.16367 0.506329 8.64051 0 8.0161 0C7.37481 0 6.86853 0.523207 6.86853 1.14768V6.85232H1.14757C0.50628 6.85232 0 7.37553 0 8C0 8.32067 0.135008 8.60759 0.33752 8.81013C0.540032 9.01266 0.826924 9.14768 1.14757 9.14768H6.85166V14.8523C6.85166 15.173 6.98667 15.4599 7.18918 15.6624C7.39169 15.865 7.67858 16 7.99923 16C8.64051 16 9.14679 15.4768 9.14679 14.8523V9.16456H14.8509C15.4922 9.16456 15.9985 8.64135 15.9985 8.01688C16.0322 7.37553 15.509 6.8692 14.8846 6.8692Z" fill="white"/>
</svg>
