<svg width="32" height="32" viewBox="0 0 32 32" fill="none" xmlns="http://www.w3.org/2000/svg">
<path d="M28.3463 11.6475L28.3463 11.6475C29.682 11.8399 30.2172 13.4807 29.2522 14.4237C29.2522 14.4238 29.2521 14.4238 29.2521 14.4238L24.8026 18.7709L25.152 19.1286L24.8026 18.771C24.1837 19.3756 23.9024 20.2458 24.0493 21.098L24.0494 21.0982L25.1082 27.2281C25.3379 28.558 23.9432 29.574 22.7476 28.9475C22.7476 28.9475 22.7476 28.9475 22.7476 28.9475L17.2382 26.0595L17.2381 26.0595C16.4721 25.6581 15.5573 25.6588 14.792 26.0623L9.28934 28.9637C8.09566 29.5931 6.69812 28.5804 6.92457 27.25C6.92458 27.2499 6.92458 27.2499 6.92458 27.2499L7.96873 21.1175L7.96875 21.1174C8.11374 20.2648 7.83051 19.395 7.20992 18.7918L2.75082 14.4553L2.7508 14.4552C1.78326 13.5144 2.31454 11.8724 3.65005 11.6768L3.65007 11.6768L9.80487 10.775C10.6609 10.6497 11.4003 10.1111 11.7821 9.33487L14.5286 3.7532C15.1246 2.54218 16.8503 2.54019 17.4488 3.74971L17.4488 3.74977L20.2085 9.32481L20.2086 9.32486C20.5922 10.0997 21.3327 10.6368 22.1891 10.7601C22.1892 10.7601 22.1892 10.7601 22.1892 10.7601L28.3463 11.6475Z" stroke="#717984"/>
</svg>
