<svg width="108" height="93" viewBox="0 0 108 93" fill="none" xmlns="http://www.w3.org/2000/svg">
<path d="M37.339 59V44.048L34.171 45.032L33.715 43.496L37.819 42.08H39.211V59H37.339ZM55.3485 56.768C54.0365 58.448 52.3245 59.288 50.2125 59.288C48.1005 59.288 46.3885 58.456 45.0765 56.792C43.7805 55.112 43.1325 53.048 43.1325 50.6C43.1325 48.184 43.7885 46.136 45.1005 44.456C46.4285 42.76 48.1485 41.912 50.2605 41.912C52.3725 41.912 54.0765 42.752 55.3725 44.432C56.6685 46.096 57.3165 48.152 57.3165 50.6C57.3165 53.016 56.6605 55.072 55.3485 56.768ZM46.5405 55.52C47.5005 56.88 48.7405 57.56 50.2605 57.56C51.7805 57.56 53.0045 56.888 53.9325 55.544C54.8765 54.184 55.3485 52.536 55.3485 50.6C55.3485 48.696 54.8685 47.064 53.9085 45.704C52.9645 44.328 51.7325 43.64 50.2125 43.64C48.6925 43.64 47.4605 44.32 46.5165 45.68C45.5725 47.024 45.1005 48.664 45.1005 50.6C45.1005 52.504 45.5805 54.144 46.5405 55.52ZM72.5048 56.768C71.1928 58.448 69.4808 59.288 67.3688 59.288C65.2568 59.288 63.5448 58.456 62.2328 56.792C60.9368 55.112 60.2888 53.048 60.2888 50.6C60.2888 48.184 60.9448 46.136 62.2568 44.456C63.5848 42.76 65.3048 41.912 67.4168 41.912C69.5288 41.912 71.2328 42.752 72.5288 44.432C73.8248 46.096 74.4728 48.152 74.4728 50.6C74.4728 53.016 73.8168 55.072 72.5048 56.768ZM63.6968 55.52C64.6568 56.88 65.8968 57.56 67.4168 57.56C68.9368 57.56 70.1608 56.888 71.0888 55.544C72.0328 54.184 72.5048 52.536 72.5048 50.6C72.5048 48.696 72.0248 47.064 71.0648 45.704C70.1208 44.328 68.8888 43.64 67.3688 43.64C65.8488 43.64 64.6168 44.32 63.6728 45.68C62.7288 47.024 62.2568 48.664 62.2568 50.6C62.2568 52.504 62.7368 54.144 63.6968 55.52Z" fill="#11A759"/>
<path d="M95.2142 46.8887C96.0327 46.434 95.8333 45.2044 94.913 45.0317L84.9545 43.1626C84.2735 43.0347 83.672 43.6215 83.7829 44.3055L84.884 51.0951C84.9949 51.7791 85.751 52.1457 86.3567 51.8092L95.2142 46.8887Z" fill="#D1DDE4"/>
<path d="M89.3554 89C96.348 82.0365 101.11 73.1644 103.039 63.5058C104.969 53.8471 103.978 43.8356 100.194 34.7373C96.4096 25.6391 90.001 17.8626 81.7785 12.3914C73.5561 6.92024 63.8891 4 54 4C44.111 4 34.444 6.92024 26.2215 12.3914C17.9991 17.8626 11.5904 25.6391 7.80605 34.7373C4.02166 43.8356 3.0315 53.8471 4.96076 63.5058C6.89002 73.1644 11.6521 82.0365 18.6447 89" stroke="#D1DDE4" stroke-width="8" stroke-linecap="round" stroke-linejoin="round"/>
<path d="M18.7553 89C11.7098 82.0365 6.91185 73.1644 4.96802 63.5058C3.02418 53.8471 4.02182 43.8356 7.83479 34.7373C11.6478 25.6391 18.1048 17.8626 26.3893 12.3914C34.6739 6.92024 44.4139 4 54.3777 4C64.3414 4 73.7154 6.92997 82 12.4012C90.2846 17.8724 96.6869 25.5413 100.5 34.6395C103 41.5581 103 42.5465 103 42.5465" stroke="url(#paint0_linear)" stroke-width="8" stroke-linecap="round" stroke-linejoin="round"/>
<defs>
<linearGradient id="paint0_linear" x1="104.755" y1="60.7627" x2="11.6748" y2="83.1613" gradientUnits="userSpaceOnUse">
<stop stop-color="#12A759"/>
<stop offset="1" stop-color="#8FF472"/>
</linearGradient>
</defs>
</svg>
