<svg width="273" height="244" viewBox="0 0 273 244" fill="none" xmlns="http://www.w3.org/2000/svg">
<circle opacity="0.8" cx="104.5" cy="115.5" r="104.5" fill="#FFF626"/>
<path fill-rule="evenodd" clip-rule="evenodd" d="M267.782 108.234C262.639 135.377 232.231 136.994 219.649 134.531C218.451 139.79 207.632 189.621 206.434 193.815C201.94 197.11 147.116 218.785 142.722 220.079C135.133 217.582 53.2129 177.804 42.694 170.547C40.8543 161.6 37.4741 126.495 37.1056 114.345C37.0243 111.608 36.7803 112.105 39.8181 110.411C42.182 109.213 44.613 108.152 47.099 107.234C47.8774 106.929 48.4728 108.016 47.7001 108.414C45.8701 109.357 44.0889 110.375 42.3321 111.46C39.7611 113.053 39.4431 113.769 42.2174 114.911C67.0241 125.125 144.035 155.997 145.88 155.698C147.878 155.365 213.401 134.801 217.681 132.915C219.845 130.5 239.916 77.455 243.686 51.5145C254.767 57.1054 273.807 76.4359 267.782 108.234ZM122.384 125.599C122.357 125.466 122.292 125.344 122.198 125.247C122.103 125.15 121.982 125.083 121.849 125.054C121.717 125.024 121.579 125.034 121.452 125.081C121.325 125.128 121.214 125.211 121.134 125.32C120.61 126.133 119.705 130.2 119.392 131.412C118.88 133.402 119.197 135.018 119.474 137.112C119.593 138.315 119.822 139.505 120.158 140.666C120.22 140.818 120.331 140.945 120.472 141.027C120.613 141.109 120.778 141.143 120.94 141.122C121.103 141.102 121.254 141.028 121.37 140.913C121.487 140.798 121.562 140.648 121.584 140.486C121.463 139.308 121.277 138.137 121.025 136.98C120.689 135.286 120.689 133.543 121.025 131.85C121.342 130.589 122.461 126.62 122.384 125.599V125.599ZM121.173 122.421C119.619 121.007 116.576 119.183 114.692 117.747C114.556 117.629 114.38 117.569 114.2 117.579C114.021 117.589 113.853 117.669 113.731 117.801C113.609 117.933 113.544 118.108 113.548 118.287C113.553 118.467 113.627 118.638 113.756 118.763C115.144 120.112 118.629 122.956 120.344 123.599C120.5 123.679 120.679 123.7 120.85 123.658C121.02 123.615 121.169 123.513 121.27 123.37C121.371 123.227 121.417 123.052 121.399 122.877C121.381 122.703 121.301 122.541 121.173 122.421V122.421ZM111.395 116.108C109.308 118.704 107.171 121.275 105.205 123.964C105.095 124.113 105.046 124.299 105.07 124.482C105.094 124.666 105.189 124.833 105.334 124.949C105.479 125.064 105.663 125.119 105.847 125.102C106.032 125.084 106.202 124.995 106.323 124.854C108.69 122.245 110.889 119.476 113.14 116.767C113.474 116.366 123.495 113.911 124.323 113.693C127.227 115.329 130.033 117.133 132.725 119.098C130.013 120.575 126.564 121.555 123.715 122.818C123.563 122.905 123.447 123.044 123.388 123.209C123.329 123.374 123.331 123.554 123.393 123.718C123.455 123.882 123.574 124.018 123.727 124.103C123.881 124.187 124.059 124.214 124.231 124.179C124.664 124.046 133.9 120.912 134.04 120.771C135.35 122.901 136.492 125.129 137.456 127.435C132.67 129.536 127.778 131.385 122.8 132.976C121.909 133.273 122.45 134.53 123.317 134.308C127.983 133.123 132.563 131.62 137.024 129.81C135.434 133.338 133.303 136.43 131.684 139.869C131.624 140.023 131.62 140.193 131.673 140.348C131.726 140.504 131.834 140.636 131.975 140.72C132.117 140.805 132.284 140.836 132.446 140.808C132.609 140.78 132.756 140.695 132.862 140.569C134.851 138.068 136.454 134.78 138.047 131.96C139.179 129.955 140.227 128.507 139.304 126.312C138.545 124.48 137.616 122.722 136.53 121.063C135.753 119.753 134.715 118.618 133.479 117.728C131.015 115.866 128.411 114.194 125.692 112.728C125.276 112.492 124.815 112.346 124.339 112.298C123.863 112.25 123.382 112.302 122.927 112.45C119.563 113.148 116.242 114.033 112.977 115.101C112.046 115.424 112.019 115.333 111.395 116.108V116.108ZM116.232 131.443C113.134 129.604 109.596 127.817 106.39 126.022C105.637 125.601 104.921 126.37 105.361 127.342C106.028 128.817 109.265 136.178 110.672 137.336C111.265 137.824 112.264 137.173 111.873 136.553C110.291 133.942 108.853 131.246 107.567 128.476C110.089 130.114 112.739 131.545 115.491 132.755C116.26 133.048 117.003 131.9 116.232 131.443V131.443ZM165.958 125.756C165.844 127.22 167.52 127.751 167.624 125.97C167.9 121.223 165.616 115.578 165.933 111.234C166.237 106.74 167.455 102.354 169.511 98.3463C170.054 100.916 172.025 102.872 173.951 104.517C179.74 109.44 187.219 111.913 194.801 111.411C195.658 111.357 195.615 109.859 194.739 109.891C186.885 110.172 178.419 107.173 173.135 101.188C169.572 97.1539 170.753 93.5541 176.367 93.2938C184.553 92.914 192.32 96.9205 197.355 103.275C197.967 104.048 199.07 103.112 198.526 102.322C193.591 95.1458 184.704 91.0612 176.059 91.498C170.897 91.7591 169.077 94.4504 167.161 99.0327C165.801 102.377 164.848 105.872 164.322 109.443C163.672 114.477 166.362 120.519 165.958 125.756V125.756ZM196.918 111.259C194.504 116.811 190.775 120.13 184.929 123.009C181.885 124.509 178.694 125.306 175.743 127.126C173.268 128.664 171.454 131.069 170.654 133.871C170.601 134.046 170.618 134.234 170.7 134.397C170.783 134.56 170.925 134.685 171.097 134.746C171.269 134.807 171.457 134.8 171.624 134.726C171.791 134.651 171.923 134.516 171.992 134.347C173.101 131.384 176.015 128.787 178.828 127.327C181.939 125.714 183.759 125.524 186.9 124.057C192.158 121.6 196.242 117.178 198.273 111.741C198.328 111.564 198.312 111.372 198.229 111.206C198.146 111.04 198.002 110.913 197.827 110.851C197.652 110.788 197.46 110.796 197.291 110.872C197.121 110.948 196.988 111.087 196.918 111.259V111.259ZM62.5825 90.5643C64.6771 93.0727 66.5771 95.7373 68.266 98.535C69.9829 101.273 71.4451 104.163 72.6345 107.168C73.0184 108.251 74.0358 107.524 73.8748 106.704C73.325 103.897 70.7475 99.1555 69.7943 97.6021C68.0442 94.7059 65.9638 92.0227 63.5951 89.6062C63.0363 89.0442 62.0815 89.9494 62.5825 90.5643ZM70.7849 91.4045C77.2298 93.8534 78.7247 90.1633 78.2212 84.4562C78.0808 81.7257 77.4614 79.0412 76.3912 76.5253C76.0236 75.7559 74.9199 76.3326 75.085 77.0865C75.6966 79.352 76.1802 81.65 76.5336 83.9698C77.0078 88.4935 77.0932 92.1576 70.9663 89.7526C68.9672 88.9549 67.1314 87.7971 65.5503 86.3366C65.415 86.2143 65.2378 86.149 65.0556 86.154C64.8733 86.1591 64.7 86.2343 64.5718 86.3639C64.4436 86.4935 64.3702 86.6676 64.3671 86.8499C64.3639 87.0322 64.4311 87.2087 64.5548 87.3427C66.3105 89.1347 68.4369 90.5211 70.7849 91.4045V91.4045ZM78.5612 75.4794C79.097 78.3443 80.1673 81.0827 81.7161 83.5517C85.329 89.3955 89.2858 91.6037 94.3041 85.4761C96.0539 83.3551 97.1484 80.7707 97.4541 78.0381C97.5542 77.1044 96.2341 77.0337 96.0414 77.9015C95.57 80.1326 94.6186 82.2344 93.2533 84.0609C88.6653 90.0982 85.5266 86.8343 82.7027 81.9918C81.4943 79.8785 80.5884 77.6061 80.0114 75.2411C79.7861 74.3391 78.392 74.5335 78.5612 75.4794ZM99.7355 78.2935C97.6916 84.8864 96.7262 94.1299 98.0137 100.924C98.0383 101.105 98.1329 101.268 98.2771 101.38C98.4213 101.492 98.6037 101.543 98.7849 101.521C98.9662 101.5 99.1318 101.408 99.2461 101.266C99.3605 101.124 99.4144 100.943 99.3964 100.761C99.0711 92.3975 99.18 86.9214 101.081 78.6758C101.256 77.9113 99.9722 77.5322 99.7355 78.2935V78.2935ZM102.024 69.7023C101.081 68.5872 99.2736 67.9374 97.9763 68.858C97.8536 68.954 97.7653 69.0871 97.7245 69.2375C97.6837 69.3878 97.6927 69.5473 97.7501 69.6921C97.8075 69.8369 97.9102 69.9593 98.0429 70.0408C98.1756 70.1224 98.3311 70.1589 98.4863 70.1447C98.9296 69.9798 99.4164 69.9736 99.8639 70.1272C100.311 70.2809 100.692 70.5848 100.94 70.9874C102.241 73.0028 100.704 76.2382 97.9698 74.1805C97.5963 73.9422 97.3236 73.5748 97.2036 73.1484C97.0836 72.722 97.1247 72.2663 97.3191 71.8682C97.3807 71.7164 97.3861 71.5476 97.3345 71.3922C97.2829 71.2367 97.1775 71.1048 97.0374 71.0199C96.8973 70.9351 96.7315 70.903 96.5698 70.9294C96.4081 70.9558 96.2612 71.0389 96.1552 71.1638C95.7603 71.7327 95.5755 72.4212 95.6325 73.1113C95.6894 73.8015 95.9847 74.4503 96.4676 74.9467C100.384 79.2289 105.325 73.6014 102.024 69.7023ZM78.4286 73.1744C78.8302 72.6538 79.0897 72.0379 79.1817 71.3869C79.2736 70.7359 79.1949 70.0722 78.9532 69.4607C78.7298 68.8411 78.3432 68.2932 77.8343 67.8749C77.3254 67.4566 76.7131 67.1834 76.0618 67.0842C74.7093 66.8882 72.8679 67.6202 72.4376 69.0028C72.3816 69.1633 72.3827 69.3382 72.4408 69.4979C72.4989 69.6576 72.6104 69.7923 72.7564 69.8792C72.9025 69.9661 73.0741 69.9999 73.2422 69.9748C73.4103 69.9496 73.5645 69.8672 73.6788 69.7413C73.9903 69.3277 74.4249 69.0235 74.9202 68.8726C75.4155 68.7216 75.9459 68.7316 76.4352 68.9012C78.2326 69.5966 77.8935 71.7543 76.6792 72.7035C75.1981 73.8625 73.4641 73.1354 73.4096 72.026C73.3591 71.0028 72.218 70.6889 72.0635 71.5461C71.6056 74.0927 75.8008 76.3732 78.4286 73.1744ZM57.0282 84.4293C57.7708 83.6022 58.6337 82.8441 59.822 83.2093C60.1766 83.3093 60.4988 83.5005 60.7564 83.7638C61.014 84.0272 61.1981 84.3535 61.2902 84.7102C61.3823 85.0669 61.3792 85.4416 61.2813 85.7967C61.1834 86.1519 60.994 86.4752 60.7321 86.7343C60.421 87.0161 60.0146 87.1693 59.5949 87.163C59.1752 87.1566 58.7735 86.9912 58.4711 86.7001C57.1592 85.3427 56.3719 86.7554 57.4642 87.8103C57.8472 88.1813 58.3173 88.4502 58.8312 88.5923C59.3452 88.7344 59.8866 88.7453 60.4058 88.6239C60.925 88.5025 61.4055 88.2527 61.8031 87.8974C62.2007 87.5421 62.5028 87.0927 62.6817 86.5903C62.8622 86.103 62.9419 85.5842 62.916 85.0652C62.8901 84.5462 62.7591 84.0378 62.531 83.5709C62.3029 83.1041 61.9823 82.6883 61.5888 82.3489C61.1953 82.0095 60.737 81.7535 60.2417 81.5965C58.4898 81.0198 56.0181 82.0031 55.687 83.9478C55.6757 84.1088 55.7172 84.2691 55.8053 84.4042C55.8935 84.5394 56.0234 84.6421 56.1752 84.6966C56.3271 84.7511 56.4926 84.7545 56.6466 84.7063C56.8006 84.658 56.9346 84.5608 57.0282 84.4293V84.4293ZM98.9466 119.324C100.869 119.375 102.743 119.935 104.379 120.946C105.18 121.394 105.696 120.154 105.095 119.616C103.37 118.07 100.535 117.508 98.2886 117.525C94.3789 117.554 87.3745 120.395 88.6165 125.221C89.1858 127.423 91.4265 128.42 93.3858 129.085C93.5716 129.147 93.7738 129.134 93.9501 129.049C94.1265 128.965 94.2634 128.815 94.3323 128.632C94.4012 128.449 94.3967 128.247 94.3197 128.067C94.2428 127.887 94.0994 127.744 93.9194 127.668C92.5188 127.158 90.5091 126.397 90.2147 124.715C89.5713 121.036 96.0536 119.178 98.9466 119.324ZM113.701 111.822C114.078 111.653 114.412 111.402 114.68 111.088C114.948 110.774 115.143 110.405 115.251 110.007C115.359 109.608 115.377 109.191 115.305 108.785C115.232 108.378 115.071 107.993 114.832 107.656C112.874 104.598 105.999 103.729 102.898 105.189C101.982 105.602 101.189 106.246 100.598 107.058C100.006 107.87 99.635 108.822 99.5216 109.82C99.4264 110.867 99.7137 111.912 100.33 112.763C100.947 113.614 101.851 114.213 102.875 114.449C103.066 114.488 103.265 114.452 103.429 114.347C103.593 114.242 103.71 114.078 103.755 113.888C103.8 113.698 103.769 113.499 103.669 113.332C103.569 113.164 103.407 113.043 103.219 112.993C102.839 112.876 102.487 112.683 102.185 112.425C101.883 112.167 101.637 111.849 101.462 111.493C101.287 111.136 101.187 110.747 101.169 110.35C101.15 109.953 101.213 109.556 101.354 109.185C101.715 108.321 102.317 107.58 103.088 107.05C103.859 106.52 104.767 106.223 105.702 106.195C109.095 105.933 112.624 106.885 113.462 108.815C113.603 109.099 113.647 109.42 113.587 109.731C113.526 110.041 113.365 110.323 113.128 110.532C112.489 110.959 112.918 112.119 113.7 111.822H113.701ZM107.804 101.943C107.969 101.923 108.122 101.845 108.234 101.722C108.347 101.6 108.413 101.442 108.42 101.276C108.427 101.109 108.374 100.946 108.272 100.815C108.169 100.684 108.024 100.594 107.861 100.56C105.558 100.214 105.669 97.5248 107.029 96.1909C109.717 93.5549 116.052 94.5643 118.994 96.365C120.296 97.1604 121.915 99.345 120.138 100.384C119.45 100.791 119.615 101.925 120.458 101.794C122.467 101.483 123.23 99.1376 122.423 97.4288C120.529 93.4166 113.121 92.3048 109.247 93.2239C102.607 94.8058 103.444 102.031 107.804 101.943ZM127.961 105.156C127.534 104.467 127.368 103.646 127.494 102.845C127.619 102.043 128.028 101.313 128.646 100.787C129.336 100.24 130.14 99.8535 130.998 99.6557C131.856 99.4579 132.748 99.4538 133.608 99.6435C136.934 100.201 141.408 102.369 141.623 106.207C141.624 106.389 141.695 106.564 141.821 106.694C141.948 106.825 142.12 106.902 142.301 106.909C142.483 106.916 142.661 106.853 142.797 106.733C142.933 106.612 143.017 106.444 143.033 106.262C143.373 103.843 141.766 101.719 139.865 100.422C137.789 98.9889 135.378 98.1175 132.865 97.8924C131.763 97.7849 130.652 97.941 129.623 98.3477C128.593 98.7544 127.675 99.4002 126.945 100.232C126.265 101.062 125.891 102.1 125.885 103.173C125.879 104.246 126.243 105.289 126.914 106.126C127.518 106.846 128.488 105.883 127.961 105.159V105.156ZM139.706 116.66C139.825 118.023 140.414 119.301 141.372 120.278C142.33 121.254 143.598 121.866 144.958 122.011C145.159 122.026 145.358 121.963 145.514 121.834C145.669 121.706 145.769 121.523 145.793 121.322C145.816 121.122 145.762 120.92 145.64 120.759C145.519 120.598 145.34 120.491 145.141 120.458C144.537 120.369 143.959 120.153 143.446 119.825C142.932 119.496 142.493 119.062 142.16 118.551C141.826 118.04 141.605 117.464 141.51 116.862C141.416 116.259 141.45 115.643 141.612 115.055C142.891 110.621 152.219 109.984 155.631 112.233C156.72 112.891 157.525 113.931 157.888 115.151C158.251 116.37 158.146 117.681 157.594 118.828C157.218 119.53 158.344 120.108 158.798 119.49C159.518 118.469 159.888 117.242 159.851 115.993C159.814 114.744 159.373 113.54 158.594 112.563C154.207 106.645 139.207 108.557 139.706 116.664V116.66ZM147.27 150.321C146.47 150.696 146.848 151.947 147.725 151.65C150.546 150.702 153.709 149.182 154.617 146.089C156.681 139.056 146.833 136.824 141.372 138.261C138.601 138.993 135.319 140.636 133.99 143.324C132.324 146.694 135.282 149.15 138.089 150.365C138.984 150.753 139.655 149.409 138.759 148.997C135.774 147.622 133.591 145.476 136.671 142.596C140.625 138.898 151.374 137.631 152.976 143.721C153.922 147.32 149.838 149.116 147.27 150.323V150.321ZM159.137 141.248C158.308 141.45 158.584 142.813 159.431 142.717C161.959 142.5 164.297 141.289 165.933 139.35C171.626 132.111 162.767 125.974 154.588 127.029C151.861 127.381 149.138 128.697 148.464 131.584C148.245 132.526 149.684 132.81 149.928 131.884C150.66 129.107 154.129 128.642 156.527 128.574C161.244 128.439 167.82 131.51 165.375 136.972C164.248 139.494 161.667 140.633 159.137 141.25V141.248ZM190.03 136.058C187.655 136.626 185.183 136.662 182.792 136.162C180.822 135.756 178.273 134.998 177.28 133.059C176.867 132.25 175.572 132.709 175.936 133.586C176.749 135.558 178.603 136.658 180.556 137.312C182.899 138.093 185.376 138.391 187.837 138.187C192.116 137.832 197.671 135.316 194.447 130.245C193.192 128.272 190.253 127.329 187.984 127.637C187.807 127.661 187.646 127.748 187.527 127.88C187.408 128.013 187.34 128.183 187.335 128.361C187.329 128.539 187.387 128.713 187.498 128.853C187.609 128.992 187.765 129.088 187.94 129.123C189.892 129.464 192.19 129.825 193.027 131.908C194.025 134.406 192.173 135.539 190.03 136.061V136.058ZM84.8678 104.734C86.9326 103.913 89.1613 103.589 91.3745 103.787C94.0398 104.102 94.5196 105.108 96.0341 106.933C96.1355 107.033 96.2641 107.102 96.4041 107.13C96.544 107.158 96.6892 107.145 96.8217 107.092C96.9542 107.039 97.0683 106.948 97.1499 106.831C97.2315 106.714 97.277 106.575 97.2809 106.432C97.1508 104.48 95.1012 103.078 93.4298 102.463C90.2358 101.286 83.4908 102.308 81.3436 105.176C80.7637 105.966 80.4044 106.895 80.3025 107.87C80.2006 108.844 80.3598 109.828 80.7637 110.721C81.2375 111.69 81.9931 112.493 82.9313 113.025C83.8695 113.557 84.9465 113.792 86.0211 113.701C86.9532 113.62 87.0142 112.188 86.0471 112.219C85.1356 112.259 84.2391 111.977 83.5142 111.423C82.7893 110.869 82.2818 110.078 82.0805 109.188C81.6901 107.112 83.0053 105.46 84.8678 104.734ZM75.6405 123.943C75.4611 123.918 75.2786 123.963 75.1319 124.069C74.9853 124.176 74.8861 124.336 74.8556 124.515C74.825 124.693 74.8655 124.877 74.9684 125.026C75.0713 125.176 75.2284 125.279 75.4063 125.314C81.8414 126.803 86.601 122.721 82.697 117.458C79.7885 113.537 72.0773 111.358 68.0481 114.812C65.9432 116.615 65.0274 119.941 66.894 122.257C67.0086 122.412 67.1799 122.517 67.3709 122.548C67.562 122.579 67.7575 122.533 67.9154 122.422C68.0733 122.31 68.1811 122.141 68.2155 121.95C68.2499 121.76 68.2082 121.563 68.0993 121.403C66.8208 119.149 68.0993 116.484 70.3018 115.438C73.6105 113.871 79.155 115.654 81.3729 118.548C84.9174 123.171 79.5161 124.512 75.6405 123.943ZM61.3877 115.114C62.2669 114.927 62.1408 113.43 61.2437 113.692C58.7818 114.413 53.8424 114.703 53.5911 111.199C53.3471 107.714 59.2031 105.53 61.957 105.488C63.8814 105.46 67.1689 106.231 66.6003 108.841C66.5774 109.008 66.6146 109.178 66.7053 109.32C66.7961 109.462 66.9344 109.567 67.0957 109.617C67.2569 109.666 67.4305 109.657 67.5855 109.59C67.7404 109.524 67.8666 109.404 67.9415 109.253C68.8134 107.009 67.0745 105.012 65.0135 104.345C58.1815 102.138 48.1043 108.993 53.3389 114.332C55.1258 116.157 58.7728 115.673 61.3877 115.114ZM42.6859 91.9266C42.8855 91.8875 43.0614 91.7706 43.1749 91.6018C43.2884 91.4329 43.3302 91.2259 43.291 91.0263C43.2519 90.8266 43.135 90.6507 42.9662 90.5372C42.7973 90.4238 42.5903 90.382 42.3907 90.4211C39.6058 90.6586 36.311 90.7644 33.6132 91.2556C33.4525 91.295 33.3109 91.3897 33.2132 91.5231C33.1154 91.6565 33.0678 91.8201 33.0787 91.9852C33.0895 92.1502 33.1582 92.3061 33.2726 92.4256C33.387 92.545 33.5398 92.6203 33.7043 92.6383C36.5094 92.657 39.8376 92.1828 42.6859 91.9266ZM41.0844 71.6689C43.8294 73.0947 46.6501 74.4025 49.4723 75.6673C50.3198 76.0471 50.855 74.7588 50.0335 74.348C47.2682 72.9589 44.4769 71.5957 41.6391 70.3676C40.7933 70.0024 40.2857 71.2541 41.0844 71.6689ZM67.9863 61.142C68.0947 61.2593 68.2413 61.3342 68.3999 61.3535C68.5586 61.3728 68.7188 61.3351 68.8523 61.2472C68.9857 61.1593 69.0836 61.0269 69.1284 60.8736C69.1733 60.7202 69.1623 60.5559 69.0973 60.41C68.1582 58.4783 67.0988 56.6075 65.9253 54.8085C65.8416 54.6494 65.6994 54.5289 65.5287 54.4725C65.358 54.4161 65.172 54.4282 65.01 54.5062C64.848 54.5843 64.7227 54.7222 64.6603 54.8908C64.598 55.0595 64.6036 55.2458 64.676 55.4104C65.6571 57.389 66.7627 59.3034 67.9863 61.142V61.142ZM91.5811 61.0606C91.4997 58.3725 91.4786 55.6731 91.2883 52.9899C91.2792 52.8987 91.2522 52.8102 91.2089 52.7294C91.1656 52.6486 91.1069 52.5771 91.0359 52.519C90.965 52.4609 90.8834 52.4174 90.7956 52.3909C90.7079 52.3644 90.6158 52.3554 90.5245 52.3645C90.4333 52.3735 90.3448 52.4005 90.264 52.4438C90.1832 52.4871 90.1117 52.5459 90.0536 52.6168C89.9956 52.6877 89.952 52.7694 89.9255 52.8571C89.899 52.9449 89.89 53.037 89.8991 53.1282C89.8788 55.8195 90.0317 58.5165 90.1203 61.2062C90.1512 62.148 91.6095 61.9992 91.5811 61.0582V61.0606ZM105.513 62.0895C106.441 59.4925 107.539 56.7264 108.295 54.0969C108.344 53.9225 108.322 53.7356 108.234 53.5774C108.145 53.4193 107.998 53.3027 107.823 53.2534C107.649 53.2041 107.462 53.2262 107.304 53.3146C107.146 53.4031 107.029 53.5508 106.98 53.7252C105.932 56.2554 105.065 59.1005 104.17 61.7105C103.878 62.562 105.209 62.9288 105.513 62.0895ZM77.6251 205.471C76.6678 205.248 76.2058 206.347 77.1696 206.745C78.9288 207.472 82.4709 208.842 81.2037 211.442C79.8691 214.18 73.8764 214.582 71.1233 214.289C68.2254 213.976 63.5593 212.146 66.4653 208.504C68.2978 206.207 71.7618 206.32 74.4035 206.358C75.3136 206.371 75.4608 204.998 74.5336 204.93C71.4112 204.703 67.8643 204.655 65.5186 207.096C61.4593 211.316 65.6292 215.474 70.3661 216.088C74.0204 216.563 80.7166 215.844 82.6279 212.328C84.5197 208.843 80.6344 206.172 77.6251 205.471ZM66.7264 193.804C63.6675 191.98 59.6504 192.436 56.4874 193.784C55.4552 194.224 56.0978 195.631 57.125 195.357C59.6032 194.694 62.0863 193.879 64.6402 194.715C69.4901 196.298 69.6829 201.57 62.9379 202.694C60.5918 203.117 58.1839 203.057 55.8619 202.516C52.7509 201.548 52.9518 198.93 54.7037 196.823C55.2909 196.118 54.2743 195.44 53.67 196.107C51.8562 198.119 50.9795 201.353 53.3397 203.329C55.4284 205.078 59.5341 205.014 62.101 204.749C70.005 203.935 72.8996 197.487 66.7248 193.804H66.7264ZM42.1637 206.305C41.9976 206.362 41.8573 206.477 41.7681 206.629C41.679 206.78 41.6467 206.959 41.6772 207.132C41.7076 207.305 41.7988 207.462 41.9343 207.574C42.0699 207.686 42.2409 207.746 42.4167 207.743C44.7209 207.792 47.8709 206.922 49.3983 209.288C50.7737 211.417 49.1885 213.967 47.4463 215.28C44.411 217.57 36.1784 218.706 35.1105 214.39C34.4053 211.544 37.4968 209.603 39.5472 208.411C40.3923 207.923 39.5928 206.662 38.7469 207.13C36.1882 208.547 33.4391 210.483 33.4139 213.731C33.3659 220.033 43.8246 219.892 48.1352 216.844C50.4776 215.186 52.3572 212.289 51.3072 209.337C50.0197 205.731 45.3121 205.273 42.158 206.305H42.1637Z" fill="#FE573F"/>
<path fill-rule="evenodd" clip-rule="evenodd" d="M83.8432 143.1C84.1905 139.303 88.6915 138.856 89.8415 142.856C90.3344 144.571 89.6724 146.949 87.9912 147.782C88.0811 148.954 87.9928 150.133 87.7293 151.279C87.6032 151.472 87.426 151.626 87.2175 151.725C87.0091 151.823 86.7774 151.862 86.5482 151.836C86.3191 151.811 86.1014 151.723 85.9194 151.581C85.7374 151.44 85.5981 151.251 85.517 151.035C85.3561 149.919 85.3695 148.785 85.5569 147.673C84.206 146.916 83.6358 145.362 83.8432 143.1ZM145.827 161.187C144.5 179.387 143.719 197.664 142.911 215.894C142.871 216.807 144.3 217.018 144.365 216.05C145.591 197.874 146.659 179.547 147.271 161.342C147.302 160.419 145.895 160.246 145.827 161.187ZM45.8857 125.067C55.4302 130.101 63.6766 132.952 74.0799 137.247C74.9575 137.609 75.5675 136.249 74.6834 135.883C63.8791 131.409 55.5124 128.521 45.4848 123.297C45.3731 123.234 45.2471 123.2 45.1186 123.198C44.99 123.197 44.8634 123.229 44.7507 123.291C44.638 123.353 44.543 123.442 44.4747 123.551C44.4064 123.66 44.3672 123.785 44.3607 123.913C44.1484 130.929 44.3608 137.951 44.9968 144.942C45.4116 151.217 46.1755 157.464 47.2847 163.655C47.4303 164.52 48.7194 164.196 48.6007 163.345C47.5433 155.785 47.0317 152.147 46.4746 144.532C45.9484 137.365 46.0435 132.06 45.8857 125.067ZM137.801 161.355C123.933 156.605 110.266 151.341 96.6662 145.876C96.5051 145.805 96.3284 145.776 96.1529 145.792C95.9775 145.809 95.8093 145.87 95.6644 145.971C95.5196 146.071 95.403 146.207 95.3259 146.366C95.2488 146.524 95.2138 146.7 95.2242 146.876C95.1136 150.811 94.6093 157.286 94.3555 159.58C88.8888 157.625 83.5513 155.326 78.3752 152.697C78.1881 147.702 78.1678 143.906 78.254 138.903C78.2719 137.82 76.9526 137.568 76.8567 138.759C76.4061 144.371 76.6297 148.047 76.6216 151.717C76.6216 152.786 76.5972 153.669 77.5407 154.198C82.9907 157.147 88.71 159.569 94.6207 161.429C95.0729 161.571 95.726 161.511 95.8163 160.932C96.336 157.654 96.2856 151.973 96.6654 147.362C109.872 152.952 123.343 157.947 136.899 162.613C136.563 170.502 135.927 178.409 135.474 186.095C135.027 193.678 134.559 199.204 134.144 206.613C117.189 199.319 99.8781 191.35 83.0787 183.054C72.0003 177.583 61.2057 171.819 50.2712 166.09C49.5043 165.683 48.7625 166.807 49.5392 167.243C60.3981 173.355 69.6204 178.006 80.7761 183.554C98.4881 192.362 116.368 200.572 134.537 208.372C134.636 208.425 134.746 208.454 134.859 208.454C134.971 208.454 135.081 208.426 135.18 208.372C135.279 208.319 135.362 208.241 135.423 208.147C135.484 208.053 135.521 207.945 135.53 207.833C136.041 199.838 136.489 194.082 136.961 186.084C137.396 178.719 137.946 171.136 138.276 163.765C138.306 163.017 138.605 161.631 137.801 161.355ZM208.847 142.962C192.092 149.794 173.083 156.102 155.799 161.401C155.212 161.581 155.29 162.405 155.242 162.899C153.739 178.089 152.402 191.422 151.019 206.686C150.971 207.211 151.356 207.662 151.903 207.472C160.236 204.642 168.414 201.242 176.637 198.11C184.861 194.978 192.107 192.335 200.266 189.015C200.436 188.947 200.573 188.815 200.648 188.648C200.722 188.48 200.729 188.29 200.667 188.118C200.604 187.946 200.478 187.804 200.313 187.724C200.149 187.643 199.959 187.629 199.785 187.685C191.484 190.631 184.376 193.616 176.143 196.747C168.305 199.727 160.339 202.497 152.592 205.714C154.022 190.661 155.388 177.698 156.697 162.569C173.614 157.992 191.941 151.286 208.239 144.774C205.99 159.266 204.531 170.623 200.903 185.012C200.688 185.863 201.925 186.022 202.155 185.166C206.14 170.339 207.518 158.814 209.875 143.643C209.967 143.037 209.3 142.777 208.847 142.962ZM248.289 65.3155C247.591 64.6119 246.647 65.8409 247.342 66.5355C257.834 77.0161 263.465 92.1668 258.665 106.604C254.407 119.413 242.202 128.494 228.49 126.35C235.587 108.243 241.647 89.7469 246.639 70.951C246.686 70.7726 246.661 70.5832 246.57 70.4228C246.479 70.2624 246.329 70.1436 246.153 70.0915C245.976 70.0394 245.786 70.0581 245.622 70.1437C245.459 70.2293 245.335 70.375 245.278 70.5501C239.981 89.4056 234.207 108.069 227.025 126.293C226.84 126.762 226.704 127.439 227.37 127.572C238.383 129.768 249.915 124.37 256.094 115.165C267.031 98.8768 261.269 78.3857 248.289 65.3155V65.3155ZM241.518 50.734C238.753 68.5094 217.841 129.709 215.371 130.579C212.902 131.449 196.614 125.431 192.67 123.503C199.86 116.915 209.613 101.624 192.719 92.4661C176.183 83.5056 163.358 88.1221 161.859 107.696C157.319 101.909 150.37 103.418 147.174 104.55C146.784 96.0098 132.503 92.2376 126.373 96.1115C120.424 87.9725 108.537 88.3222 103.444 92.1172C105.707 82.7972 123.466 24.9603 124.964 24.0616C126.461 23.1628 238.271 49.1773 241.518 50.734V50.734ZM117.457 82.1108C116.731 80.0443 115.899 78.0162 114.966 76.0344C114.877 75.8926 114.741 75.7867 114.581 75.7353C114.422 75.6839 114.249 75.6903 114.094 75.7534C113.939 75.8165 113.811 75.9321 113.732 76.0802C113.654 76.2282 113.63 76.3992 113.665 76.563C114.394 78.6286 115.228 80.6554 116.165 82.6354C116.478 83.3544 117.742 82.8542 117.457 82.1108ZM127.019 74.7095C127.164 73.9457 125.915 73.6676 125.684 74.4053C124.947 76.7639 124.366 79.5463 123.819 81.9774C123.649 82.7305 124.947 83.029 125.153 82.2808C125.832 79.8229 126.546 77.2105 127.019 74.7095ZM134.859 81.5772C133.798 83.0747 132.436 84.3347 130.861 85.2771C130.109 85.7448 130.709 86.9469 131.48 86.506C133.329 85.5438 134.889 84.1079 136.001 82.345C136.052 82.27 136.087 82.1858 136.105 82.0972C136.123 82.0086 136.123 81.9174 136.105 81.8287C136.088 81.74 136.053 81.6557 136.003 81.5804C135.953 81.5052 135.889 81.4405 135.814 81.3902C135.739 81.3398 135.654 81.3047 135.566 81.2869C135.477 81.2691 135.386 81.2689 135.297 81.2864C135.209 81.3038 135.124 81.3385 135.049 81.3886C134.974 81.4386 134.909 81.503 134.859 81.5781V81.5772ZM153.178 53.7808C151.478 48.1828 148.57 43.0261 144.66 38.6746C140.749 34.323 135.932 30.8825 130.546 28.5959C130.372 28.5288 130.179 28.532 130.007 28.6047C129.835 28.6775 129.698 28.8142 129.625 28.986C129.552 29.1578 129.549 29.3512 129.616 29.5254C129.682 29.6997 129.814 29.8412 129.984 29.92C135.643 32.5617 140.602 36.4976 144.459 41.4098C148.316 46.322 150.964 52.0727 152.188 58.1972C154.465 69.7115 151.661 83.9798 141.259 90.7972C140.564 91.2527 141.246 92.4865 141.991 92.0855C154.923 85.151 157.111 66.6591 153.178 53.7808ZM161.718 90.5158C160.199 88.758 158.569 87.0989 156.838 85.5487C156.24 85.038 155.374 85.9294 155.871 86.5313C157.388 88.2922 159.016 89.9545 160.746 91.508C161.308 92.0237 162.249 91.1225 161.718 90.5158ZM172.389 83.5113C171.722 81.3869 170.851 77.9189 169.949 75.936C169.891 75.7825 169.779 75.6552 169.635 75.577C169.49 75.4989 169.323 75.4751 169.162 75.5101C169.002 75.545 168.86 75.6364 168.761 75.7675C168.662 75.8987 168.614 76.0609 168.624 76.2247C169.284 78.8568 170.083 81.452 171.018 83.9993C171.304 84.8932 172.668 84.4011 172.391 83.5113H172.389ZM189.433 74.9827C189.555 74.1962 188.294 73.9953 188.075 74.7387C187.246 77.6904 186.575 80.6845 186.067 83.7082C185.934 84.4833 187.206 84.6931 187.415 83.9522C188.247 81.0006 188.921 78.0065 189.433 74.9827ZM206.029 83.7993C206.494 83.2299 205.587 82.3125 204.972 82.8891C203.245 84.4987 201.339 86.6736 199.767 88.4678C199.628 88.5917 199.543 88.7659 199.532 88.952C199.522 89.1381 199.585 89.3208 199.709 89.4601C199.833 89.5993 200.007 89.6836 200.193 89.6944C200.379 89.7053 200.562 89.6417 200.701 89.5178C202.427 87.7773 204.495 85.6862 206.029 83.7993ZM212.692 117.365C210.552 116.942 208.448 116.352 206.401 115.6C205.502 115.274 204.926 116.384 205.821 116.752C207.953 117.603 210.157 118.263 212.405 118.724C212.496 118.748 212.592 118.753 212.685 118.74C212.778 118.726 212.868 118.693 212.948 118.644C213.029 118.594 213.098 118.529 213.152 118.452C213.207 118.375 213.245 118.287 213.264 118.195C213.284 118.103 213.284 118.007 213.266 117.915C213.247 117.822 213.21 117.735 213.156 117.657C213.103 117.579 213.034 117.513 212.954 117.463C212.874 117.413 212.785 117.379 212.692 117.365V117.365ZM214.67 99.377C212.392 99.4834 210.124 99.7399 207.88 100.145C207.68 100.154 207.493 100.241 207.356 100.387C207.22 100.532 207.146 100.726 207.151 100.925C207.155 101.125 207.237 101.315 207.38 101.454C207.522 101.594 207.714 101.673 207.913 101.673C210.257 101.538 212.59 101.248 214.896 100.804C215.058 100.747 215.195 100.636 215.283 100.488C215.372 100.341 215.405 100.167 215.378 99.9977C215.352 99.8281 215.266 99.6733 215.137 99.5604C215.007 99.4475 214.842 99.3838 214.67 99.3803V99.377Z" fill="black"/>
</svg>
