<svg width="338" height="294" viewBox="0 50 338 294" fill="none" xmlns="http://www.w3.org/2000/svg">
    <path d="M225.622 176.728C223.666 170.935 220.691 165.539 216.839 160.792C216.287 160.059 217.213 158.933 217.975 159.567C222.814 163.99 226.179 169.792 227.615 176.19C233.356 174.648 239.396 174.601 245.16 176.053C250.924 177.505 256.221 180.408 260.547 184.486C261.685 154.99 236.982 134.947 212.393 133.129C208.766 141.554 192.824 144.856 189.848 136.126C177.439 138.592 159.559 147.512 153.144 158.17C161.265 158.117 166.91 158.104 171.244 158.902C175.379 159.663 178.163 162.599 178.377 166.114C178.681 172.858 179.493 179.57 180.805 186.193C183.955 178.034 191.393 175.984 198.034 175.832C203.789 175.698 217.737 178.606 225.622 176.727V176.728ZM220.901 117.579C231.683 115.321 242.753 114.772 253.705 115.952C264.406 117.075 271.179 118.495 273.707 130.244C277.478 147.778 273.552 175.983 267.512 192.863C262.314 207.387 252.791 206.016 240.085 206.982C239.11 207.056 238.848 208.74 239.921 208.775C252.01 209.17 262.222 208.69 267.764 198.848C276.311 183.672 279.408 149.758 276.902 132.387C275.259 121.011 270.431 115.539 258.833 114.028C246.943 112.478 231.838 112.141 220.376 115.848C220.157 115.926 219.977 116.086 219.873 116.293C219.768 116.501 219.748 116.74 219.815 116.963C219.883 117.185 220.033 117.373 220.235 117.487C220.437 117.602 220.675 117.635 220.901 117.579ZM275.481 120.641C283.257 123.453 291.669 126.472 297.318 132.819C310.043 147.11 303.241 170.581 300.068 187.277C296.545 205.82 293.184 224.393 289.677 242.933C288.581 248.731 290.775 250.534 291.805 245.351C295.484 226.848 298.939 208.256 302.474 189.723C305.828 172.13 312.715 148.739 301.037 132.905C295.084 124.835 285.319 121.707 276.08 119.106C275.09 118.834 274.465 120.271 275.481 120.641ZM230.531 284.856C230.095 286.661 232.8 287.171 233.249 285.265C237.263 268.21 242.715 247.93 244.657 231.019C246.196 217.618 245.099 208.984 229.948 207.549C217.787 206.387 207.723 211.281 205.51 224.071C202.616 240.789 204.348 267.802 204.945 285.646C204.943 285.87 205.029 286.086 205.186 286.246C205.342 286.406 205.556 286.497 205.78 286.5C206.004 286.502 206.22 286.416 206.38 286.259C206.54 286.102 206.631 285.888 206.634 285.664C207.15 267.816 206.337 249.451 207.404 231.771C208.135 219.661 211.036 210.694 225.044 209.985C240.439 209.208 243.512 215.08 242.163 229.426C240.449 247.624 233.367 273.127 230.534 284.855L230.531 284.856ZM305.174 258.189C306.827 255.011 312.355 249.358 315.567 249.338C318.239 249.325 316.523 254.58 317.371 257.543C324.273 258.149 325.546 258.068 330.173 262.583C330.765 263.164 331.477 262.857 330.97 262.014C329.917 260.197 328.432 258.668 326.646 257.563C328.998 254.023 332.719 251.96 333.833 252.113C335.938 252.402 333.305 259.514 334.658 265.153C335.572 268.963 337.213 273.386 335.63 277.854C334.4 281.328 332.421 284.491 326.437 286.382C320.943 288.125 310.544 286.797 305.858 284.198C312.701 280.045 310.214 269.839 299.723 273.194C285.499 277.741 278.336 278.771 263.368 276.254C262.312 276.077 262.065 277.246 263.164 277.455C275.167 280.004 287.632 279.322 299.287 275.48C304.965 273.687 308.967 277.247 306.246 281.026C303.488 284.86 296.109 286.273 291.633 286.952C278.113 289.008 263.797 287.497 257.564 286.746C245.975 285.352 251.903 255.802 282.087 251.772C290.733 250.617 299.613 253.034 304.468 256.245C302.148 260.145 300.713 264.509 300.266 269.026C300.203 269.903 301.165 269.697 301.36 268.837C302.166 265.137 303.449 261.557 305.178 258.187L305.174 258.189ZM274.889 255.365C273.13 256.295 271.897 258.601 271.288 260.425C270.614 262.391 270.519 264.51 271.015 266.529C271.248 267.47 272.199 267.562 272.198 266.571C272.166 264.699 272.56 262.844 273.349 261.147C273.64 260.523 275.217 258.056 275.844 257.029C276.502 255.959 275.947 254.811 274.892 255.364L274.889 255.365ZM283.858 253.274C281.367 254.62 279.909 257.601 279.03 260.179C278.15 262.921 278.069 265.858 278.797 268.645C279.002 269.542 279.966 269.475 280.024 268.587C280.235 265.333 280.781 260.73 283.14 257.714C283.873 256.773 284.54 255.782 285.139 254.75C285.818 253.589 284.741 252.791 283.862 253.267L283.858 253.274ZM291.474 255.077C289.998 256.446 288.793 258.081 287.923 259.898C286.781 262.251 286.402 264.903 286.841 267.483C287.019 268.399 288.002 268.557 288.107 267.551C288.395 265.038 289.271 262.629 290.662 260.517C291.446 259.318 292.351 258.202 293.361 257.186C295.953 254.546 293.889 252.944 291.478 255.076L291.474 255.077ZM327.481 271.954C327.937 271.686 328.475 271.595 328.994 271.698C329.512 271.801 329.975 272.092 330.293 272.514C331.014 273.507 331.782 272.947 331.372 271.719C331.189 271.297 330.905 270.926 330.545 270.639C330.185 270.352 329.761 270.157 329.308 270.072C328.856 269.987 328.39 270.014 327.95 270.151C327.511 270.288 327.112 270.53 326.788 270.857C326.682 270.964 326.617 271.104 326.601 271.253C326.586 271.402 326.621 271.552 326.702 271.679C326.783 271.805 326.904 271.901 327.046 271.949C327.188 271.998 327.342 271.997 327.483 271.947L327.481 271.954ZM320.295 274.181C320.411 275.042 321.941 276.796 322.908 276.749C324.046 276.694 325.642 275.502 325.531 274.364C325.419 273.225 320.129 272.912 320.297 274.174L320.295 274.181ZM314.62 271.527C315.023 271.1 315.562 270.824 316.145 270.746C316.728 270.668 317.32 270.793 317.822 271.1C318.769 271.805 319.616 270.927 318.808 270.111C318.449 269.738 318.007 269.455 317.518 269.285C317.029 269.114 316.507 269.062 315.993 269.131C315.48 269.2 314.991 269.389 314.564 269.682C314.138 269.976 313.786 270.366 313.538 270.821C313.037 271.637 314.073 272.053 314.622 271.52L314.62 271.527ZM112.344 184.208C112.733 180.963 112.924 179.368 109.468 179.199C99.5297 178.717 92.4654 181.227 86.3663 185.975C79.6993 191.166 74.6757 199.478 74.2134 208.038C74.1763 208.252 74.2256 208.471 74.3504 208.649C74.4752 208.826 74.6654 208.947 74.879 208.984C75.0926 209.021 75.3122 208.972 75.4896 208.847C75.6669 208.722 75.7873 208.532 75.8244 208.318C77.3913 200.277 81.0826 192.926 87.6614 187.817C94.6479 182.391 102.114 180.674 110.722 181.304C110.125 189.918 106.588 198.065 100.703 204.381C93.7233 211.827 87.9262 213.484 78.6527 215.585C78.4647 215.637 78.3018 215.756 78.194 215.919C78.0861 216.082 78.0405 216.278 78.0655 216.472C78.0904 216.665 78.1843 216.844 78.3299 216.974C78.4754 217.104 78.663 217.178 78.8583 217.181C86.9227 217.08 96.6713 211.591 102.147 205.845C107.721 199.875 111.286 192.309 112.344 184.208ZM182.171 285.705C179.455 279.744 172.703 272.099 165.35 273.584C160.762 274.513 155.698 279.421 153.453 283.407C152.274 285.498 152.805 287.906 155.454 288.239C161.594 288.792 167.762 288.952 173.922 288.718C179.914 288.647 188.929 288.298 194.619 286.794C195.683 286.514 195.156 285.063 194.223 285.051C190.223 284.968 186.19 285.417 182.171 285.705ZM128.4 288.218C135.323 288.61 144.763 288.581 151.32 286.963C152.338 286.714 151.884 285.267 150.957 285.267C150.004 285.267 149.053 285.3 148.103 285.333C146.613 281.686 144.796 277.976 141.198 276.008C135.411 272.845 129.3 277.411 125.325 281.434C120.185 286.635 123.098 287.919 128.4 288.218ZM54.0171 206.339C54.2488 206.328 54.4673 206.228 54.6264 206.059C54.7856 205.89 54.8729 205.666 54.8701 205.434C54.8672 205.202 54.7743 204.981 54.6111 204.816C54.4478 204.651 54.2269 204.556 53.995 204.551C44.6413 204.506 35.6118 203.011 27.2907 198.536C15.0797 191.966 7.78193 182.107 3.25203 169.313C10.7566 168.384 22.8398 167.803 33.3991 170.812C49.3826 175.361 55.9452 186.257 58.9605 201.559C59.1451 202.498 60.7504 202.387 60.6656 201.394C58.0092 170.648 30.4198 164.29 4.06509 167.117C1.15318 167.43 0.55268 167.594 1.70955 170.651C4.49717 178.021 8.38243 185.415 13.7416 191.009C23.5204 201.215 39.7479 208.167 54.0171 206.339ZM337.211 290.214C314.537 289.634 313.466 289.75 290.789 289.773C268.112 289.796 245.418 289.934 222.734 289.965C177.596 290.024 132.459 290.153 87.3199 290.354C62.0083 290.438 36.1762 290.048 10.9296 290.966C10.0376 290.999 10.0202 292.514 10.9169 292.542C33.5768 293.239 56.3029 292.803 78.9687 292.756C101.657 292.708 124.342 292.656 147.023 292.6C192.16 292.471 237.299 292.251 282.436 292.226C307.888 292.211 311.754 292.871 337.196 292.085C338.256 292.053 338.274 290.242 337.211 290.214ZM85.0039 286.148C87.0563 275.198 89.8509 259.765 90.5791 248.864C93.1798 248.664 93.4829 248.384 94.0102 245.656C94.508 243.418 94.8622 241.151 95.0707 238.868C95.2716 235.615 95.7421 234.197 92.0264 234.116C76.7211 233.781 58.0905 233.636 42.9641 234.661C42.7552 234.672 42.5589 234.765 42.4172 234.919C42.2755 235.073 42.1997 235.276 42.2059 235.485C42.2121 235.695 42.2999 235.893 42.4505 236.038C42.6011 236.184 42.8025 236.264 43.0117 236.263C59.4971 237.309 77.0719 235.252 93.0055 236.659C92.9822 239.996 92.5927 243.321 91.844 246.573C75.476 247.707 59.9326 247.545 43.5751 247.344C42.4921 243.943 41.6766 240.461 41.1359 236.932C40.9779 236.003 39.4029 236.031 39.4273 237.024C39.5599 240.618 40.2278 244.171 41.4089 247.567C42.0024 249.346 43.3056 249.629 45.2035 249.616C59.9071 249.517 73.901 249.934 88.6696 248.991C87.1445 263.365 84.8018 272.819 83.2453 283.787C82.7052 287.657 84.5764 288.436 85.0039 286.154V286.148ZM123.885 211.936C124.748 211.956 125.098 210.563 124.174 210.374C118.615 209.242 112.341 208.85 107.65 212.658C101.791 217.413 104 227.172 105.042 233.818C107.003 246.337 113.493 273.382 118.44 286.346C118.85 287.421 120.603 286.723 120.299 285.666C116.369 271.924 110.576 252.185 107.497 233.58C106.739 229.017 105.077 221.244 107.135 217.054C110.145 210.933 118.268 211.816 123.885 211.942V211.936ZM45.1629 252.811C45.6495 259.851 49.1387 279.664 51.7219 285.778C51.8234 285.972 51.9895 286.125 52.1915 286.209C52.3935 286.294 52.6186 286.305 52.8281 286.242C53.0376 286.178 53.2182 286.043 53.3388 285.86C53.4594 285.677 53.5124 285.458 53.4886 285.24C50.8171 274.398 48.9506 266.301 46.7983 252.531C46.6368 251.495 45.092 251.798 45.1629 252.811ZM66.1165 185.229C66.2323 185.399 66.4078 185.518 66.608 185.564C66.8081 185.609 67.018 185.577 67.1956 185.474C67.3731 185.371 67.5052 185.205 67.5653 185.009C67.6254 184.813 67.6091 184.601 67.5196 184.416C63.1097 176.546 61.6755 167.353 63.4787 158.513C64.8605 152.276 67.8914 146.524 72.2549 141.859C76.6184 137.194 82.1542 133.787 88.284 131.994C90.4792 139.887 91.047 148.145 89.9531 156.265C87.8124 170.27 82.2581 177.707 73.4526 187.869C72.7999 188.623 73.8557 189.786 74.6606 189.165C80.3451 184.78 85.5254 176.53 88.2805 169.929C93.1031 158.379 94.2553 143.881 90.1633 131.902C89.3956 129.655 89.1621 129.488 86.9506 130.181C79.1027 132.67 72.2656 137.622 67.4534 144.304C63.2129 150.23 60.8228 157.28 60.5849 164.564C60.3469 171.848 62.2718 179.039 66.1165 185.229ZM66.4569 231.864C66.4766 232.895 68.2351 232.91 68.2723 231.871C68.3048 230.962 68.3404 230.052 68.3792 229.142C76.5214 211.845 84.5997 202.41 99.3915 190.498C100.088 189.935 99.1976 188.614 98.3833 189.023C87.2049 194.636 73.7686 212.428 68.6173 224.019C69.802 198.58 71.8881 180.29 78.3043 154.814C78.5366 153.884 76.9709 153.447 76.6654 154.377C70.6429 172.661 67.5475 197.328 66.6241 216.592C59.6992 200.914 45.5636 188.369 29.9598 181.767C28.976 181.351 28.4499 182.879 29.3965 183.313C46.3128 191.032 58.72 204.902 66.4487 221.586C66.3779 225.008 66.3906 228.427 66.4569 231.864Z" fill="#FE573F"/>
    <path fill-rule="evenodd" clip-rule="evenodd" d="M193.108 187.535C191.598 189.501 190.34 189.722 189.371 192.525C188.64 194.711 188.736 197.088 189.639 199.208C189.724 199.398 189.733 199.613 189.662 199.809C189.592 200.005 189.448 200.166 189.261 200.257C189.075 200.349 188.86 200.365 188.662 200.301C188.464 200.237 188.299 200.098 188.201 199.915C187.502 198.713 187.06 197.379 186.904 195.997C186.748 194.616 186.881 193.217 187.295 191.889C187.941 189.812 189.976 186.679 192.232 186.208C192.399 186.178 192.57 186.198 192.725 186.265C192.88 186.332 193.012 186.443 193.105 186.584C193.198 186.725 193.248 186.89 193.249 187.059C193.249 187.228 193.2 187.393 193.108 187.535ZM198.313 191.827C198.406 191.712 198.467 191.575 198.489 191.429C198.512 191.284 198.495 191.135 198.44 190.998C198.386 190.861 198.296 190.741 198.179 190.65C198.063 190.559 197.925 190.502 197.779 190.482C195.412 190.396 193.433 193.64 193.077 195.692C192.854 196.953 193.004 198.251 193.508 199.428C194.013 200.605 194.85 201.608 195.917 202.315C196.086 202.45 196.302 202.511 196.517 202.487C196.623 202.475 196.726 202.441 196.82 202.389C196.914 202.337 196.996 202.267 197.063 202.183C197.129 202.1 197.179 202.003 197.208 201.9C197.237 201.797 197.246 201.689 197.234 201.583C197.222 201.477 197.189 201.374 197.137 201.28C197.085 201.186 197.015 201.104 196.931 201.037C196.251 200.399 195.734 199.608 195.423 198.729C195.111 197.851 195.014 196.91 195.14 195.986C195.626 193.199 197.551 192.575 198.313 191.827ZM257.764 184.023C257.584 182.955 255.927 183.077 255.933 184.099C255.979 191.11 253.61 198.403 241.442 200.815C227.864 203.507 214.47 200.265 202.88 193.001C202.714 192.887 202.51 192.843 202.312 192.877C202.114 192.911 201.937 193.022 201.819 193.185C201.701 193.348 201.651 193.55 201.68 193.749C201.71 193.948 201.815 194.128 201.975 194.25C212.993 202.746 228.257 205.68 241.838 203.14C251.984 201.243 259.693 195.513 257.764 184.023ZM206.354 204.758C204.928 204.892 184.877 205.479 183.51 204.796C182.142 204.113 176.707 186.67 175.389 169.793C175.011 164.935 174.251 162.695 168.332 161.822C163.536 161.115 125.758 161.474 122.4 161.822C119.513 162.127 117.32 163.26 117.559 169.039C118.127 182.775 125.376 208.584 129.284 210.679C133.534 212.956 201.147 212.372 206.183 211.36C210.338 210.525 209.58 204.454 206.354 204.758ZM152.506 186.19C151.767 183 149.431 181.078 146.644 181.182C143.514 181.299 142.944 184.997 143.57 187.616C144.204 190.271 146.227 192.625 149.145 192.513C152.109 192.4 153.248 189.381 152.506 186.19ZM157.089 260.575C156.84 259.645 155.409 260.011 155.474 260.924C155.632 263.141 157.139 270.8 157.825 274.379C157.964 275.099 159.203 274.72 159.323 274.059C159.61 272.504 157.654 262.672 157.09 260.575H157.089ZM167.154 260.384C166.69 259.655 165.412 260.164 165.731 261.028C167.162 264.941 168.547 267.883 169.426 272.276C169.605 273.174 171.052 272.948 171.019 272.006C170.575 267.901 169.258 263.938 167.155 260.384H167.154ZM188.028 271.873C186.77 268.247 186.103 264.441 186.053 260.603C186.035 260.414 185.951 260.239 185.816 260.106C185.68 259.974 185.502 259.894 185.314 259.881C185.125 259.868 184.938 259.922 184.785 260.034C184.632 260.146 184.525 260.308 184.481 260.493C184.019 264.07 184.359 267.705 185.475 271.135C186.576 274.669 189.045 277.663 188.462 281.429C188.426 281.636 188.464 281.849 188.57 282.03C188.676 282.212 188.843 282.349 189.041 282.419C189.239 282.489 189.455 282.486 189.651 282.411C189.847 282.336 190.01 282.194 190.112 282.01C191.958 278.75 189.153 274.881 188.028 271.873ZM140.355 260.869C140.259 260.703 140.107 260.577 139.926 260.514C139.745 260.451 139.548 260.455 139.37 260.525C139.192 260.596 139.045 260.728 138.956 260.898C138.868 261.067 138.843 261.263 138.887 261.45C139.552 264.58 142.363 270.586 140.479 273.405C140.396 273.547 140.357 273.71 140.365 273.875C140.374 274.039 140.43 274.197 140.527 274.33C140.624 274.463 140.758 274.565 140.912 274.623C141.066 274.681 141.234 274.692 141.394 274.656C145.257 273.404 141.903 263.226 140.355 260.869ZM157.238 244.587C155.083 236.114 152.592 221.82 159.638 215.074C148.628 214.91 139.452 214.703 137.178 214.7C133.004 214.7 127.903 215.691 126.627 221.651C125.062 228.956 130.576 245.528 135.962 257.599C139.757 257.903 152.729 258.112 157.429 257.523C157.084 253.22 157.02 248.898 157.24 244.587H157.238ZM163.702 215.128C151.934 222.778 160.412 247.945 163.94 257.979C171.569 258.409 179.216 258.382 186.842 257.899C185.975 254.181 185.823 244.082 187.492 241.956C189.161 239.831 194.177 240.035 201.663 240.135C201.717 231.479 201.305 218.456 206.541 214.356C201.879 215.414 181.325 215.36 163.703 215.128H163.702ZM231.361 176.552C220.197 180.892 214.351 179.403 203.045 178.876C195.271 178.513 184.56 180.562 182.436 189.505C182.402 189.701 182.441 189.902 182.546 190.071C182.65 190.241 182.813 190.365 183.003 190.423C183.194 190.48 183.398 190.465 183.579 190.382C183.759 190.299 183.903 190.152 183.982 189.97C187.52 180.743 198.325 180.548 206.632 181.297C214.939 182.047 224.714 182.727 232.128 178.027C232.305 177.915 232.433 177.742 232.488 177.54C232.543 177.338 232.519 177.124 232.423 176.938C232.327 176.753 232.164 176.611 231.968 176.54C231.771 176.469 231.555 176.475 231.363 176.556L231.361 176.552ZM228.429 134.888C219.746 127.768 217.278 112.095 213.832 104.662C206.989 89.8765 192.303 85.2649 177.114 88.6786C165.276 91.3394 165.439 104.016 182.873 102.555C192.174 101.776 196.606 99.4368 196.638 99.4182C197.683 103.498 202.235 109.738 202.772 108.585C204.086 105.756 206.859 106.951 207.311 109.552C207.966 113.326 205.907 115.227 203.767 115.144C203.003 115.115 206.805 128.358 207.753 130.829C208 131.477 208.827 131.367 209.423 131.386C214.219 131.53 222.452 132.285 228.429 134.894V134.888ZM193.598 131.207C196.42 129.971 198.921 128.103 200.905 125.746C201.496 125.076 200.435 124.14 199.776 124.7C196.509 127.473 193.09 130.752 188.438 130.253C183.483 129.722 182.049 124.676 181.016 120.573C180.771 119.595 179.247 119.845 179.455 120.854C180.447 125.671 182.288 131.006 187.811 131.922C189.207 132.147 190.634 132.081 192.004 131.726C192.255 133.359 191.966 134.937 192.095 136.324C192.129 136.51 192.229 136.677 192.375 136.795C192.522 136.913 192.706 136.975 192.894 136.97C193.082 136.964 193.262 136.891 193.401 136.764C193.54 136.636 193.629 136.464 193.652 136.277C193.842 134.591 193.824 132.888 193.598 131.207ZM196.213 118.905C196.16 118.719 196.042 118.559 195.881 118.452C195.721 118.345 195.527 118.299 195.336 118.322C195.144 118.345 194.967 118.435 194.836 118.576C194.705 118.718 194.628 118.901 194.619 119.094C194.912 121.999 192.085 122.681 189.886 123.277C189.69 123.327 189.522 123.452 189.418 123.626C189.314 123.8 189.284 124.008 189.333 124.204C189.383 124.401 189.508 124.569 189.682 124.673C189.856 124.777 190.064 124.807 190.26 124.757C193.026 124.495 197.035 123.118 196.213 118.909V118.905ZM187.419 118.417C186.83 118.584 186.209 118.604 185.61 118.477C185.86 117.603 186.119 116.734 186.324 115.848C186.376 115.657 186.352 115.453 186.257 115.279C186.161 115.105 186.002 114.975 185.813 114.917C185.623 114.859 185.419 114.876 185.242 114.966C185.065 115.056 184.931 115.211 184.866 115.398C184.567 116.211 184.261 117.133 184.035 117.979C183.929 118.202 183.881 118.448 183.893 118.694C183.905 118.941 183.977 119.181 184.103 119.393C184.229 119.605 184.405 119.783 184.616 119.912C184.827 120.04 185.066 120.115 185.312 120.129C186.211 120.302 187.138 120.25 188.013 119.979C188.118 119.943 188.216 119.886 188.299 119.811C188.382 119.737 188.449 119.646 188.497 119.545C188.544 119.444 188.571 119.334 188.576 119.223C188.58 119.111 188.562 118.999 188.523 118.895C188.483 118.79 188.423 118.695 188.346 118.614C188.269 118.533 188.177 118.468 188.074 118.423C187.972 118.379 187.861 118.355 187.75 118.354C187.638 118.353 187.527 118.374 187.424 118.417H187.419ZM180.772 114.831C180.729 114.164 180.451 113.416 179.681 113.362C178.675 113.294 178.419 114.219 178.55 115.025C178.659 115.693 179.162 116.716 180.006 116.616C180.819 116.522 180.811 115.439 180.772 114.831ZM191.785 111.181C191.736 111.003 191.647 110.839 191.525 110.7C191.403 110.562 191.251 110.452 191.081 110.38C190.91 110.309 190.726 110.276 190.542 110.285C190.357 110.295 190.177 110.346 190.015 110.434C189.761 110.694 189.587 111.02 189.513 111.376C189.439 111.731 189.469 112.101 189.599 112.44C189.728 112.779 189.953 113.073 190.245 113.289C190.537 113.504 190.885 113.631 191.248 113.654C192.252 113.43 192.171 112.176 191.785 111.181ZM199.469 107.231C198.049 106.85 196.555 106.847 195.134 107.222C194.104 105.119 191.943 102.845 189.391 103.261C186.546 103.725 185.831 106.914 186.008 109.351C185.596 109.291 185.176 109.316 184.774 109.426C184.373 109.535 183.998 109.726 183.673 109.987C182.875 108.188 181.621 106.514 179.569 106.181C175.186 105.467 174.377 111.293 175.155 114.46C175.763 116.919 177.651 119.519 180.498 119.166C184.776 118.636 183.944 112.125 184.069 111.962C184.279 111.61 184.601 111.338 184.984 111.191C185.367 111.043 185.788 111.029 186.18 111.149C186.722 114.176 189.124 117.74 192.648 116.905C196.036 116.101 196.505 111.543 195.712 108.762C196.914 108.633 198.126 108.625 199.329 108.738C199.496 108.707 199.649 108.622 199.763 108.496C199.878 108.37 199.948 108.21 199.963 108.041C199.978 107.872 199.938 107.702 199.848 107.558C199.758 107.413 199.624 107.302 199.465 107.241L199.469 107.231ZM192.644 115.04C195.096 113.89 194.295 109.296 193.39 107.614C192.673 106.284 190.904 104.227 189.181 105.049C187.684 105.763 187.271 107.932 187.705 110.052C188.411 113.494 189.899 116.326 192.644 115.04ZM182.326 111.694C182.008 109.694 180.987 107.887 178.995 107.836C176.458 107.771 176.261 112.096 176.641 113.885C176.982 115.481 178.247 117.639 180.168 117.496C182.501 117.322 182.555 113.125 182.327 111.695L182.326 111.694Z" fill="black"/>
</svg>
