<svg width="186" height="186" viewBox="0 0 186 186" fill="none" xmlns="http://www.w3.org/2000/svg">
<path fill-rule="evenodd" clip-rule="evenodd" d="M89.8853 150.792C104.207 147.463 115.59 135.44 124.233 124.104C133.297 124.892 142.319 123.556 151.36 124.22C153.513 124.38 160.736 125.263 157.566 128.73C151.995 134.827 138.641 132.41 133.153 134.908C133.029 134.965 132.781 134.977 132.797 135.112C133.045 137.584 141.135 138.762 136.174 141.297C135.505 141.614 134.806 141.862 134.088 142.037C128.293 143.639 120.887 142.872 114.28 144.348C114.116 144.383 110.56 145.305 110.743 145.683C111.649 147.57 115.914 148.025 117.687 148.674C117.948 148.769 120.137 149.443 120.121 149.902C120.055 151.875 113.928 152.139 112.58 152.115C105.146 151.996 97.3432 152.296 89.9826 151.068" fill="#FE573F"/>
<path fill-rule="evenodd" clip-rule="evenodd" d="M19.722 120.197C9.23095 119.105 7.92895 128.942 18.3152 130.741C18.3006 126.674 19.0391 122.639 20.4932 118.841" fill="#FE573F"/>
<path fill-rule="evenodd" clip-rule="evenodd" d="M49.9161 129.48C59.7611 128.147 58.5744 132.353 61.3433 136.1C66.162 142.625 72.6893 150.923 81.1877 152.084C76.4875 155.184 70.2025 154.335 64.8817 154.288C62.9473 154.271 59.1609 153.645 57.5037 154.937C56.7752 155.508 59.0196 156.673 59.3383 156.797C60.7878 157.355 68.1423 158.448 64.9927 161.509C62.6795 163.758 57.5942 163.016 54.6864 163.196C51.3638 163.402 48.0351 163.19 44.715 163.294C39.7705 163.449 34.6989 163.666 29.8064 162.785C26.9675 162.273 23.3498 161.969 20.9634 160.177C19.4636 159.051 20.3062 157.519 21.8711 156.843C24.1031 155.882 27.182 156.041 29.582 155.796C29.9509 155.758 32.4867 155.57 32.5338 155.089C32.6752 153.654 28.4307 152.862 27.5323 152.733C24.4831 152.296 21.4563 152.077 18.4859 151.198C17.5838 150.932 16.3159 150.672 15.6506 149.935C14.5538 148.724 15.4472 147.298 16.4969 146.396C18.4189 144.75 21.2709 144.395 23.7112 144.185C26.7095 143.926 30.3415 144.897 32.9548 143.767C43.4607 139.223 44.165 132.837 49.9385 129.351" fill="#FE573F"/>
<path fill-rule="evenodd" clip-rule="evenodd" d="M76.384 58.9151C76.227 58.1262 76.2829 57.3098 76.5458 56.5498C76.8816 55.1177 77.2956 53.7051 77.7858 52.3183C78.1826 51.591 77.9377 52.0455 78.2924 51.454C78.6439 51.1347 78.5044 51.2016 78.8969 51.1328H78.9018C79.1895 51.4087 79.112 51.2748 79.223 51.7373C79.2244 52.569 79.0744 53.3941 78.7803 54.1721C77.65 57.9696 78.0797 57.5876 77.3214 58.9572C77.1571 59.248 77.3097 59.0949 76.7269 59.5524C76.348 58.9622 76.4082 59.0862 76.384 58.9151Z" fill="black"/>
<path fill-rule="evenodd" clip-rule="evenodd" d="M79.9117 58.0889C80.3683 58.1683 80.8034 58.3416 81.1895 58.5979C80.3686 59.8156 80.4096 59.5899 77.9203 59.8261C77.5849 59.8962 77.2359 59.8562 76.9252 59.712C76.754 59.65 76.9121 59.7529 76.2432 59.2576C76.5941 58.7833 76.6493 58.5991 77.2637 58.3623C77.5445 58.2897 79.146 58.2104 79.7313 58.1143C79.7462 58.1112 79.9018 58.0889 79.9117 58.0889Z" fill="black"/>
<path fill-rule="evenodd" clip-rule="evenodd" d="M71.4451 52.0708C72.3751 63.3945 71.853 69.5697 75.3691 71.3298C76.2412 71.6853 77.1694 71.8835 78.1107 71.9151C78.7747 71.9722 78.9576 71.9412 79.2503 72.2505C79.5603 72.6988 79.4152 72.4266 78.9768 77.3197C78.9179 78.1095 78.9477 78.1337 78.7388 78.4164C78.2676 78.8628 78.0369 78.6415 76.911 78.3501C73.4529 77.4898 69.8673 77.2648 66.3288 77.6861C59.0922 78.435 50.6689 81.9021 44.5904 85.6481L44.2835 85.7027L44.0287 85.5409L43.9741 85.2457C44.1868 84.9134 44.0801 85.025 44.4701 84.746C45.5316 84.0076 46.531 83.3008 48.0041 82.4185C56.7151 77.1913 67.9098 74.3585 77.4789 76.9117C77.5198 76.2582 77.8081 73.5197 77.8168 73.4304C76.518 73.4051 75.2476 73.0453 74.1284 72.3857C73.5199 71.9989 72.9962 71.4927 72.589 70.8977C70.0023 67.1188 70.4301 55.4833 70.1542 48.879C70.1127 47.9056 70.0681 48.2627 70.233 47.7748L70.5517 47.6006H70.5591C71.1059 47.7773 71.0929 47.3334 71.4451 52.0708Z" fill="black"/>
<path fill-rule="evenodd" clip-rule="evenodd" d="M30.2859 99.4475H30.2902L30.4545 99.7755C30.3008 100.282 30.4682 99.9615 29.78 100.844C27.8925 103.332 26.2567 106.001 24.8968 108.811C22.265 114.049 20.3792 119.63 19.2945 125.391C18.4743 129.39 18.0291 133.699 19.1792 137.656C20.2239 141.408 22.4565 143.391 24.7592 143.983C25.5604 144.194 26.3875 144.289 27.2156 144.266C31.113 144.102 34.8013 142.257 37.9261 139.868C46.006 133.531 57.1065 119.893 58.6199 112.314C58.8431 111.243 58.6614 111.654 58.92 111.198L59.2076 111.11H59.2151L59.4767 111.26C59.5821 111.595 59.6131 111.458 59.4482 112.531C57.9211 122.451 43.3536 139.534 34.4957 143.841C32.6109 144.769 30.5936 145.399 28.5158 145.709C22.8453 146.5 17.9758 143.105 17.0805 134.779C16.6911 130.952 17.2157 127.78 17.9485 124.327C18.6924 120.415 19.8532 116.595 21.4112 112.931C25.2106 104.036 29.3776 99.8301 29.6039 99.5096L29.9368 99.3428L30.2859 99.4475Z" fill="black"/>
<path fill-rule="evenodd" clip-rule="evenodd" d="M36.4514 104.825L36.4148 105.396C36.2086 105.719 36.055 106.073 35.9598 106.444C35.9337 106.533 35.4532 108.428 35.1755 109.63C34.7737 111.285 34.5555 111.304 33.8356 111.767C31.6265 113.137 29.2816 114.275 26.8383 115.163L26.4558 115.178L26.1793 114.98V114.975L26.1514 114.635C26.1514 114.631 26.3622 114.318 26.3653 114.314C27.0611 113.765 27.8003 113.273 28.5756 112.843C30.2403 112.076 31.852 111.198 33.3998 110.216C33.9057 108.959 33.8865 107.445 34.7297 106.062C34.9263 105.719 35.1716 105.405 35.4582 105.132C35.8854 104.757 35.8339 104.809 36.2022 104.714L36.4514 104.825Z" fill="black"/>
<path fill-rule="evenodd" clip-rule="evenodd" d="M53.6022 102.108C53.7882 102.79 53.8279 102.501 53.4596 103.491C53.1922 104.16 52.8176 104.78 52.3504 105.328C50.3769 107.518 48.0508 109.362 45.4684 110.784C45.3364 110.873 44.0734 111.379 43.9333 111.431L43.5501 111.451L43.2718 111.258V111.253L43.2383 110.917L43.4429 110.591C44.3639 109.79 45.3518 109.068 46.3959 108.436C50.3429 105.73 50.6454 104.807 52.2239 103.174C53.2581 102.069 52.8811 102.325 53.6022 102.108Z" fill="black"/>
<path fill-rule="evenodd" clip-rule="evenodd" d="M55.7605 108.132C55.4573 109.277 55.195 109.999 53.5787 111.616C52.507 112.672 51.3292 113.615 50.0639 114.429C49.8742 114.53 49.8922 114.533 49.5592 114.689C49.1581 114.861 48.7484 115.013 48.3316 115.143C47.8561 115.143 48.0136 115.198 47.6701 114.957L47.6509 114.629C47.9875 114.085 47.7092 114.47 48.3837 113.827C48.4786 113.78 48.4104 113.772 49.2331 113.139C50.2436 112.504 51.1904 111.772 52.0603 110.955C52.713 110.337 53.3155 109.667 53.862 108.954C54.482 108.276 54.6377 108.177 55.0016 107.797C55.0896 107.709 54.9749 107.766 55.6179 107.563L55.7605 108.132Z" fill="black"/>
<path fill-rule="evenodd" clip-rule="evenodd" d="M57.4457 111.046C57.2597 112.508 57.1165 112.789 56.0197 114.533C55.2547 115.701 54.3604 116.78 53.3537 117.748C52.8983 118.123 52.395 118.436 51.857 118.678C51.8161 118.678 51.9922 118.656 51.4689 118.74L51.1763 118.597L51.1719 118.593L51.105 118.276L51.255 117.915C51.2817 117.87 51.508 117.601 51.9662 117.015C53.0663 115.94 54.0463 114.749 54.8888 113.462C55.8976 111.781 55.5994 112.076 56.6093 110.863C56.7185 110.72 56.6304 110.779 57.2349 110.509L57.4457 111.046Z" fill="black"/>
<path fill-rule="evenodd" clip-rule="evenodd" d="M98.6611 51.5333C99.8612 51.4617 101.047 51.8239 102.002 52.5538C102.464 52.9483 102.831 53.4411 103.078 53.996C104.076 56.3272 102.715 59.08 100.675 60.0955C100.835 64.7809 101.405 71.8805 102.045 76.2273C109.758 75.3705 118.773 75.5918 125.573 79.3186C126.923 80.048 128.186 80.926 129.341 81.9363C130.432 82.8944 131.401 83.9828 132.227 85.177C133.036 86.3544 133.702 87.6241 134.211 88.959C135.481 92.1353 135.997 96.7338 134.893 101.972C132.83 112.884 119.558 134.365 103.048 145.375C90.8584 153.497 79.5651 153.255 73.3304 149.513C66.1663 145.319 58.8106 133.324 54.7446 127.18L54.6826 126.874L54.8469 126.618L55.1464 126.561C56.1427 127.21 62.2293 137.822 69.7319 144.932C69.8224 145.013 70.0995 145.266 70.1888 145.349C73.5474 148.434 76.0336 149.509 79.717 150.136C85.9914 151.182 91.5652 149.76 97.2314 146.988C112.398 139.238 126.904 120.26 131.992 106.44C135.203 97.9534 134.933 88.6044 127.865 82.7119C123.007 78.6645 116.356 77.4977 110.005 77.3625C102.114 77.3625 101.555 78.135 100.877 77.6031C100.639 77.3315 100.658 77.2714 100.577 76.6111C99.8963 71.0088 99.5081 65.3749 99.4138 59.7322C99.4108 59.6058 99.4466 59.4815 99.5163 59.376C99.586 59.2705 99.6863 59.1888 99.8037 59.142C101.466 58.5871 102.956 56.1982 101.967 54.2185C101.73 53.771 101.386 53.3893 100.965 53.1079C100.545 52.8265 100.06 52.6542 99.5564 52.6065C97.6114 52.3734 98.4087 52.6927 97.6381 52.3902L97.488 52.0547V52.0498L97.6213 51.7069C98.0175 51.5222 97.852 51.5333 98.6611 51.5333Z" fill="black"/>
<path fill-rule="evenodd" clip-rule="evenodd" d="M60.9123 100.388C64.6323 102.93 66.0286 106.385 65.7025 108.991C72.4679 112.619 79.4625 115.802 86.6417 118.521C89.0293 114.896 90.1658 112.628 95.194 104.709C95.9268 103.564 95.7291 103.813 96.062 103.556L96.3646 103.584H96.3689C96.6888 104.035 96.7508 103.67 94.9677 107.17C92.595 111.842 91.1163 114.247 90.0226 116.046C86.9666 120.813 87.7106 120.558 85.615 119.775C77.5407 116.76 70.934 113.416 64.5077 110.095C63.8115 109.648 64.2517 109.157 64.1977 108.186C64.1977 104.77 61.1008 101.587 57.9822 99.9361C57.6766 99.7923 57.7832 99.8679 57.4775 99.5455V99.184V99.1791L57.7373 98.9267L58.1093 98.9199C59.0972 99.2995 60.0378 99.7922 60.9123 100.388Z" fill="black"/>
<path fill-rule="evenodd" clip-rule="evenodd" d="M85.9182 118.614C86.4079 118.741 86.8852 118.912 87.3442 119.125C89.5446 120.446 91.8975 121.57 92.1486 121.771C92.357 121.922 92.5558 122.086 92.7438 122.262C93.2466 122.763 93.0662 122.473 93.3979 123.23C92.6688 123.4 92.8548 123.385 92.5107 123.33C91.9761 123.278 91.4569 123.122 90.983 122.869C89.588 122.137 88.2748 121.436 86.8637 120.62C86.492 120.419 86.1507 120.167 85.85 119.87C85.8264 119.848 85.4439 119.474 85.4241 119.449C85.1922 119.034 85.225 119.187 85.2548 118.785V118.781C85.5958 118.565 85.447 118.606 85.9182 118.614Z" fill="black"/>
<path fill-rule="evenodd" clip-rule="evenodd" d="M85.8848 62.0252C85.7177 62.7602 85.316 63.421 84.7403 63.9075C83.61 64.9404 82.0675 65.876 80.4282 65.6708C80.0088 65.6301 79.6063 65.4846 79.2579 65.2477C78.9095 65.0107 78.6262 64.69 78.4343 64.3149C78.3599 64.1828 78.3778 64.2138 78.3723 64.2002C78.2811 63.737 78.2644 63.8902 78.42 63.5182L78.425 63.5132C78.8112 63.4177 78.6562 63.4121 79.107 63.5634C79.1553 63.5976 79.2054 63.6293 79.257 63.6583C79.4579 63.7763 79.6709 63.8721 79.8925 63.9441C80.36 64.164 80.8869 64.2235 81.3917 64.1134C81.8718 64.0019 82.3274 63.8033 82.7358 63.5275C83.2636 63.169 83.7561 62.761 84.2065 62.3092L84.9777 61.7512C85.338 61.4988 85.0534 61.6129 85.7837 61.4492L85.8848 62.0252Z" fill="black"/>
<path d="M87.9627 54.367C88.6198 54.367 89.1525 53.6212 89.1525 52.7011C89.1525 51.781 88.6198 51.0352 87.9627 51.0352C87.3056 51.0352 86.7729 51.781 86.7729 52.7011C86.7729 53.6212 87.3056 54.367 87.9627 54.367Z" fill="black"/>
<path d="M74.8744 55.0819C75.5314 55.0819 76.0641 54.336 76.0641 53.4159C76.0641 52.4959 75.5314 51.75 74.8744 51.75C74.2173 51.75 73.6846 52.4959 73.6846 53.4159C73.6846 54.336 74.2173 55.0819 74.8744 55.0819Z" fill="black"/>
<path fill-rule="evenodd" clip-rule="evenodd" d="M88.5049 49.0535C88.3789 48.9872 88.2455 48.9362 88.1074 48.9016C87.7152 48.8071 87.3033 48.8379 86.9295 48.9896C86.8447 49.02 86.7618 49.0556 86.6815 49.0962C86.5925 49.1481 86.5003 49.1942 86.4056 49.2345C86.1452 49.2965 86.1855 49.2965 85.9629 49.3418C85.6318 49.4124 86.0379 49.3951 85.1011 49.3728C85.1203 48.5891 85.0868 48.7304 85.1749 48.5668C85.2504 48.379 85.3623 48.2079 85.504 48.0633C85.6457 47.9188 85.8145 47.8035 86.0007 47.7242C86.129 47.6597 86.2608 47.6025 86.3956 47.5531C86.8244 47.3864 87.2823 47.3074 87.7421 47.3208C88.202 47.3342 88.6545 47.4398 89.0728 47.6312C89.2641 47.7146 89.4264 47.8529 89.539 48.0286C89.6609 48.1967 89.7474 48.3878 89.7932 48.5902C89.839 48.7927 89.8433 49.0024 89.8056 49.2066C89.3686 49.191 88.9336 49.1398 88.5049 49.0535Z" fill="black"/>
<path fill-rule="evenodd" clip-rule="evenodd" d="M101.834 52.7619C98.9355 50.6322 96.6105 53.5927 96.582 56.4057C92.6413 54.1737 92.5365 49.2999 93.0362 45.3164C91.1632 44.71 89.6758 43.3324 88.3744 41.9064C83.3202 46.5979 75.3575 46.8837 68.9802 46.7659C62.1763 46.6419 59.9208 38.6892 61.5005 33.1259C62.4454 29.7965 65.0246 27.3184 67.9355 25.627C73.3252 22.4936 81.8446 22.2598 86.5975 26.8013C88.8983 28.9992 89.7595 32.271 92.0535 34.4038C96.7078 38.74 106.826 37.6891 101.332 52.7" fill="black"/>
<path fill-rule="evenodd" clip-rule="evenodd" d="M76.952 22.5606C78.9372 22.5549 80.908 22.8971 82.7751 23.5718C85.4301 24.5095 87.6725 26.3482 89.1121 28.7681C91.2573 32.1874 91.5164 33.6276 95.092 35.58C98.5169 37.44 104.037 39.0954 103.466 46.1665C103.23 48.2504 102.718 50.2937 101.943 52.2425C102.159 52.3913 102.094 52.3268 102.312 52.692L102.229 53.0491V53.0541L101.914 53.2401L101.553 53.157C101.377 53.033 101.491 53.0851 101.196 53.0851C100.941 52.8439 100.976 52.8991 100.97 52.8117C100.579 52.6154 100.14 52.5321 99.7042 52.5711C99.2133 52.679 98.7593 52.9135 98.3873 53.2514C98.0153 53.5892 97.7383 54.0186 97.5838 54.4968C97.4978 54.7035 97.4256 54.9156 97.3674 55.1317C97.0791 56.2824 97.3327 56.4132 97.0574 56.8057C96.5973 57.2664 96.1627 56.9037 95.5694 56.4957C93.5686 55.0523 92.6827 53.0919 92.2784 50.6677C92.0543 49.0609 92.0382 47.432 92.2307 45.8212C91.5916 45.5558 90.9848 45.2184 90.4221 44.8155C89.6796 44.2579 88.9818 43.6431 88.3352 42.9766C83.0286 47.2775 75.9005 47.644 68.9745 47.5361C61.9753 47.3371 59.1884 39.6491 60.6119 33.5532C61.6573 28.282 68.0228 22.5606 76.952 22.5606ZM64.9606 28.848C63.0505 30.691 61.9237 33.1989 61.8141 35.8509C61.4799 40.5388 63.6741 45.4609 68.3582 45.9613C71.4479 46.1091 74.5446 45.9942 77.6148 45.6178C80.7818 45.1801 84.1756 44.2067 86.7437 42.2655C87.9694 41.3696 87.8343 41.1625 88.4071 41.1414C88.9651 41.2096 88.8281 41.3894 90.1109 42.5823C92.2189 44.5278 93.1489 44.3945 93.5922 44.8075C93.8805 45.1857 93.7782 45.3357 93.7162 45.9607C93.4732 48.3284 93.3826 51.0912 94.4466 53.2202C94.8386 54.0278 95.3993 54.742 96.0908 55.3146C96.2501 54.5433 96.5607 53.8112 97.0047 53.1607C97.3547 52.5794 97.872 52.1172 98.4889 51.8344C99.1057 51.5517 99.7935 51.4616 100.462 51.576C100.716 51.6295 100.963 51.7093 101.2 51.8141C101.244 51.7254 101.634 50.4085 101.843 49.5982C104.202 39.5139 98.0351 39.1413 93.1997 36.2223C89.7463 34.048 89.2937 31.5791 87.1814 28.6484C82.5314 22.2698 70.9281 22.8285 64.9606 28.848Z" fill="black"/>
<path fill-rule="evenodd" clip-rule="evenodd" d="M93.881 38.0133C93.5395 37.4723 93.2562 36.8966 93.0359 36.2959C91.7674 32.3111 90.8585 30.9794 90.4251 29.1981C90.3011 28.6916 90.3135 28.743 90.311 28.7282L90.3352 28.3394L90.5423 28.084H90.5466H90.8752C91.2758 28.3729 91.1294 28.2291 91.4847 28.7077C92.1047 29.5664 92.2857 29.8857 93.4265 32.7805C94.6771 36.0845 94.6535 36.3095 94.7285 37.2656C94.7285 38.128 94.8445 37.7479 94.4694 38.4808C93.8791 38.1032 93.992 38.203 93.881 38.0133Z" fill="white"/>
<path fill-rule="evenodd" clip-rule="evenodd" d="M37.3859 108.965C39.5032 108.851 45.1328 109.8 46.9842 109.022C49.112 108.125 52.8667 104.16 53.4284 101.816C53.8308 100.138 52.8084 97.0688 52.5648 95.3861C52.4767 94.7866 51.9448 89.6511 51.5728 89.2872C50.0668 87.8091 38.3048 90.1552 35.8161 90.622C35.4391 90.6933 33.6945 90.8223 33.4874 91.18C32.8823 92.2204 34.1632 95.5325 34.4825 96.5083C35.831 100.633 36.4752 104.994 37.6829 109.168" fill="black"/>
<path fill-rule="evenodd" clip-rule="evenodd" d="M51.308 88.2883C52.3565 88.674 52.4706 88.8904 52.8785 91.7486C53.5128 96.1028 52.9622 93.7034 53.8234 97.6621C54.3857 100.306 54.6226 101.572 53.5134 103.585C52.2225 105.864 49.6558 108.446 47.8782 109.403C47.1527 109.819 46.3277 110.028 45.4918 110.01C44.0473 110.021 42.6036 109.939 41.1698 109.762C37.8609 109.404 38.0822 109.477 37.9185 109.455C37.9142 109.455 37.7982 109.554 37.7945 109.557L37.4932 109.519L37.4312 109.448H37.4045L37.0567 109.314L36.8974 108.988V108.981C37.0431 108.59 36.9904 108.657 37.0778 108.615C36.0195 105.22 35.5898 103.073 34.6245 99.6195C33.5085 95.7135 32.093 92.691 32.6956 91.0597C32.917 90.4348 33.3832 90.2686 34.0472 90.113C34.7429 89.9828 35.6375 89.8731 35.6623 89.865C36.1032 89.7683 40.1263 89.015 42.8196 88.6182C44.7931 88.333 49.4139 87.6882 51.308 88.2883ZM46.7151 108.337C48.7846 107.301 52.0155 103.866 52.6528 101.745C53.0366 100.02 52.0502 97.3069 51.8171 95.5845C51.7377 95.1084 51.282 90.7485 50.9652 89.7993C50.0085 89.2252 43.426 90.0088 43.2028 90.1204C40.8654 90.4304 35.9091 91.3914 35.7132 91.4125C35.175 91.4666 34.6412 91.5573 34.1154 91.6841C33.9499 92.6339 34.7392 94.8901 35.0454 95.7916C36.3753 99.591 36.9594 104.338 37.9216 108.454C41.2516 108.453 45.0002 108.977 46.7151 108.337V108.337Z" fill="black"/>
<path fill-rule="evenodd" clip-rule="evenodd" d="M49.4758 102.58C48.7089 100.794 48.9011 100.83 47.919 95.5836C47.3579 92.5636 47.4521 93.2351 47.361 91.9548C47.3319 90.907 47.299 91.2182 47.4397 90.734L47.7063 90.5312H47.7113L48.0368 90.61C48.3356 90.9659 48.2631 90.8549 48.3561 91.0861C48.5793 91.6634 48.6072 91.7192 48.813 92.3447C48.9488 92.4811 50.2886 100.008 50.3692 100.529C50.4464 101.148 50.4671 101.774 50.4312 102.397C50.4188 102.882 50.4833 102.671 50.1144 103.337C49.5279 102.853 49.6618 103.026 49.4758 102.58Z" fill="white"/>
<path d="M44.4439 97.2954C45.2737 97.1316 45.775 96.1309 45.5637 95.0603C45.3524 93.9897 44.5084 93.2545 43.6787 93.4183C42.8489 93.5821 42.3476 94.5828 42.5589 95.6534C42.7702 96.724 43.6141 97.4592 44.4439 97.2954Z" fill="white"/>
<path fill-rule="evenodd" clip-rule="evenodd" d="M144.051 113.036C146.195 113.05 176.698 113.346 178.372 114.083L178.496 114.357V114.362C178.242 114.907 178.564 114.682 175.161 114.902C166.187 115.13 156.196 114.574 144.404 114.574C140.459 114.547 142.067 114.636 134.864 114.49C132.374 114.44 132.88 114.514 132.396 114.314L132.242 113.988V113.983L132.374 113.648L132.71 113.484C133.575 113.484 136.09 113.036 144.051 113.036Z" fill="black"/>
<path fill-rule="evenodd" clip-rule="evenodd" d="M7.48452 105.323C19.6545 105.426 18.2682 105.242 20.9894 105.645C22.3775 105.914 21.9907 105.777 22.4482 106.017L22.5685 106.276V106.281L22.4278 106.529C22.0911 106.671 22.2994 106.659 20.9522 106.788C18.1454 107.022 19.564 106.883 14.7292 106.883C10.6075 106.864 6.60722 106.894 6.34186 106.793C3.88108 106.545 4.05964 106.503 3.75026 106.341L3.61572 106.022V106.02L3.76638 105.71L4.11172 105.55C4.23014 105.547 6.41378 105.304 7.48452 105.323Z" fill="black"/>
<path fill-rule="evenodd" clip-rule="evenodd" d="M139.037 122.969C142.107 122.969 142.13 122.972 143.666 123.37C143.906 123.437 143.774 123.348 144.273 123.842C143.715 124.308 144.067 124.214 142.362 124.47C141.757 124.526 141.149 124.539 140.542 124.511C135.528 124.444 133.072 124.728 131.796 124.015L131.658 123.71V123.706L131.806 123.406C132.015 123.26 132.263 123.179 132.518 123.173C134.154 122.896 134.24 122.969 139.037 122.969Z" fill="black"/>
<path fill-rule="evenodd" clip-rule="evenodd" d="M169.624 123.802C174.968 123.802 175.075 123.893 176.903 124.256C177.309 124.448 177.205 124.352 177.381 124.664V124.668C177.199 124.974 177.306 124.88 176.893 125.063C176.778 125.063 176.677 125.125 175.561 125.277C173.97 125.482 174.566 125.339 169.184 125.339C165.503 125.339 165.629 125.499 163.492 125.315C162.682 125.246 162.908 125.296 162.473 125.111L162.309 124.814V124.806L162.428 124.487L162.756 124.29C162.849 124.29 163.194 124.155 164.524 123.954C164.524 123.831 168.594 123.802 169.624 123.802Z" fill="black"/>
<path fill-rule="evenodd" clip-rule="evenodd" d="M4.80758 113.498C5.1275 113.498 6.79158 113.684 6.88334 113.693C9.7465 113.99 9.81532 113.956 10.5345 114.276C11.0925 114.54 10.8879 114.395 11.4211 114.935C10.7931 115.361 11.0206 115.259 10.4204 115.409C9.55244 115.589 9.65908 115.524 5.577 115.099C5.19129 115.101 4.80737 115.046 4.43744 114.937C3.32144 114.581 3.62648 114.623 3.53968 114.623C3.15342 114.34 3.24828 114.463 3.1001 114.097V114.092C3.3109 113.76 3.19558 113.863 3.62524 113.654C4.01535 113.575 4.41038 113.523 4.80758 113.498Z" fill="black"/>
<path fill-rule="evenodd" clip-rule="evenodd" d="M93.2884 69.0002V69.0051C93.3089 69.3579 93.3424 69.229 93.1217 69.5631C92.6123 70.0032 92.068 70.4011 91.4942 70.7529C91.3137 70.8552 91.2976 70.867 91.0602 71.0053C88.1982 72.4666 82.3231 73.8461 78.7501 73.228C77.6638 73.019 77.8579 73.0872 77.4481 72.8349L77.334 72.5112V72.5069C77.626 71.9886 77.334 72.1219 80.1134 71.8999C80.3776 71.8751 80.9405 71.864 81.6554 71.8187C83.7723 71.6778 85.8635 71.2742 87.8808 70.6171C89.8164 69.9717 89.2907 70.0734 90.4507 69.6537C90.579 69.609 92.4862 68.9543 92.7205 68.8656C93.1297 68.8644 92.9381 68.7708 93.2884 69.0002Z" fill="black"/>
<path fill-rule="evenodd" clip-rule="evenodd" d="M157.349 69.6547C157.066 69.1509 156.754 68.6638 156.414 68.1958C153.953 64.7238 149.945 62.4918 146.094 64.3382C144.804 64.99 143.654 65.8881 142.71 66.9818C141.21 68.8284 140.414 71.1476 140.465 73.5259C140.497 75.0393 140.682 76.5456 141.018 78.0216C142.372 77.396 147.606 74.2396 147.945 74.1261C147.95 74.0387 148.051 70.4681 148.212 70.4681C148.256 70.3744 148.32 70.2915 148.4 70.2251C148.48 70.1586 148.573 70.1102 148.673 70.0831C150.199 69.7191 151.166 69.5145 153.078 69.1047C155.5 68.5858 154.873 68.6261 155.434 68.7098L155.66 68.9906V68.9956L155.612 69.3546L155.325 69.5927C154.638 69.8146 154.501 69.8543 153.557 70.1426C149.162 71.4657 149.548 71.2295 149.54 71.4179C149.4 74.7659 149.693 74.9265 148.928 75.337C146.497 76.6433 143.903 78.2987 141.09 79.7061C140.686 79.9045 140.512 80.0111 140.098 79.8134C139.756 79.5753 139.749 79.5337 139.424 77.9118C138.308 72.4744 138.934 67.7934 143.303 64.2979C148.593 60.1029 154.381 62.3033 157.569 68.2553C158.154 69.3856 158.065 69.2802 158.081 69.602C158.081 69.6063 157.892 69.8314 157.888 69.8351C157.497 69.8351 157.695 69.9361 157.349 69.6547Z" fill="black"/>
<path fill-rule="evenodd" clip-rule="evenodd" d="M172.435 68.5281C174.497 69.044 174.381 68.9578 174.538 70.111C175.121 75.0307 174.311 79.101 172.898 81.9257C172.093 83.6346 171.002 85.1942 169.674 86.5379C165.169 91.0434 157.181 91.2939 152.272 87.2323C148.033 83.725 147.898 78.5523 148.136 73.1757C148.195 71.8408 148.136 72.1688 148.341 71.7168L148.676 71.5792H148.681C149.369 71.8836 149.037 71.3789 149.314 76.6334C149.404 78.3609 149.73 80.0679 150.283 81.7069C150.597 82.5988 151.029 83.4447 151.568 84.2222C155.003 89.1066 162.536 89.8952 167.345 86.5094C169.849 84.6804 171.714 81.5531 172.523 78.5467C173.236 75.8447 173.402 73.0276 173.013 70.2604C168.653 69.1232 164.155 68.6058 159.651 68.7235C158.798 68.7414 159.069 68.7854 158.666 68.6397C158.661 68.6298 158.529 68.38 158.526 68.3688L158.626 68.0855L158.902 67.9404C163.449 67.4661 167.91 67.4202 172.435 68.5281Z" fill="black"/>
<path fill-rule="evenodd" clip-rule="evenodd" d="M171.163 70.3141L171.356 70.528C171.356 70.5354 171.312 70.8113 171.311 70.8187L171.066 71.0376C169.964 71.5311 168.824 71.933 167.656 72.2392C164.921 72.7731 162.146 73.0749 159.36 73.1413C153.24 73.3186 151.712 72.7476 150.432 72.5653L150.107 72.3725L149.99 72.0439V72.0395L150.161 71.7295L150.514 71.5937C150.514 71.5937 152.643 71.5485 153.402 71.5485C154.93 71.5485 157.117 71.7388 160.684 71.5485C162.978 71.4246 165.261 71.1504 167.519 70.7276C167.968 70.6526 169.97 70.4027 170.833 70.2607C170.872 70.2638 170.722 70.2465 171.163 70.3141Z" fill="black"/>
<path fill-rule="evenodd" clip-rule="evenodd" d="M170.63 77.422C168.584 77.1195 166.797 78.6211 164.772 78.7023C162.554 78.7904 160.462 78.0334 158.268 77.9168C156.136 77.8027 153.982 78.2045 151.855 78.3142C152.278 80.0632 153.047 82.0838 154.382 83.3542C160.003 88.6992 169.448 85.1317 170.219 77.422" fill="#FE573F"/>
<path fill-rule="evenodd" clip-rule="evenodd" d="M160.926 89.0942L161.121 89.4228L161.128 89.4463C161.486 90.9167 161.654 92.4265 161.63 93.9395C161.932 103.58 161.171 103.372 161.171 103.983C160.968 104.346 161.068 104.256 160.748 104.402H160.743L160.5 104.259L160.367 103.941C159.874 100.035 160.331 101.353 160.091 93.7653C159.982 92.3496 160.003 90.927 160.153 89.5152C160.153 89.5071 160.153 89.4953 160.153 89.4885L160.302 89.1363L160.607 88.9727L160.926 89.0942Z" fill="black"/>
<path fill-rule="evenodd" clip-rule="evenodd" d="M163.701 89.2439L163.834 89.5911C163.834 94.0718 164.156 98.4521 164.61 103.191C164.804 103.191 165.173 103.177 165.757 103.198C168.175 103.288 171.847 103.921 173.191 105.935C174.411 107.919 172.195 109.785 169.905 110.137C168.567 110.327 167.22 110.448 165.869 110.499C162.386 110.616 158.899 110.497 155.432 110.142C154.485 110.059 153.558 109.831 152.681 109.464C150.491 108.425 150.263 106.389 152.605 105.09C154.713 103.918 157.056 104.076 159.425 103.85C159.624 103.792 159.837 103.808 160.025 103.895L160.189 104.143V104.15L160.115 104.44C159.839 104.626 160.023 104.609 158.621 104.838C156.578 105.163 155.446 105.259 153.935 105.93C153.335 106.188 152.822 106.614 152.457 107.156V107.165L152.453 107.172V107.182C152.449 107.19 152.446 107.199 152.443 107.208V107.215V107.22V107.225V107.231V107.241V107.246V107.267V107.277V107.284V107.289C152.449 107.299 152.455 107.309 152.46 107.319C152.532 107.608 153.042 107.985 153.828 108.249C156.177 109.034 167.151 109.279 170.01 108.528C170.373 108.433 170.722 108.294 171.051 108.114C171.394 107.944 171.688 107.688 171.903 107.37L171.907 107.358L171.914 107.349C171.92 107.337 171.914 107.349 171.952 107.27V107.261L171.957 107.254V107.244L171.961 107.234C171.966 107.218 171.978 107.177 171.983 107.159V107.151L171.988 107.135V107.12V107.114V107.104V107.097V107.023V107.016V107.001V106.992V106.985V106.978V106.968C171.976 106.905 171.952 106.845 171.919 106.79L171.914 106.777C171.332 106.004 170.533 105.688 169.491 105.309C168.337 104.963 167.143 104.766 165.939 104.722C163.816 104.637 163.937 104.875 163.464 104.593C163.117 104.296 163.159 104.381 162.921 101.561C162.674 98.8473 162.581 96.1213 162.643 93.3966C162.779 89.1986 162.785 88.7956 163.701 89.2439Z" fill="black"/>
<path fill-rule="evenodd" clip-rule="evenodd" d="M153.927 75.0948C154.058 75.5348 154.166 75.9812 154.251 76.4321C154.286 76.9485 154.35 77.4625 154.444 77.9716C154.64 79.0221 155.014 80.0314 155.55 80.9556C155.573 81.0244 155.591 81.0654 155.619 81.1342C155.632 81.1664 155.877 81.8695 155.9 81.9265C155.962 82.0933 155.95 81.9439 155.919 82.6333C155.248 82.5676 155.376 82.6005 155.217 82.505C154.635 82.1953 154.17 81.7039 153.894 81.1057C153.805 80.9358 153.752 80.8304 153.615 80.5204C153.445 80.1282 153.301 79.7251 153.185 79.3139C152.936 78.4072 152.779 77.4776 152.718 76.5394C152.738 76.0517 152.817 75.5682 152.954 75.0997C153.197 74.688 153.083 74.7941 153.437 74.6143H153.442C153.798 74.7916 153.684 74.6862 153.927 75.0948Z" fill="white"/>
<path fill-rule="evenodd" clip-rule="evenodd" d="M149.779 65.4517C150.813 65.474 151.82 65.7847 152.687 66.3489C153.059 66.587 152.927 66.4685 153.189 66.7916L153.199 67.0724C152.473 67.3396 152.889 67.2876 151.859 67.1226C150.948 67.0021 150.028 66.9662 149.11 67.0154C148.033 67.1209 147.007 67.5303 146.154 68.1959C145.3 68.8615 144.652 69.7559 144.287 70.7751C143.926 71.8611 143.717 72.992 143.667 74.1355L143.535 74.4969C143.529 74.5013 143.25 74.6742 143.243 74.678L142.915 74.5732L142.703 74.257C142.618 73.9348 142.551 73.6082 142.503 73.2786C142.315 71.9316 142.573 70.5601 143.236 69.3726C143.856 68.177 144.797 67.1772 145.952 66.4848C147.107 65.7925 148.432 65.4348 149.779 65.4517Z" fill="black"/>
<path fill-rule="evenodd" clip-rule="evenodd" d="M145.711 70.0873C146.252 70.5548 146.403 70.6242 146.491 70.8158C146.525 70.9398 146.512 70.8927 146.553 71.0155V71.0229L146.596 71.261C146.038 72.0155 146.159 71.9064 145.993 71.9225C145.876 71.9358 145.758 71.9358 145.641 71.9225C145.432 71.8779 145.53 71.9374 144.72 71.2635C144.662 71.1754 143.921 70.6435 143.921 70.5064C143.789 70.157 143.726 69.7854 143.735 69.4121C144.981 69.303 144.787 69.2937 145.711 70.0873Z" fill="black"/>
<path fill-rule="evenodd" clip-rule="evenodd" d="M150.268 66.8975C150.359 67.0215 150.301 66.9236 150.382 67.6614C150.427 68.171 150.444 68.0402 150.413 68.1443L150.377 68.2014C150.3 68.2952 150.213 68.3807 150.118 68.4562C149.204 68.5951 149.361 68.6323 148.997 68.3892L148.945 68.339L148.911 68.2894C148.911 68.1654 148.772 67.1976 148.811 67.0587L148.84 67.0066C148.901 66.9204 148.972 66.8406 149.049 66.7686H149.054L150.025 66.6973C150.111 66.7803 150.04 66.6768 150.268 66.8975Z" fill="black"/>
<path fill-rule="evenodd" clip-rule="evenodd" d="M181.998 56.7035C182.633 56.8511 182.5 56.8089 182.815 57.0135L182.9 57.2919V57.2969C182.601 57.76 183.148 57.6069 178.188 57.6069C177.069 57.5562 175.947 57.6376 174.847 57.8493C174.287 57.967 173.746 58.1625 173.24 58.4302C172.765 58.6878 172.34 59.0279 171.984 59.4346C170.219 61.4186 169.835 65.2955 169.183 68.4965C168.682 70.9145 168.764 70.5357 168.524 70.9071L168.186 71.0069H168.181L167.879 70.8209C167.734 70.3733 167.742 70.6901 167.812 69.3621C167.856 67.8016 168.032 66.2477 168.338 64.717C168.539 64.3165 168.914 59.013 172.508 57.0786C172.67 57.0799 175.331 55.0673 181.998 56.7035Z" fill="black"/>
<path fill-rule="evenodd" clip-rule="evenodd" d="M73.3951 25.5442C73.6896 25.5771 73.6028 25.561 73.9599 25.7575L74.0839 26.0855V26.0905L73.9252 26.4005L73.5743 26.5462V26.5493H73.5433H73.5327C72.5483 26.6063 71.5794 26.8206 70.6627 27.1841H70.6578C69.9417 27.4475 69.2603 27.7969 68.6285 28.2245C67.5069 29.0142 66.5767 30.0456 65.9067 31.2427C65.2439 32.4046 64.8236 33.6889 64.6711 35.0178C64.5291 36.8103 64.7877 38.612 65.4281 40.2922C65.7784 41.1658 65.6872 40.7082 65.7585 41.2495L65.6104 41.4937C65.606 41.4937 65.3283 41.5402 65.3239 41.5409L65.0511 41.3821C64.0037 40.2201 63.3389 38.764 63.1471 37.2114C62.5011 30.2042 68.1821 24.6806 73.3951 25.5442Z" fill="white"/>
</svg>
