<?xml version="1.0" encoding="utf-8"?><svg xmlns="http://www.w3.org/2000/svg" xmlns:xlink="http://www.w3.org/1999/xlink"><symbol viewBox="0 0 200 200" id="arrow-left"><path d="M13.97 103.942c.013.05.074.102.1.152.598 1.423 1.42 2.782 2.565 3.954.013.01.026.01.038.025.013.01.013.025.025.038l61.86 62.7c4.858 4.91 12.73 4.95 17.613.028 4.873-4.91 4.884-12.88.025-17.804l-40.22-40.77h118.748c6.878 0 12.458-5.64 12.458-12.59s-5.58-12.59-12.457-12.59H55.313L96.62 45.786c4.896-4.897 4.933-12.855.1-17.804a12.332 12.332 0 0 0-8.857-3.738 12.388 12.388 0 0 0-8.756 3.64l-62.385 62.36c-3.673 3.69-4.607 9.128-2.752 13.698zm0 0z"/></symbol><symbol viewBox="0 0 200 200" id="arrow-right"><path d="M186.254 94.814c-.013-.05-.074-.102-.1-.152-.598-1.423-1.42-2.782-2.566-3.954-.012-.01-.026-.01-.037-.025-.012-.01-.012-.025-.024-.038l-61.86-62.7c-4.858-4.91-12.73-4.95-17.613-.027-4.872 4.91-4.884 12.88-.025 17.803l40.22 40.77H25.5c-6.877 0-12.457 5.64-12.457 12.59s5.58 12.59 12.457 12.59h119.41l-41.307 41.3c-4.896 4.897-4.932 12.854-.1 17.803a12.33 12.33 0 0 0 8.858 3.74c3.165 0 6.327-1.223 8.757-3.64l62.385-62.362c3.673-3.687 4.607-9.126 2.752-13.696zm0 0z"/></symbol><symbol viewBox="0 0 200 200" id="back"><path d="M96.28 12.504L12.475 73.812 96.28 135.12V97.652s10.872-.01 28.67-.01c48.965 0 62.434 39.8 62.434 39.8s-.377-87.458-62.457-87.458c-12.954 0-28.647-.008-28.647-.008V12.504z"/></symbol><symbol viewBox="0 0 30 24" id="book"><path d="M5.495 4c-1.375 0-1.375-2 0-2H22V0H5a3 3 0 0 0-3 3v18a3 3 0 0 0 3 3h17V4H5.495z"/></symbol><symbol viewBox="0 0 200 200" id="check"><path d="M186.496 63.17q0 4.464-3.125 7.59l-80.803 80.802-15.18 15.18q-3.124 3.124-7.588 3.124t-7.59-3.125l-15.18-15.178-40.4-40.4q-3.126-3.126-3.126-7.59t3.125-7.59l15.178-15.178q3.125-3.125 7.59-3.125t7.59 3.124l32.81 32.924 73.215-73.326q3.125-3.125 7.59-3.125t7.59 3.125L183.37 55.58q3.126 3.125 3.126 7.59z"/></symbol><symbol viewBox="0 0 12 12" fill="none" id="close"><path d="M.1.205L.147.148c.18-.18.462-.196.66-.05l.057.05L6 5.283 11.135.148a.507.507 0 1 1 .717.717L6.716 6l5.136 5.135c.18.18.196.46.05.66l-.05.057a.507.507 0 0 1-.66.05l-.057-.05L6 6.716.865 11.852a.507.507 0 1 1-.717-.717L5.283 6 .148.865a.507.507 0 0 1-.05-.66L.15.148l-.05.057z" fill="#BBB" fill-opacity=".8"/></symbol><symbol viewBox="0 0 200 200" id="cog"><path d="M175.04 111.04c0 1.467-1.17 3.226-2.735 3.52l-18.076 2.735c-1.076 3.126-2.248 6.058-3.81 8.89 3.32 4.79 6.838 9.088 10.453 13.485.586.684.977 1.564.977 2.443 0 .88-.293 1.563-.88 2.247-2.344 3.127-15.535 17.49-18.857 17.49-.88 0-1.76-.39-2.54-.88l-13.485-10.552a58.942 58.942 0 0 1-8.89 3.713c-.685 5.96-1.27 12.313-2.835 18.175a3.58 3.58 0 0 1-3.517 2.736H89.154c-1.758 0-3.322-1.27-3.517-2.93L82.9 154.13c-3.03-.977-5.96-2.15-8.794-3.615L60.33 160.97a3.753 3.753 0 0 1-2.443.88c-.88 0-1.76-.39-2.443-1.074-5.178-4.69-12.018-10.748-16.122-16.416-.488-.684-.684-1.465-.684-2.247 0-.88.293-1.563.782-2.247 3.322-4.495 6.937-8.794 10.26-13.387-1.66-3.127-3.03-6.35-4.007-9.674l-17.88-2.638c-1.66-.293-2.834-1.857-2.834-3.518V88.96c0-1.466 1.17-3.225 2.637-3.518l18.174-2.736c.978-3.126 2.248-6.058 3.81-8.99-3.32-4.69-6.838-9.086-10.453-13.483-.586-.684-.977-1.466-.977-2.345 0-.88.39-1.563.88-2.247 2.344-3.224 15.535-17.49 18.857-17.49.88 0 1.76.39 2.54.978l13.485 10.455a58.936 58.936 0 0 1 8.89-3.713c.685-5.96 1.27-12.312 2.835-18.174a3.58 3.58 0 0 1 3.517-2.736h21.692c1.758 0 3.322 1.27 3.517 2.93l2.736 17.98c3.03.977 5.96 2.15 8.793 3.615l13.875-10.455c.586-.586 1.466-.88 2.345-.88.88 0 1.76.39 2.443.978 5.178 4.787 12.018 10.845 16.122 16.61.488.586.684 1.368.684 2.15 0 .88-.293 1.563-.782 2.247-3.322 4.495-6.937 8.794-10.26 13.387 1.662 3.126 3.03 6.35 4.007 9.575l17.88 2.736c1.662.293 2.834 1.856 2.834 3.517v21.692zM100 74.987c-13.777 0-25.014 11.237-25.014 25.014S86.223 125.014 100 125.014s25.014-11.237 25.014-25.014S113.777 74.986 100 74.986z"/></symbol><symbol viewBox="0 0 96 96" id="icon"><path d="M87.17 17.8L48 0 8.83 17.81 4 20v56l40 18.18L48 96l4-1.82L92 76V20zM48 8.79L77.5 22.2 48 35.61 18.49 22.2zM12 70.85l32.435 14.867L44 42.57v42.82zm72 0L52 85.39V42.57l32-14.54z"/></symbol><symbol viewBox="0 0 200 200" id="question"><path d="M100 22.15c-42.928 0-77.852 34.925-77.852 77.854 0 42.924 34.924 77.846 77.852 77.846s77.852-34.922 77.852-77.846c0-42.93-34.924-77.854-77.852-77.854zm7.855 134.704H92.22V141.22h15.635v15.634zM132.64 87.15c-2.287 4.118-6.762 9.126-13.422 15.024-4.474 3.965-7.397 6.89-8.77 8.77-1.373 1.88-2.39 4.042-3.05 6.482-.662 2.44-1.043 6.406-1.144 11.897H93.06c-.05-1.83-.076-3.203-.076-4.118 0-5.388.762-10.04 2.288-13.956 1.117-2.95 2.923-5.923 5.414-8.924 1.83-2.185 5.122-5.377 9.876-9.57 4.754-4.195 7.842-7.538 9.266-10.03 1.423-2.49 2.136-5.21 2.136-8.16 0-5.338-2.086-10.03-6.254-14.07-4.17-4.043-9.28-6.063-15.33-6.063-5.846 0-10.727 1.83-14.642 5.49-3.915 3.66-6.482 9.38-7.702 17.16l-14.11-1.678C65.197 64.983 68.973 57 75.253 51.458c6.28-5.54 14.58-8.312 24.9-8.312 10.93 0 19.65 2.974 26.16 8.922 6.506 5.95 9.76 13.144 9.76 21.583 0 4.88-1.143 9.38-3.43 13.5z"/></symbol><symbol viewBox="0 0 200 200" id="refresh"><path d="M182.924 117.857q0 .558-.112.78-7.142 29.912-29.91 48.495t-53.348 18.582q-16.295 0-31.53-6.138t-27.176-17.522L26.45 176.45q-2.12 2.12-5.02 2.12t-5.024-2.12-2.12-5.022v-50q0-2.902 2.12-5.023t5.023-2.12h50q2.9 0 5.02 2.12t2.12 5.023-2.12 5.022l-15.29 15.29q7.925 7.366 17.97 11.384t20.87 4.02q14.955 0 27.902-7.256t20.76-19.977q1.226-1.897 5.914-13.057.893-2.567 3.348-2.567h21.43q1.45 0 2.51 1.06t1.06 2.51zm2.79-89.286v50q0 2.903-2.12 5.024t-5.023 2.12h-50q-2.9 0-5.02-2.12t-2.12-5.023 2.12-5.02l15.4-15.403q-16.517-15.29-38.95-15.29-14.955 0-27.902 7.255T51.34 70.09q-1.227 1.897-5.915 13.057-.893 2.567-3.348 2.567h-22.21q-1.45 0-2.51-1.06t-1.06-2.51v-.782q7.253-29.91 30.133-48.494T100 14.286q16.295 0 31.696 6.194t27.344 17.466l14.51-14.397q2.12-2.12 5.02-2.12t5.024 2.12 2.12 5.02z"/></symbol><symbol viewBox="0 0 200 200" id="remove"><path d="M166.295 147.545q0 4.464-3.125 7.59l-15.18 15.178q-3.124 3.125-7.59 3.125t-7.588-3.125L100 137.5l-32.813 32.813q-3.125 3.125-7.59 3.125t-7.59-3.125l-15.177-15.18q-3.125-3.124-3.125-7.588t3.125-7.59l32.813-32.812L36.83 74.33q-3.125-3.125-3.125-7.59t3.125-7.59l15.18-15.176q3.125-3.125 7.59-3.125t7.588 3.124L100 76.786l32.812-32.813q3.125-3.125 7.59-3.125t7.59 3.125l15.178 15.18q3.125 3.124 3.125 7.59t-3.125 7.587l-32.813 32.813 32.813 32.812q3.125 3.125 3.125 7.59z"/></symbol><symbol viewBox="0 0 200.1953125 200" id="right-hand"><path d="M28.57 150q0-2.9-2.12-5.02t-5.02-2.123-5.023 2.122-2.12 5.02 2.12 5.02 5.022 2.123 5.02-2.122 2.12-5.02zm157.144-64.286q0-5.693-4.35-9.985t-9.935-4.3h-64.287q0-2.237 1.67-5.416t3.687-6.135 3.686-7.587 1.67-9.43q0-7.477-4.963-10.877T100 28.58q-2.68 0-10.043 15.513-2.678 4.914-4.128 7.257-4.466 7.143-12.5 16.186-7.923 9.043-11.273 11.828-7.7 6.365-15.628 6.365h-3.573v71.427h3.572q8.034 0 18.634 3.572t21.593 7.14 20.036 3.573q21.093 0 21.093-18.636 0-2.9-.557-6.25 3.35-1.786 5.3-5.857t1.95-8.2-2.01-7.7q5.916-5.58 5.916-13.28 0-2.79-1.115-6.19t-2.79-5.3h36.94q5.8 0 10.044-4.244t4.243-10.043zM200 85.6q0 11.72-8.43 20.2t-20.14 8.486h-18.866q-.45 6.92-4.128 13.278.335 2.343.335 4.8 0 11.272-6.7 19.865.116 15.513-9.484 24.5t-25.336 8.984q-14.843 0-35.936-7.7-18.3-6.585-24.885-6.585H14.285q-5.915 0-10.1-4.187T0 157.143v-71.43q0-5.913 4.186-10.1t10.1-4.184H46.43q1.113 0 2.4-.5t2.62-1.566 2.514-2.007 2.68-2.514 2.285-2.4 2.12-2.4 1.564-1.9q7.257-8.257 11.165-14.4 1.45-2.343 3.684-6.922t4.13-8.034 4.52-7.03 6.136-5.52 7.757-1.95q13.95 0 23.05 7.478t9.093 21.093q0 7.586-2.457 14.286h41.743q11.607 0 20.085 8.486t8.487 19.977z"/></symbol><symbol viewBox="0 0 200 200" id="search"><path d="M195.138 171.55l-47.85-47.863c-.55-.562-1.175-.974-1.763-1.437 8.088-12.412 12.8-27.187 12.8-43.1 0-43.725-35.437-79.175-79.162-79.175C35.45-.012 0 35.438 0 79.163s35.463 79.162 79.163 79.162c15.912 0 30.7-4.725 43.125-12.812.45.587.875 1.187 1.412 1.75l47.863 47.875a16.65 16.65 0 0 0 11.787 4.875 16.65 16.65 0 0 0 11.788-4.875c6.487-6.513 6.487-17.075 0-23.588M79.163 133.325C49.3 133.325 25 109.025 25 79.163s24.313-54.175 54.163-54.175c29.862 0 54.162 24.312 54.162 54.175s-24.3 54.162-54.162 54.162"/></symbol></svg>