<svg width="24" height="24" viewBox="0 0 24 24" fill="none" xmlns="http://www.w3.org/2000/svg">
<g clip-path="url(#clip0)">
<path d="M12.001 24C18.6281 24 24.0005 18.6276 24.0005 12.0005C24.0005 5.37333 18.6281 0.000976562 12.001 0.000976562C5.37382 0.000976562 0.00146484 5.37333 0.00146484 12.0005C0.00146484 18.6276 5.37382 24 12.001 24Z" fill="white"/>
<path d="M23.3135 7.99902H15.9199C16.2409 10.5624 16.243 13.3869 15.926 15.9535H23.3293C23.7613 14.7153 23.999 13.3856 23.999 12.0002C23.9992 10.5965 23.7561 9.25045 23.3135 7.99902Z" fill="#F3F4F5"/>
<path d="M15.9202 7.99958H23.3137C23.3124 7.99578 23.3112 7.99258 23.3099 7.98914C21.774 3.65872 17.8236 0.472723 13.0771 0.0498047C14.9141 1.05666 15.4505 4.24666 15.9202 7.99958Z" fill="#75ABDC"/>
<path d="M13.0776 23.9499C17.8326 23.5262 21.7887 20.3292 23.3185 15.9872C23.3225 15.9757 23.3259 15.9643 23.33 15.9531H15.9265C15.4606 19.7263 14.922 22.9389 13.0776 23.9499Z" fill="#75ABDC"/>
<path d="M0 12.0001C0 13.3858 0.237781 14.7153 0.669769 15.9535H16.5444C16.8614 13.3867 16.8593 10.5624 16.5384 7.99902H0.685729C0.243101 9.2505 0 10.5965 0 12.0001Z" fill="#F3F4F5"/>
<path d="M0.689347 7.98858C0.68803 7.99198 0.686864 7.99522 0.685547 7.99902H16.5382C16.0685 4.24611 14.9142 1.05616 13.0775 0.0492991C12.7222 0.0178348 12.363 0 11.9996 0C6.77943 0 2.34003 3.334 0.689347 7.98858Z" fill="#75ABDC"/>
<path d="M16.5446 15.9531H0.669922C0.673925 15.9643 0.677522 15.9757 0.681474 15.9872C2.32572 20.6538 6.77115 23.9995 11.9998 23.9995C12.3633 23.9995 12.7225 23.9816 13.0777 23.9498C14.9223 22.9389 16.0787 19.7263 16.5446 15.9531Z" fill="#75ABDC"/>
</g>
<defs>
<clipPath id="clip0">
<rect width="24" height="24" fill="white"/>
</clipPath>
</defs>
</svg>
