<svg width="24" height="24" viewBox="0 0 24 24" fill="none" xmlns="http://www.w3.org/2000/svg">
<mask id="mask0" mask-type="alpha" maskUnits="userSpaceOnUse" x="0" y="0" width="24" height="24">
<path fill-rule="evenodd" clip-rule="evenodd" d="M0 0V24H24V0H0Z" fill="white"/>
</mask>
<g mask="url(#mask0)">
<path fill-rule="evenodd" clip-rule="evenodd" d="M24.0006 12C24.0006 18.6272 18.627 24 11.9988 24C5.37035 24 -0.00292969 18.6272 -0.00292969 12C-0.00292969 12.0028 11.9988 0.00134765 11.9988 0C18.627 0 24.0006 5.37249 24.0006 12Z" fill="#0052B4"/>
<path fill-rule="evenodd" clip-rule="evenodd" d="M11.9658 12.2816H12.2787V11.9688C12.1735 12.0717 12.0688 12.1764 11.9658 12.2816Z" fill="#F3F3F3"/>
<path fill-rule="evenodd" clip-rule="evenodd" d="M11.9988 6.26083V0H11.9968C5.36924 0.00117187 -0.00292969 5.3732 -0.00292969 12H6.25882V8.47431L9.78496 12H11.9668C11.9776 11.9892 11.988 11.9785 11.9988 11.9679V9.78646L8.47263 6.26083H11.9988Z" fill="#F3F3F3"/>
</g>
<path fill-rule="evenodd" clip-rule="evenodd" d="M6.06911 1.56445C4.19203 2.63332 2.63152 4.1936 1.5625 6.07041V11.9994H4.69361V4.6951H11.9989V1.56445H6.06911Z" fill="#D80027"/>
<path fill-rule="evenodd" clip-rule="evenodd" d="M11.9978 10.5249L7.73382 6.2618H6.25781C6.25781 6.26162 6.25781 6.2618 6.25781 6.2618L11.9978 12.0008V10.5249Z" fill="#D80027"/>
<path fill-rule="evenodd" clip-rule="evenodd" d="M7.23483 14.0869L7.89364 15.4641L9.3809 15.1203L8.71477 16.4938L9.91107 17.4421L8.42176 17.7778L8.42586 19.3043L7.23483 18.3494L6.04375 19.3043L6.04814 17.7778L4.55859 17.4421L5.7549 16.4938L5.08877 15.1203L6.5762 15.4641L7.23483 14.0869Z" fill="#F3F3F3"/>
<path fill-rule="evenodd" clip-rule="evenodd" d="M17.9652 16.6953L18.2944 17.384L19.0381 17.2122L18.705 17.8988L19.3032 18.373L18.5585 18.5408L18.5606 19.3041L17.9652 18.8266L17.3696 19.3041L17.3716 18.5408L16.627 18.373L17.2251 17.8988L16.892 17.2122L17.6358 17.384L17.9652 16.6953Z" fill="#F3F3F3"/>
<path fill-rule="evenodd" clip-rule="evenodd" d="M15.3382 9L15.6674 9.68871L16.4111 9.51685L16.0781 10.2035L16.6762 10.6777L15.9316 10.8455L15.9336 11.6088L15.3382 11.1313L14.7426 11.6088L14.7447 10.8455L14 10.6777L14.5982 10.2035L14.2651 9.51685L15.0088 9.68871L15.3382 9Z" fill="#F3F3F3"/>
<path fill-rule="evenodd" clip-rule="evenodd" d="M17.9652 5.2168L18.2944 5.9055L19.0381 5.73359L18.705 6.42025L19.3032 6.8945L18.5585 7.06226L18.5606 7.82555L17.9652 7.3479L17.3696 7.82555L17.3716 7.06226L16.627 6.8945L17.2251 6.42025L16.892 5.73359L17.6358 5.9055L17.9652 5.2168Z" fill="#F3F3F3"/>
<path fill-rule="evenodd" clip-rule="evenodd" d="M20.6407 8.34766L20.9701 9.03636L21.7139 8.86445L21.3808 9.55111L21.979 10.0254L21.2343 10.1931L21.2364 10.9564L20.6407 10.479L20.0453 10.9564L20.0474 10.1931L19.3027 10.0254L19.9009 9.55111L19.5678 8.86445L20.3113 9.03636L20.6407 8.34766Z" fill="#F3F3F3"/>
<path fill-rule="evenodd" clip-rule="evenodd" d="M18.7283 12L18.9872 12.7972H19.8257L19.1474 13.2897L19.4066 14.0869L18.7283 13.5942L18.05 14.0869L18.3091 13.2897L17.6309 12.7972H18.4692L18.7283 12Z" fill="#F3F3F3"/>
</svg>
