<svg width="24" height="24" viewBox="0 0 24 24" fill="none" xmlns="http://www.w3.org/2000/svg">
<path d="M12 24C18.6274 24 24 18.6274 24 12C24 5.37258 18.6274 0 12 0C5.37258 0 0 5.37258 0 12C0 18.6274 5.37258 24 12 24Z" fill="#6DA544"/>
<path d="M12.0004 4.69629L21.9135 12.0006L12.0004 19.305L2.0874 12.0006L12.0004 4.69629Z" fill="#FFDA44"/>
<path d="M12.0001 16.174C14.3052 16.174 16.174 14.3052 16.174 12.0001C16.174 9.69489 14.3052 7.82617 12.0001 7.82617C9.69489 7.82617 7.82617 9.69489 7.82617 12.0001C7.82617 14.3052 9.69489 16.174 12.0001 16.174Z" fill="#F0F0F0"/>
<path d="M9.91373 11.7393C9.18792 11.7393 8.48747 11.8496 7.82812 12.0545C7.85733 14.3345 9.71376 16.1741 12.0007 16.1741C13.4148 16.1741 14.6638 15.4701 15.4188 14.3943C14.127 12.7773 12.1395 11.7393 9.91373 11.7393Z" fill="#0052B4"/>
<path d="M16.0976 12.7998C16.1479 12.5408 16.175 12.2737 16.175 12.0001C16.175 9.69484 14.3063 7.82617 12.0011 7.82617C10.2811 7.82617 8.80453 8.86684 8.16553 10.3527C8.73037 10.2356 9.31518 10.174 9.91419 10.174C12.3384 10.174 14.5315 11.1817 16.0976 12.7998Z" fill="#0052B4"/>
</svg>
