<svg width="24" height="24" viewBox="0 0 24 24" fill="none" xmlns="http://www.w3.org/2000/svg">
<g clip-path="url(#clip0)">
<path d="M12.0009 23.9999C18.6281 23.9999 24.0004 18.6276 24.0004 12.0004C24.0004 5.37332 18.6281 0.000976562 12.0009 0.000976562C5.37381 0.000976562 0.00146484 5.37332 0.00146484 12.0004C0.00146484 18.6276 5.37381 23.9999 12.0009 23.9999Z" fill="white"/>
<path d="M0 11.9998C0 16.5102 2.48988 20.4374 6.16866 22.4873V1.51172C2.48988 3.56181 0 7.4888 0 11.9998Z" fill="#D32027"/>
<path d="M11.9992 24.0002C11.8611 24.0002 11.7282 23.9954 11.5928 23.9932C11.7274 23.9977 11.8628 24.0002 11.9992 24.0002Z" fill="white"/>
<path d="M12.001 0C11.9972 0 11.994 0.000202668 11.9902 0.000202668C11.9939 0.000202668 11.9973 0 12.001 0C18.6286 0 18.6286 24 12.001 24C14.114 24 16.098 23.4518 17.8226 22.4931V1.50668C16.098 0.547964 14.114 0 12.001 0Z" fill="#F3F1F2"/>
<path d="M17.8208 1.50684V22.4931C21.5051 20.4446 23.9993 16.5144 23.9993 12.0002C23.9993 7.48549 21.5052 3.55525 17.8208 1.50684Z" fill="#D32027"/>
<path d="M11.9997 0C11.9959 0 11.9927 0 11.9889 0C9.87627 0.00187468 7.8923 0.551764 6.16846 1.512V22.4874C7.78408 23.3876 9.62861 23.9272 11.5933 23.9926C11.7288 23.9949 11.8616 23.9996 11.9997 23.9996C18.6272 23.9998 18.6272 0 11.9997 0Z" fill="#F3F1F2"/>
<path d="M16.6563 11.7827C16.4913 11.6251 16.1527 11.6425 16.0922 11.3805C16.0123 10.7368 16.3084 10.3621 16.4952 9.93194C15.5498 10.1531 14.8044 10.517 14.8051 9.44919C14.2623 10.1129 13.6787 10.7766 13.4377 10.6561C13.0953 10.4549 13.7662 8.74664 13.8396 7.84016C13.5084 7.99135 12.874 8.32291 12.874 8.32291C12.874 8.32291 12.2974 7.19517 11.9922 6.63889V6.63281C11.9911 6.63393 11.9911 6.63489 11.9907 6.63585C11.9899 6.63509 11.9899 6.63398 11.9892 6.63281V6.63889C11.6835 7.19517 11.1074 8.32291 11.1074 8.32291C11.1074 8.32291 10.4726 7.99135 10.1418 7.84016C10.2148 8.74679 10.8857 10.4551 10.5433 10.6561C10.3021 10.7768 9.71868 10.1129 9.17623 9.44919C9.17623 10.517 8.43123 10.1531 7.48613 9.93194C7.67259 10.3619 7.96874 10.7366 7.88802 11.3805C7.82854 11.6425 7.48973 11.6251 7.32471 11.7827C8.42155 12.8792 10.3226 13.6936 9.41706 14.5988L11.8584 14.3711C11.9384 15.196 11.6801 16.2084 11.9043 16.7717C11.9567 16.7717 11.9395 16.7717 11.989 16.7717C11.9897 16.7717 11.9908 16.7717 11.992 16.7717C12.0413 16.7717 12.0231 16.7717 12.0752 16.7717C12.3039 16.1881 12.0426 15.1962 12.1226 14.3711L14.5636 14.5988C13.6589 13.6936 15.5599 12.8792 16.6563 11.7827Z" fill="#D32027"/>
</g>
<defs>
<clipPath id="clip0">
<rect width="24" height="24" fill="white"/>
</clipPath>
</defs>
</svg>
