<svg width="24" height="24" viewBox="0 0 24 24" fill="none" xmlns="http://www.w3.org/2000/svg">
<g clip-path="url(#clip0)">
<path d="M0.000488281 11.9986C0.000488281 9.94202 0.517706 8.00634 1.42939 6.31445L23.9984 11.9986L1.69557 18.1507C0.619235 16.3518 0.000488281 14.2473 0.000488281 11.9986Z" fill="#14477D"/>
<path d="M16.9696 11.9991H23.9987C23.9986 5.37189 18.6266 0 11.9995 0C15.313 0 16.9696 5.99956 16.9696 11.9991Z" fill="#F3F4F5"/>
<path d="M12.0006 23.998C11.9297 23.998 11.8606 23.9969 11.7905 23.9961C11.8606 23.9976 11.9304 23.9999 12.0006 23.9999C18.6277 23.9999 23.9997 18.628 23.9997 12.001H16.9707C16.9705 17.9997 15.3137 23.998 12.0006 23.998Z" fill="#DB2F2A"/>
<path d="M1.42969 6.31498L11.9995 11.9991H16.9694C16.9694 5.99956 15.3128 0 11.9993 0C7.42909 0 3.45555 2.55503 1.42969 6.31498Z" fill="#F3F4F5"/>
<path d="M16.9689 12.001H11.999L1.40527 17.6405C3.39288 21.3668 7.28927 23.919 11.7887 23.9962C11.8588 23.997 11.928 23.9981 11.9988 23.9981C15.3118 23.998 16.9687 17.9998 16.9689 12.001Z" fill="#DB2F2A"/>
</g>
<defs>
<clipPath id="clip0">
<rect width="24" height="24" fill="white"/>
</clipPath>
</defs>
</svg>
