<svg width="24" height="24" viewBox="0 0 24 24" fill="none" xmlns="http://www.w3.org/2000/svg">
<path fill-rule="evenodd" clip-rule="evenodd" d="M1 16.0588C2.65737 20.6956 6.95662 24 12 24C17.0431 24 21.3427 20.6956 23 16.0588L12 15L1 16.0588Z" fill="#FFDA44"/>
<mask id="mask0" mask-type="alpha" maskUnits="userSpaceOnUse" x="0" y="0" width="24" height="16">
<path fill-rule="evenodd" clip-rule="evenodd" d="M0 0V15.9634H24V0H0Z" fill="white"/>
</mask>
<g mask="url(#mask0)">
<path fill-rule="evenodd" clip-rule="evenodd" d="M11.997 0C6.83655 0 2.43753 3.21413 0.741699 7.72425L11.997 8.75416L23.2522 7.72425C21.5564 3.21413 17.1571 0 11.997 0Z" fill="black"/>
<path fill-rule="evenodd" clip-rule="evenodd" d="M0.742078 7.72461C0.259784 9.00776 -0.00439453 10.3955 -0.00439453 11.8442C-0.00439453 13.2929 0.259784 14.6806 0.742078 15.9637H23.2526C23.7349 14.6806 23.9991 13.2929 23.9991 11.8442C23.9991 10.3955 23.7349 9.00776 23.2526 7.72461H0.742078Z" fill="#D80027"/>
</g>
</svg>
