<svg width="24" height="24" viewBox="0 0 24 24" fill="none" xmlns="http://www.w3.org/2000/svg">
<g clip-path="url(#clip0)">
<path d="M12.0009 23.9999C18.6281 23.9999 24.0004 18.6275 24.0004 12.0004C24.0004 5.37331 18.6281 0.000976562 12.0009 0.000976562C5.37381 0.000976562 0.00146484 5.37331 0.00146484 12.0004C0.00146484 18.6275 5.37381 23.9999 12.0009 23.9999Z" fill="white"/>
<path d="M23.3139 7.99946C23.3126 7.99566 23.3114 7.99247 23.3101 7.98902C21.7743 3.65871 17.8239 0.472722 13.0776 0.0498047C14.9142 1.05666 15.4506 4.24665 15.9205 7.99951C16.2415 10.5629 16.2436 13.3874 15.9266 15.954C15.4607 19.7271 14.922 22.9396 13.0777 23.9507C17.8327 23.527 21.7887 20.33 23.3185 15.9881C23.3225 15.9765 23.3259 15.9652 23.3301 15.954C23.762 14.7158 23.9998 13.3861 23.9998 12.0006C23.9996 10.597 23.7565 9.25099 23.3139 7.99946Z" fill="#CD2227"/>
<path d="M16.5383 7.999C16.0686 4.2461 14.9143 1.05615 13.0776 0.049299C12.7223 0.0178348 12.3631 0 11.9997 0C6.77955 0 2.34021 3.33404 0.689477 7.98857C0.688159 7.99196 0.686994 7.9952 0.685677 7.999C0.2431 9.25053 0 10.5965 0 12.0001C0 13.3857 0.23778 14.7152 0.669767 15.9534C0.67377 15.9646 0.677367 15.976 0.681319 15.9875C2.32557 20.6541 6.77099 23.9997 11.9997 23.9997C12.3631 23.9997 12.7223 23.9819 13.0776 23.9501C14.9219 22.9391 16.0784 19.7265 16.5443 15.9534C16.8614 13.3867 16.8593 10.5624 16.5383 7.999Z" fill="#CD2227"/>
<path d="M23.7955 9.80762H15.626C15.7164 11.1836 15.7226 12.5965 15.6415 13.976H23.8343C23.9416 13.3332 23.9988 12.6734 23.9988 11.9998C23.9988 11.2504 23.9276 10.5185 23.7955 9.80762Z" fill="#F3F4F5"/>
<path d="M16.7075 9.80845H10.9057V0.0517578C9.42133 0.185721 8.01582 0.590602 6.73724 1.21609V9.8087H0.203327C0.0712378 10.5195 0 11.2515 0 12.0008C0 12.6743 0.0572031 13.3341 0.164465 13.977H6.73709V22.7848C8.01567 23.4103 9.42118 23.8152 10.9055 23.9493V13.9768H16.7229C16.8042 12.5971 16.7977 11.1842 16.7075 9.80845Z" fill="#F3F4F5"/>
</g>
<defs>
<clipPath id="clip0">
<rect width="24" height="24" fill="white"/>
</clipPath>
</defs>
</svg>
