<svg width="24" height="24" viewBox="0 0 24 24" fill="none" xmlns="http://www.w3.org/2000/svg">
<g clip-path="url(#clip0)">
<path d="M12.0005 24C15.84 24 19.2554 22.1952 21.4518 19.3896H15.1316C14.3157 22.1094 13.8603 24 12.0005 24Z" fill="#D32030"/>
<path d="M15.1316 4.61032H21.4519C19.2553 1.80514 15.8399 0 12.0005 0C13.8603 0 14.3157 1.89057 15.1316 4.61032Z" fill="#D32030"/>
<path d="M21.4509 4.61035H15.1304C16.4059 8.86184 16.4059 15.1388 15.1304 19.3897H21.4503C23.0457 17.3524 23.9993 14.7886 23.9993 12.0001C23.9995 9.2118 23.0458 6.64781 21.4509 4.61035Z" fill="#FFD034"/>
<path d="M12.0007 24.0002C11.762 24.0002 11.5248 23.9932 11.2891 23.9795C11.5281 23.9928 11.7658 24.0002 12.0007 24.0002Z" fill="#C42126"/>
<path d="M11.2891 0.0210272C11.5247 0.00699216 11.762 0 12.0007 0C11.7658 0 11.5281 0.00775218 11.2891 0.0210272Z" fill="#C42126"/>
<path d="M16.014 19.3896H2.54932C4.6076 22.019 7.737 23.7694 11.2819 23.9789C11.2842 23.9789 11.2862 23.9793 11.2885 23.9793C11.5242 23.9929 11.7614 24 12.0002 24C13.8601 24 15.1979 22.1094 16.014 19.3896Z" fill="#D32030"/>
<path d="M2.54932 4.61032H16.014C15.1979 1.89057 13.8601 0 12.0002 0C11.7615 0 11.5243 0.00699216 11.2886 0.0210272C11.2863 0.0210272 11.2842 0.0213818 11.2819 0.0213818C7.737 0.230792 4.6076 1.98137 2.54932 4.61032Z" fill="#D32030"/>
<path d="M-0.000976562 12.0001C-0.000976562 14.7886 0.952643 17.3524 2.54802 19.3897H16.0128C17.2883 15.1386 17.2883 8.86159 16.0128 4.61035H2.54802C0.952643 6.64781 -0.000976562 9.2118 -0.000976562 12.0001Z" fill="#FFD034"/>
</g>
<defs>
<clipPath id="clip0">
<rect width="24" height="24" fill="white"/>
</clipPath>
</defs>
</svg>
