<svg width="24" height="24" viewBox="0 0 24 24" fill="none" xmlns="http://www.w3.org/2000/svg">
<g clip-path="url(#clip0)">
<mask id="mask0" mask-type="alpha" maskUnits="userSpaceOnUse" x="0" y="0" width="24" height="24">
<path fill-rule="evenodd" clip-rule="evenodd" d="M0 0V24H24V0H0Z" fill="white"/>
</mask>
<g mask="url(#mask0)">
<path fill-rule="evenodd" clip-rule="evenodd" d="M23.9991 12C23.9991 18.6272 18.6255 24 11.9974 24C5.36889 24 -0.00439453 18.6272 -0.00439453 12C-0.00439453 5.37249 5.36889 0 11.9974 0C18.6255 0 23.9991 5.37249 23.9991 12Z" fill="#F3F3F3"/>
<path fill-rule="evenodd" clip-rule="evenodd" d="M23.9992 11.9988C23.9992 6.83907 20.7421 2.44069 16.1719 0.745117V23.2523C20.7421 21.5568 23.9992 17.1581 23.9992 11.9988Z" fill="#D80027"/>
<path fill-rule="evenodd" clip-rule="evenodd" d="M-0.00439453 11.9997C-0.00439453 17.1591 3.25259 21.5578 7.82285 23.2533V0.746094C3.25259 2.44167 -0.00439453 6.84005 -0.00439453 11.9997Z" fill="#0052B4"/>
</g>
</g>
<defs>
<clipPath id="clip0">
<rect width="24" height="24" fill="white"/>
</clipPath>
</defs>
</svg>
