<svg width="24" height="24" viewBox="0 0 24 24" fill="none" xmlns="http://www.w3.org/2000/svg">
<path d="M12 24C18.6274 24 24 18.6274 24 12C24 5.37258 18.6274 0 12 0C5.37258 0 0 5.37258 0 12C0 18.6274 5.37258 24 12 24Z" fill="#D80027"/>
<path d="M13.2373 9.07837C12.9645 10.2127 12.48 9.99637 12.2422 10.9856C10.8414 10.6488 9.97875 9.24023 10.3155 7.83937C10.6522 6.43861 12.0609 5.57592 13.4617 5.91271C12.9861 7.89117 13.4812 8.06386 13.2373 9.07837Z" fill="#F0F0F0"/>
<path d="M9.60347 9.91919C10.598 10.529 10.2425 10.9231 11.1098 11.455C10.3566 12.6832 8.75043 13.0682 7.52222 12.3151C6.29404 11.562 5.90887 9.95571 6.66206 8.72754C8.39672 9.79122 8.71382 9.37371 9.60347 9.91919Z" fill="#F0F0F0"/>
<path d="M9.27995 13.6358C10.1673 12.8784 10.4321 13.3382 11.206 12.6777C12.1414 13.7735 12.0113 15.4202 10.9155 16.3555C9.81967 17.2909 8.17304 17.1607 7.23779 16.065C8.78532 14.7439 8.48621 14.3132 9.27995 13.6358Z" fill="#F0F0F0"/>
<path d="M12.7145 15.0924C12.2683 14.0144 12.7875 13.9046 12.3984 12.9646C13.7296 12.4136 15.2555 13.0462 15.8065 14.3774C16.3574 15.7086 15.7248 17.2344 14.3936 17.7854C13.6156 15.9053 13.1136 16.0566 12.7145 15.0924Z" fill="#F0F0F0"/>
<path d="M15.1623 12.2763C13.9991 12.3675 14.055 11.8397 13.0408 11.9193C12.9282 10.4831 14.0013 9.22727 15.4376 9.11454C16.8739 9.00208 18.1297 10.0751 18.2423 11.5115C16.2137 11.6705 16.2025 12.1948 15.1623 12.2763Z" fill="#F0F0F0"/>
</svg>
