<svg width="24" height="24" viewBox="0 0 24 24" fill="none" xmlns="http://www.w3.org/2000/svg">
<g clip-path="url(#clip0)">
<path d="M16.0015 0.685547L14.6011 4.56824C15.8937 8.83402 15.8937 15.1655 14.6011 19.4315L16.0015 23.3137C20.6615 21.6659 24.0008 17.2239 24.0008 11.9994C24.0008 6.77573 20.6615 2.33343 16.0015 0.685547Z" fill="#F27021"/>
<path d="M16.0007 4.56836V0.685672C14.7493 0.243099 13.4033 0 12 0C13.8504 0 11.2847 6.27117 16.0007 4.56836Z" fill="#F3F4F5"/>
<path d="M11.9999 23.9998C13.4031 23.9998 14.7491 23.7567 16.0006 23.3141V19.4318C11.332 18.9659 11.9999 23.9998 11.9999 23.9998Z" fill="#F3F4F5"/>
<path d="M0 12.0004C0 17.2424 3.36199 21.6961 8.04617 23.3307V0.670898C3.36199 2.30546 0 6.75921 0 12.0004Z" fill="#2DB24A"/>
<path d="M16 4.56836V19.4316C17.2928 15.1656 17.2928 8.83414 16 4.56836Z" fill="#F27021"/>
<path d="M15.9999 19.4317V4.56836C15.1829 1.87143 13.8495 0 11.9991 0C10.6133 0 9.28381 0.237981 8.04541 0.670168V23.33C9.28381 23.7622 10.6133 23.9998 11.9991 23.9998C13.8495 23.9998 15.1829 22.1284 15.9999 19.4317Z" fill="#F3F4F5"/>
</g>
<defs>
<clipPath id="clip0">
<rect width="24" height="24" fill="white"/>
</clipPath>
</defs>
</svg>
