<svg width="24" height="24" viewBox="0 0 24 24" fill="none" xmlns="http://www.w3.org/2000/svg">
<g clip-path="url(#clip0)">
<path d="M12.001 24C18.6281 24 24.0005 18.6276 24.0005 12.0005C24.0005 5.37333 18.6281 0.000976562 12.001 0.000976562C5.37382 0.000976562 0.00146484 5.37333 0.00146484 12.0005C0.00146484 18.6276 5.37382 24 12.001 24Z" fill="white"/>
<path d="M23.3135 7.99902H15.9199C16.2411 10.5624 16.243 13.3869 15.9262 15.9535H23.3293C23.7615 14.7153 23.999 13.3856 23.999 12.0001C23.9992 10.5965 23.7561 9.2505 23.3135 7.99902Z" fill="#EFEFEF"/>
<path d="M15.9202 7.99953H23.3137C23.3126 7.99573 23.3114 7.99254 23.3099 7.98909C21.7742 3.65872 17.8236 0.472723 13.0771 0.0498047C14.9141 1.05666 15.4507 4.24666 15.9202 7.99953Z" fill="#EA8634"/>
<path d="M13.0776 23.9499C17.8326 23.5262 21.7887 20.3292 23.3185 15.9872C23.3225 15.9757 23.3259 15.9643 23.33 15.9531H15.9267C15.4608 19.7263 14.922 22.9388 13.0776 23.9499Z" fill="#359846"/>
<path d="M0 12.0002C0 13.3858 0.237983 14.7153 0.669769 15.9535H16.5444C16.8616 13.3867 16.8593 10.5624 16.5386 7.99902H0.685729C0.243101 9.25055 0 10.5966 0 12.0002Z" fill="#EFEFEF"/>
<path d="M0.689347 7.98951C0.688232 7.9929 0.687067 7.99615 0.685547 7.99995H16.5384C16.0685 4.24703 14.9142 1.05708 13.0775 0.050225C12.7222 0.0187607 12.363 0.000976563 11.9996 0.000976563C6.77943 0.000925896 2.34023 3.33487 0.689347 7.98951Z" fill="#EA8634"/>
<path d="M16.5446 15.9531H0.669922C0.673925 15.9643 0.677674 15.9757 0.681474 15.9872C2.32577 20.6538 6.77136 23.9995 11.9999 23.9995C12.3633 23.9995 12.7226 23.9817 13.0778 23.9499C14.9223 22.9389 16.0787 19.7264 16.5446 15.9531Z" fill="#359846"/>
</g>
<defs>
<clipPath id="clip0">
<rect width="24" height="24" fill="white"/>
</clipPath>
</defs>
</svg>
