<svg width="24" height="24" viewBox="0 0 24 24" fill="none" xmlns="http://www.w3.org/2000/svg">
<path d="M16.0005 0.685547L14.6001 4.56827C15.8927 8.83409 15.8927 15.1655 14.6001 19.4315L16.0005 23.3138C20.6606 21.666 23.9998 17.224 23.9998 11.9994C23.9999 6.77583 20.6606 2.33339 16.0005 0.685547Z" fill="#0C763C"/>
<path d="M16.0008 4.5684V0.685678C14.7493 0.243101 13.4033 0 12 0C13.8504 0 11.2848 6.27117 16.0008 4.5684Z" fill="#F3F4F5"/>
<path d="M11.9999 23.9998C13.4031 23.9998 14.7491 23.7567 16.0006 23.3141V19.4318C11.332 18.966 11.9999 23.9998 11.9999 23.9998Z" fill="#F3F4F5"/>
<path d="M0 12.0005C0 17.2424 3.36202 21.6962 8.04619 23.3308V0.670898C3.36202 2.30547 0 6.75921 0 12.0005Z" fill="#CD2029"/>
<path d="M16 4.56836V19.4316C17.2928 15.1656 17.2928 8.83407 16 4.56836Z" fill="#0C763C"/>
<path d="M16.0009 19.4318V4.5684C15.1839 1.87144 13.8506 0 12.0001 0C10.6143 0 9.28479 0.237983 8.04639 0.670174V23.3301C9.28479 23.7623 10.6143 23.9998 12.0001 23.9998C13.8505 23.9998 15.1838 22.1284 16.0009 19.4318Z" fill="#F3F4F5"/>
</svg>
