<svg width="24" height="24" viewBox="0 0 24 24" fill="none" xmlns="http://www.w3.org/2000/svg">
<g clip-path="url(#clip0)">
<path d="M12.001 24C18.6281 24 24.0005 18.6276 24.0005 12.0005C24.0005 5.37333 18.6281 0.000976562 12.001 0.000976562C5.37382 0.000976562 0.00146484 5.37333 0.00146484 12.0005C0.00146484 18.6276 5.37382 24 12.001 24Z" fill="white"/>
<path d="M12.001 24C18.6281 24 24.0005 18.6276 24.0005 12.0005C24.0005 5.37333 18.6281 0.000976562 12.001 0.000976562C5.37382 0.000976562 0.00146484 5.37333 0.00146484 12.0005C0.00146484 18.6276 5.37382 24 12.001 24Z" fill="white"/>
<path d="M23.3136 7.99958C23.3123 7.99578 23.3111 7.99259 23.3098 7.98914C21.774 3.65872 17.8236 0.472723 13.0771 0.0498047C14.9137 1.05666 15.4501 4.24666 15.92 7.99953C16.241 10.5629 16.2431 13.3874 15.9261 15.954C15.4602 19.7272 14.9215 22.9397 13.0772 23.9508C17.8322 23.5271 21.7882 20.3301 23.318 15.9881C23.322 15.9766 23.3254 15.9652 23.3296 15.954C23.7616 14.7158 23.9994 13.3861 23.9994 12.0007C23.9994 10.597 23.7563 9.251 23.3136 7.99958Z" fill="#F3F2F2"/>
<path d="M16.5384 7.99902C16.0687 4.24611 14.9144 1.05616 13.0776 0.0492991C12.7224 0.0178348 12.3631 0 11.9997 0C6.77956 0 2.34016 3.334 0.689478 7.98858C0.688161 7.99198 0.686995 7.99522 0.685678 7.99902C0.243101 9.25045 0 10.5965 0 12.0001C0 13.3857 0.237781 14.7153 0.669769 15.9535C0.673771 15.9647 0.677369 15.976 0.681321 15.9876C2.32557 20.6541 6.771 23.9998 11.9997 23.9998C12.3631 23.9998 12.7224 23.982 13.0776 23.9501C14.9219 22.9391 16.0785 19.7266 16.5444 15.9534C16.8614 13.3867 16.8593 10.5624 16.5384 7.99902Z" fill="#F3F2F2"/>
<path d="M12.0008 16.4215C14.4423 16.4215 16.4215 14.4423 16.4215 12.0008C16.4215 9.5593 14.4423 7.58008 12.0008 7.58008C9.5593 7.58008 7.58008 9.5593 7.58008 12.0008C7.58008 14.4423 9.5593 16.4215 12.0008 16.4215Z" fill="#EC1C24"/>
</g>
<defs>
<clipPath id="clip0">
<rect width="24" height="24" fill="white"/>
</clipPath>
</defs>
</svg>
