<svg width="24" height="24" viewBox="0 0 24 24" fill="none" xmlns="http://www.w3.org/2000/svg">
<g clip-path="url(#clip0)">
<path d="M12.001 24C18.6281 24 24.0005 18.6276 24.0005 12.0005C24.0005 5.37333 18.6281 0.000976562 12.001 0.000976562C5.37382 0.000976562 0.00146484 5.37333 0.00146484 12.0005C0.00146484 18.6276 5.37382 24 12.001 24Z" fill="white"/>
<path d="M23.3137 7.99958C23.3124 7.99578 23.3112 7.99259 23.3099 7.98914C21.774 3.65872 17.8236 0.472723 13.0771 0.0498047C14.9137 1.05666 15.4501 4.24666 15.92 7.99953C16.241 10.5629 16.2431 13.3874 15.9261 15.954C15.4602 19.7272 14.9215 22.9397 13.0772 23.9508C17.8322 23.5271 21.7882 20.3301 23.318 15.9881C23.322 15.9766 23.3254 15.9652 23.3296 15.954C23.7616 14.7158 23.9994 13.3861 23.9994 12.0007C23.9996 10.597 23.7563 9.251 23.3137 7.99958Z" fill="#D32027"/>
<path d="M16.5384 7.99902C16.0685 4.24611 14.9142 1.05616 13.0776 0.0492991C12.7224 0.0178348 12.3631 0 11.9997 0C6.77956 0 2.34016 3.334 0.689478 7.98858C0.688161 7.99198 0.686995 7.99522 0.685678 7.99902C0.243101 9.25045 0 10.5965 0 12.0001C0 13.3857 0.237781 14.7153 0.669769 15.9535C0.673771 15.9647 0.677369 15.976 0.681321 15.9876C2.32557 20.6541 6.771 23.9998 11.9997 23.9998C12.3631 23.9998 12.7224 23.982 13.0776 23.9501C14.9219 22.9391 16.0785 19.7266 16.5444 15.9534C16.8614 13.3867 16.8593 10.5624 16.5384 7.99902Z" fill="#D32027"/>
<path d="M16.7792 14.4777C16.8809 12.748 16.873 10.9768 16.7599 9.25168H11.3858V0.015625C9.49487 0.110727 7.72066 0.645823 6.15975 1.5174V9.25168H0.319811C0.112734 10.1346 0 11.054 0 12.0002C0 12.8494 0.0896301 13.678 0.25749 14.4777H6.15975V22.4826C7.72066 23.3539 9.49487 23.8889 11.3858 23.9844V14.4777H16.7792Z" fill="#F3F4F5"/>
<path d="M23.6798 9.25195H18.6597H16.6968C16.8099 10.9771 16.8179 12.7483 16.7161 14.478H18.6792H23.7423C23.9104 13.6782 23.9998 12.8497 23.9998 12.0004C23.9998 11.0542 23.8869 10.1349 23.6798 9.25195Z" fill="#F3F4F5"/>
<path d="M23.7956 9.80762H15.626C15.7164 11.1836 15.7226 12.5965 15.6415 13.9761H23.8344C23.9416 13.3332 23.9988 12.6734 23.9988 11.9998C23.999 11.2505 23.9278 10.5185 23.7956 9.80762Z" fill="#3757A6"/>
<path d="M16.7074 9.80847H10.9055V0.0517578C9.4212 0.185722 8.01569 0.590603 6.73711 1.21609V9.80873H0.203327C0.071238 10.5194 0 11.2513 0 12.0007C0 12.6743 0.0572032 13.334 0.164465 13.9769H6.73711V22.7848C8.01569 23.4102 9.4212 23.8151 10.9055 23.9493V13.9769H16.7229C16.804 12.5971 16.7978 11.1842 16.7074 9.80847Z" fill="#3757A6"/>
</g>
<defs>
<clipPath id="clip0">
<rect width="24" height="24" fill="white"/>
</clipPath>
</defs>
</svg>
