<svg width="24" height="24" viewBox="0 0 24 24" fill="none" xmlns="http://www.w3.org/2000/svg">
<path d="M5.72331 12.9423C5.72331 12.8805 5.61779 12.8294 5.48905 12.8294C5.36032 12.8294 5.16412 12.7563 5.05293 12.6678C4.94173 12.5782 4.79249 12.5782 4.72124 12.6678C4.65053 12.7563 4.67968 12.8294 4.78601 12.8294C4.89235 12.8294 5.04159 12.8802 5.11716 12.9423C5.19299 13.0043 5.36005 13.0556 5.48905 13.0556C5.61806 13.0556 5.72331 13.0046 5.72331 12.9423Z" fill="#3C3C3C"/>
<path d="M6.54717 13.169C6.46755 13.1066 6.3874 13.0122 6.36958 12.959C6.36958 12.959 6.36958 12.959 6.20793 13.0559C6.04627 13.1525 6.04627 13.1525 6.04627 13.1525C5.86868 13.2297 5.57775 13.4183 5.3999 13.5724C5.3999 13.5724 5.3999 13.5724 5.72295 13.5724C5.91699 13.5724 5.91699 13.5724 5.91699 13.5724C6.18337 13.5724 6.46728 13.5724 6.5469 13.5724C6.62705 13.5724 6.69263 13.5071 6.69263 13.4272C6.69263 13.3473 6.62732 13.231 6.54717 13.169Z" fill="#3C3C3C"/>
<path d="M10.519 1.78055C10.596 1.78379 10.6413 1.79459 10.5706 1.77732C10.5506 1.77246 10.5342 1.77381 10.519 1.78055Z" fill="#3C3C3C"/>
<path d="M13.7378 7.94156C13.7378 7.94992 13.7378 7.94992 13.7378 7.94992C13.6363 8.10106 13.5535 8.29726 13.5535 8.38632C13.5535 8.47511 13.5697 8.59494 13.5894 8.65296C13.6091 8.71045 13.7159 8.67752 13.8271 8.57983C13.9378 8.4824 14.0649 8.38011 14.1094 8.35367C14.154 8.32668 14.1904 8.21765 14.1904 8.11131C14.1904 8.11131 14.1904 8.11131 14.1904 8.04654C14.1904 7.98204 14.077 7.82038 14.0449 7.75615C14.0125 7.69138 13.9162 7.5621 13.9078 7.46522C13.8995 7.3686 13.8995 7.3686 13.8995 7.3686C13.8374 7.23474 13.7213 7.12598 13.6423 7.12598C13.6423 7.12598 13.6423 7.12598 13.6253 7.12598C13.6083 7.12598 13.5923 7.30383 13.5599 7.35214C13.5278 7.40099 13.5278 7.40099 13.5278 7.40099C13.5815 7.56102 13.676 7.80041 13.7378 7.934C13.7378 7.93373 13.7378 7.93373 13.7378 7.94156Z" fill="#3C3C3C"/>
<path d="M13.0915 8.32108C13.1725 8.30435 13.1725 8.30435 13.1725 8.30435C13.2524 8.26009 13.3468 8.1184 13.3825 7.98967C13.4181 7.86039 13.44 7.68227 13.431 7.59375C13.431 7.59375 13.431 7.59375 13.318 7.65825C13.2049 7.72248 13.0915 7.75514 13.0915 7.8523C13.0915 7.94918 13.0108 8.337 13.0915 8.32108Z" fill="#3C3C3C"/>
<path d="M19.6198 16.8853C19.3793 17.1981 19.1497 17.4869 19.1089 17.5255C19.0679 17.5641 18.9413 17.7487 18.8277 17.9357C18.8277 17.9357 18.8277 17.9357 18.7953 18.0002C18.7632 18.0647 18.7632 18.0647 18.7632 18.0647C18.8517 18.1888 18.9491 18.2909 18.9796 18.2909C19.0093 18.2909 19.0722 18.2981 19.1186 18.3071C19.1186 18.3071 19.1186 18.3071 19.151 18.2909C19.1831 18.2744 19.2155 18.2587 19.2479 18.1775C19.28 18.0971 19.3124 18.0806 19.3289 17.9516C19.3448 17.8223 19.5709 17.4502 19.5874 17.3857C19.6036 17.3212 19.6036 17.3212 19.6036 17.3212C19.6835 17.0548 19.8073 16.6689 19.8783 16.4648C19.8783 16.4648 19.8783 16.4648 19.7491 16.6751C19.6198 16.8853 19.6198 16.8853 19.6198 16.8853Z" fill="#3C3C3C"/>
<path d="M12 0C5.38305 0 0 5.38305 0 12C0 18.6167 5.38305 24 12 24C18.617 24 24 18.6167 24 12C24 5.38305 18.617 0 12 0ZM19.0695 13.3246C19.0342 13.4614 18.8741 13.4126 18.7144 13.2174C18.7144 13.2174 18.7144 13.2174 18.6175 13.0558C18.5206 12.8941 18.2294 12.6032 18.1004 12.5063C17.9714 12.4094 17.9711 12.4094 17.9711 12.4094C17.9533 12.0184 17.8964 11.6983 17.844 11.6983C17.844 11.6983 17.844 11.6983 17.8486 11.6983C17.844 11.6983 17.8831 11.6983 17.9387 11.6983C18.0605 11.6983 18.0605 11.6983 18.0605 11.6983C18.1714 11.6983 18.3349 11.8003 18.4234 11.9244C18.4234 11.9244 18.4234 11.9244 18.4879 12.1358C18.5527 12.3471 18.9405 12.7003 19.0053 13.0126C19.0695 13.3246 19.0695 13.3246 19.0695 13.3246ZM15.7756 10.4309C15.8299 10.3562 15.9316 10.2946 16.0018 10.2946C16.072 10.2946 16.2452 10.334 16.3875 10.3826C16.53 10.4309 16.6387 10.3829 16.6298 10.276C16.6209 10.1691 16.6646 10.0822 16.7267 10.0822C16.7888 10.0822 16.9418 10.1726 17.0659 10.2827C17.1904 10.3931 17.474 10.4833 17.6961 10.4833C17.9182 10.4833 18.0567 10.6233 18.0032 10.7931C18.0032 10.7931 18.0032 10.7931 17.9387 10.9127C17.8742 11.0325 17.8742 11.0325 17.8742 11.0325C17.6432 11.0962 17.3231 11.1488 17.1631 11.1488C17.0031 11.1488 16.8069 11.1412 16.727 11.1321C16.6471 11.1234 16.5016 11.1669 16.4037 11.2287C16.3062 11.291 16.147 11.3056 16.0504 11.2616C15.9538 11.2168 15.6839 11.0206 15.4504 10.8252C15.4504 10.8252 15.4504 10.8252 15.418 10.7283C15.3857 10.6314 14.901 10.5669 14.8043 10.5343C14.7072 10.5022 14.7072 10.5022 14.7072 10.5022C14.4055 10.5197 14.0851 10.5926 13.9963 10.6638C13.9963 10.6638 13.9963 10.6638 13.7054 10.7283C13.4144 10.7928 13.9963 10.3405 14.1582 10.2941C14.3196 10.2477 14.3844 9.95268 14.481 9.72625C14.5779 9.50036 14.5779 9.50036 14.5779 9.50036C14.8087 9.62478 15.0561 9.72625 15.1274 9.72625C15.1984 9.72625 15.3876 9.81342 15.5476 9.9203C15.5476 9.9203 15.5476 9.9203 15.6442 10.082C15.7411 10.2436 15.5797 10.1788 15.5149 10.2941C15.4507 10.4093 15.4507 10.4093 15.4507 10.4093C15.5746 10.4965 15.7211 10.5062 15.7756 10.4309ZM17.3248 9.30686C17.3248 9.30686 17.3248 9.30686 17.4214 9.1927C17.5183 9.07827 17.5183 9.07827 17.5183 9.07827C17.6251 9.14115 17.752 9.095 17.8011 8.9749C17.8499 8.85534 17.97 8.90284 18.0675 9.08097C18.0675 9.08097 18.0675 9.08097 18.0999 9.17785C18.132 9.27447 18.132 9.27447 18.132 9.27447C18.3276 9.36326 18.444 9.47877 18.3908 9.53167C18.3374 9.58429 18.1773 9.62747 18.0351 9.62694C17.8931 9.6264 17.7258 9.62694 17.6635 9.62801C17.6011 9.62909 17.2487 9.5762 17.1952 9.5152C17.142 9.45367 17.2006 9.36056 17.3248 9.30686ZM18.8655 4.21663C18.7729 4.30299 18.6912 4.33915 18.6456 4.30083C18.5875 4.25198 18.4785 4.05389 18.3649 3.80047C18.5363 3.93433 18.7033 4.07278 18.8655 4.21663ZM10.7904 5.75711C10.7904 5.75711 10.7904 5.75711 10.7969 5.75198C10.8498 5.71231 10.8498 5.71231 10.8498 5.71231C10.8333 5.72526 10.8187 5.7366 10.806 5.74631C10.8255 5.7312 10.8333 5.72472 10.7969 5.75198C10.7904 5.75711 10.7823 5.76385 10.7747 5.77087C10.778 5.76844 10.7812 5.76547 10.7845 5.76332C10.7788 5.76817 10.775 5.77087 10.7739 5.77168C10.7745 5.77168 10.7745 5.77114 10.7747 5.77087C10.7683 5.77627 10.7612 5.7814 10.7556 5.78598C10.7623 5.77978 10.7836 5.76277 10.7904 5.75711ZM1.62711 12.4758C1.64439 12.4861 1.6514 12.492 1.62576 12.4467C1.61956 12.2982 1.61578 12.1498 1.61578 12.0003C1.61578 11.996 1.61578 11.9922 1.61578 11.9887C1.6792 12.1549 1.75342 12.339 1.81279 12.4742C1.81279 12.4742 1.81279 12.4742 1.90941 12.5387C2.00603 12.6035 2.06459 12.6615 2.13584 12.7333C2.13584 12.7333 2.13584 12.7333 2.16796 12.8625C2.20061 12.9915 2.00603 13.0242 2.16796 13.1208C2.32989 13.2177 2.10372 13.0242 2.32989 13.2177C2.55605 13.4112 2.68505 13.3791 2.78221 13.4439C2.87909 13.5084 2.91148 13.2498 3.00837 13.4439C3.10525 13.6376 2.81432 13.4439 3.10525 13.6376C3.39619 13.8314 3.39619 13.8314 3.39619 13.8314C3.48498 13.8846 3.57215 13.8411 3.59023 13.7345C3.59023 13.7345 3.59023 13.7345 3.78374 13.9286C3.97805 14.1229 3.97805 14.1229 3.97805 14.1229C4.10274 14.1404 4.21878 14.1987 4.2366 14.2522C4.2366 14.2522 4.2366 14.2522 4.39826 14.3814C4.55991 14.5107 4.39826 14.3164 4.55991 14.5107C4.7213 14.7048 4.78688 14.7482 4.86704 14.8014C4.94692 14.8548 5.04138 14.8983 5.07701 14.8983C5.11236 14.8983 5.16337 14.9344 5.19009 14.979C5.21681 15.0232 5.29696 15.1325 5.36794 15.221C5.43865 15.3098 5.49721 15.4337 5.49721 15.4963C5.49721 15.5581 5.42434 15.5074 5.33555 15.3827C5.33555 15.3827 5.33555 15.3827 5.33555 15.6089C5.33555 15.8353 5.36794 15.6412 5.33555 15.8353C5.30317 16.0293 5.34689 16.0876 5.40005 16.1586C5.45322 16.2293 5.49694 16.3389 5.49694 16.4004C5.49694 16.463 5.49694 16.5645 5.49694 16.6268C5.49694 16.6892 5.58411 16.8419 5.69099 16.9661C5.69099 16.9661 5.69099 16.9661 5.78787 17.0309C5.88449 17.0956 5.62595 16.8689 5.88449 17.0956C6.14304 17.3215 6.22319 17.3941 6.32062 17.4832C6.41832 17.5722 6.4982 17.6737 6.4982 17.7096C6.4982 17.7455 6.59995 17.7021 6.7249 17.6127C6.7249 17.6127 6.7249 17.6127 6.82152 17.7747C6.91841 17.9363 6.91841 17.9363 6.91841 17.9363C6.98966 18.0248 7.04768 18.1271 7.04768 18.1627C7.04768 18.1978 7.1057 18.1109 7.17695 17.9684C7.17695 17.9684 7.17695 17.9684 7.24145 18.2272C7.30596 18.4855 7.30596 18.4855 7.30596 18.4855C7.2706 18.5568 7.32863 18.6877 7.43523 18.7762C7.43523 18.7762 7.43523 18.7762 7.46762 18.8731C7.5 18.9697 7.40311 19.0668 7.46762 19.1637C7.53212 19.2603 7.53212 19.2603 7.53212 19.2603C7.58555 19.4919 7.6873 19.7969 7.75855 19.9399C7.8298 20.0816 7.85867 20.2854 7.82305 20.3922C7.82305 20.3922 7.82305 20.3922 7.88782 20.4891C7.95232 20.5855 7.95232 20.5855 7.95232 20.5855C8.00576 20.6923 7.94719 20.8667 7.82305 20.9736C7.82305 20.9736 7.82305 20.9736 8.04948 21.1997C8.27537 21.4261 8.1461 21.1997 8.27537 21.4261C8.40464 21.6523 8.40464 21.6523 8.40464 21.6523C8.41895 21.6844 8.43838 21.723 8.46186 21.7638C4.61497 20.3644 1.82089 16.7532 1.62711 12.4758ZM12 22.384C11.0821 22.384 10.1918 22.2641 9.34356 22.0396C9.32683 21.9481 9.32521 21.8652 9.34248 21.8137C9.34248 21.8137 9.34248 21.8137 9.24559 21.7165C9.14898 21.6196 9.12685 21.5832 9.1004 21.539C9.07341 21.4944 9.05182 21.4075 9.05182 21.3449C9.05182 21.2828 9.10984 21.1592 9.18109 21.0699C9.18109 21.0699 9.18109 21.0699 9.05182 21.0054C8.92255 20.9409 8.92255 21.1347 8.92255 20.9409C8.92255 20.7471 8.99541 20.6888 9.0842 20.6181C9.0842 20.6181 9.0842 20.6181 9.14898 20.5212C9.21321 20.4243 9.11659 20.6505 9.21321 20.4243C9.31009 20.1982 9.31009 20.1982 9.31009 20.1982C9.34599 20.0381 9.42587 19.8635 9.48795 19.8104C9.55002 19.7567 9.60103 19.6698 9.60103 19.6163C9.60103 19.5629 9.60103 19.4684 9.60103 19.4064C9.60103 19.344 9.58618 19.2493 9.56891 19.1961C9.56891 19.1961 9.56891 19.1961 9.60103 19.0668C9.63341 18.9376 9.63341 18.9376 9.63341 18.9376C9.6156 18.8307 9.64475 18.7144 9.69791 18.6793C9.69791 18.6793 9.69791 18.6793 9.7948 18.6148C9.89169 18.55 9.89169 18.55 9.89169 18.55C10.0336 18.4253 10.0774 18.2804 9.98858 18.2272C9.98858 18.2272 9.98858 18.2272 10.15 18.1304C10.3119 18.0332 10.4085 17.9363 10.3764 17.807C10.344 17.6778 10.4085 18.0011 10.344 17.6778C10.2795 17.3542 10.2471 17.3866 10.2471 17.1604C10.2471 16.9342 10.1178 17.128 10.2471 16.9342C10.3764 16.7405 10.3764 16.7405 10.3764 16.7405C10.483 16.5359 10.4687 16.2598 10.344 16.1265C10.344 16.1265 10.344 16.1265 10.2471 16.0941C10.1502 16.062 10.0531 15.9972 9.89196 15.9324C9.7303 15.8679 9.7303 15.8679 9.7303 15.8679C9.4812 15.7789 9.17569 15.6626 9.05155 15.6091C9.05155 15.6091 9.05155 15.6091 8.95466 15.577C8.85777 15.5449 8.85777 15.5449 8.85777 15.5449C8.67992 15.2961 8.51988 15.0923 8.50261 15.0923C8.50261 15.0923 8.50261 15.0923 8.21168 14.9954C7.92075 14.8988 7.85624 14.8664 7.75909 14.7695C7.66193 14.6726 7.6622 14.6726 7.6622 14.6726C7.52024 14.5477 7.38908 14.4095 7.37154 14.3652C7.35373 14.321 7.2957 14.328 7.24226 14.3817C7.24226 14.3817 7.24226 14.3817 6.9516 14.3493C6.66067 14.3167 6.66067 14.3167 6.66067 14.3167C6.51844 14.1928 6.32926 14.0908 6.24047 14.0908C6.24047 14.0908 6.24047 14.0908 6.11119 14.1553C5.98192 14.2198 5.98192 14.2198 5.98192 14.2198C5.85723 14.3088 5.70475 14.3957 5.64214 14.4135C5.58007 14.4311 5.4346 14.4392 5.31936 14.43C5.20358 14.4208 5.04381 14.3777 4.96366 14.3334C4.88377 14.2889 4.78203 14.1725 4.7375 14.0751C4.69324 13.9772 4.64196 13.8244 4.62442 13.7351C4.62442 13.7351 4.62442 13.7351 4.5278 13.6706C4.43064 13.6063 4.43064 13.6063 4.43064 13.6063C4.28868 13.4995 4.20097 13.3251 4.23687 13.2185C4.27222 13.1116 4.24307 12.9516 4.17236 12.8634C4.17236 12.8634 4.17236 12.8634 4.04309 12.9279C3.91382 12.9921 3.91382 12.9921 3.91382 12.9921C3.80695 13.1165 3.67605 13.2474 3.62289 13.283C3.62289 13.283 3.62289 13.283 3.526 13.2506C3.42938 13.2185 3.26772 13.1537 3.10579 12.9921C2.94386 12.8307 2.91175 12.6693 2.91175 12.5719C2.91175 12.475 2.91175 12.475 2.91175 12.475C3.01862 12.2442 3.2294 11.9673 3.38053 11.8607C3.53167 11.7541 3.72787 11.6672 3.81666 11.6672C3.90572 11.6672 4.05821 11.6308 4.15617 11.5863C4.2536 11.542 4.41391 11.6073 4.51134 11.7317C4.60876 11.8564 4.75423 12.0383 4.83438 12.1358C4.91427 12.2334 5.13989 12.2116 5.33528 12.0872C5.33528 12.0872 5.33528 12.0872 5.25432 11.9903C5.17362 11.8934 5.17362 11.8934 5.17362 11.8934C5.10238 11.7865 5.11668 11.583 5.20601 11.4408C5.20601 11.4408 5.20601 11.4408 5.25432 11.3439C5.3029 11.2476 5.36767 11.2149 5.49667 11.0211C5.62568 10.8274 5.69072 10.7302 5.75522 10.6331C5.81972 10.5359 5.81972 10.5362 5.81972 10.5362C5.96168 10.2873 6.13656 10.0401 6.20754 9.98669C6.27852 9.93352 6.38782 9.82422 6.44962 9.7446C6.51197 9.66472 6.59941 9.5627 6.64394 9.51844C6.68847 9.47364 6.78293 9.43775 6.8539 9.43775C6.92488 9.43775 7.08465 9.38647 7.20907 9.32413C7.33348 9.26233 7.50081 9.21159 7.5807 9.21159C7.66085 9.21159 7.66814 9.13845 7.59716 9.04966C7.52591 8.9606 7.43172 8.84428 7.38692 8.79084C7.34266 8.73795 7.44441 8.6362 7.61335 8.56495C7.7823 8.49397 8.12397 8.31936 8.37253 8.17686C8.37253 8.17686 8.37253 8.17686 8.34041 8.27375C8.30803 8.37037 8.30803 8.37037 8.30803 8.37037C8.11263 8.6192 8.01089 8.86668 8.08186 8.91985C8.15284 8.97301 8.34203 9.04615 8.50234 9.08204C8.50234 9.08204 8.50234 9.08204 8.56657 8.98462C8.63107 8.88773 8.63107 8.88773 8.63107 8.88773C8.64888 8.76332 8.6416 8.56981 8.61488 8.457C8.58843 8.34419 8.5663 8.11641 8.5663 7.9507C8.5663 7.9507 8.5663 7.9507 8.5663 7.78904C8.5663 7.62738 8.50207 7.20772 8.40437 7.27222C8.30776 7.33672 8.30776 7.33672 8.30776 7.33672C8.25432 7.14106 8.21114 6.87927 8.21114 6.75486C8.21114 6.63071 8.13098 6.60157 8.03329 6.69009C7.93559 6.77942 7.73939 6.83717 7.59716 6.81936C7.59716 6.81936 7.59716 6.81936 7.62927 6.72247C7.66166 6.62559 7.66166 6.62559 7.66166 6.62559C7.75045 6.57242 7.74343 6.46312 7.64547 6.38377C7.5475 6.30335 7.29327 6.12145 7.0798 5.97976C7.0798 5.97976 7.0798 5.97976 7.01529 6.07638C6.95079 6.17299 6.95079 6.17299 6.95079 6.17299C6.89763 6.31576 6.81747 6.51224 6.77321 6.60966C6.72841 6.70736 6.69225 6.83825 6.69225 6.90032C6.69225 6.96267 6.6631 7.086 6.62774 7.17506C6.59212 7.26385 6.4758 7.42416 6.36893 7.5305C6.26233 7.63737 6.1317 7.81144 6.07827 7.91832C6.02483 8.02519 5.95196 7.8943 5.91661 7.62765C5.91661 7.62765 5.91661 7.62766 5.91661 7.53077C5.91661 7.43415 5.91661 7.43415 5.91661 7.43415C5.68559 7.22094 5.47454 6.95889 5.44809 6.85229C5.42111 6.74568 5.45754 6.54219 5.52879 6.39969C5.52879 6.39969 5.52879 6.39969 5.52879 6.30308C5.52879 6.20619 5.69072 6.01215 5.81972 5.88287C5.94899 5.7536 6.27231 5.49478 6.36893 5.43055C6.46582 5.36551 6.46582 5.36551 6.46582 5.36551C6.59023 5.29453 6.67767 5.35984 6.65986 5.51098C6.64205 5.66211 6.72193 5.77114 6.83744 5.75333C6.95295 5.73525 7.03311 5.65617 7.01529 5.57548C6.99775 5.49559 7.06306 5.38683 7.16049 5.33312C7.25819 5.28023 7.38179 5.12046 7.43523 4.97796C7.48867 4.83573 7.61983 4.51565 7.72616 4.26682C7.72616 4.26682 7.72616 4.26682 7.82305 4.33159C7.91994 4.3961 7.91994 4.3961 7.91994 4.3961C8.04435 4.55614 8.06594 4.8468 7.96851 5.04273C7.87055 5.2384 7.72535 5.39844 7.64547 5.39844C7.56531 5.39844 7.47814 5.46375 7.45142 5.54309C7.4247 5.62352 7.47571 5.7034 7.5645 5.72148C7.5645 5.72148 7.5645 5.72148 7.69378 5.8181C7.82305 5.91472 7.82305 5.91472 7.82305 5.91472C7.94746 6.05668 8.13638 6.10768 8.24325 6.02807C8.35013 5.94791 8.4373 5.82431 8.4373 5.75306C8.4373 5.68181 8.50261 5.62406 8.58276 5.62406C8.66265 5.62406 8.77168 5.52906 8.82512 5.41355C8.87828 5.29831 8.90743 5.13827 8.88935 5.05838C8.87181 4.97823 8.85723 4.8692 8.85723 4.81576C8.85723 4.81576 8.85723 4.81576 8.88935 4.68649C8.92173 4.55722 8.89259 4.50513 8.85723 4.44144C8.82161 4.37694 8.79273 4.25387 8.79273 4.16643C8.79273 4.07953 8.79273 3.94971 8.79273 3.87873C8.79273 3.80776 8.74928 3.66931 8.69584 3.57161C8.64268 3.47418 8.46078 3.39403 8.29183 3.39403C8.12316 3.39403 7.75936 3.28499 7.48381 3.15167C7.28059 3.05371 7.07305 2.96815 6.94971 2.93037C7.49083 2.6281 8.06108 2.37226 8.65617 2.16931C8.68262 2.27159 8.71582 2.36335 8.75225 2.42488C8.83672 2.56657 8.98597 2.69773 9.08366 2.71528C9.08366 2.71528 9.08366 2.71528 9.21294 2.68343C9.34221 2.65104 9.60103 2.328 9.6658 2.23084C9.7303 2.13395 10.1824 1.87567 10.3122 1.8109C10.3707 1.78176 10.3707 1.78176 10.3707 1.78176C10.452 1.78176 10.5332 1.77798 10.5505 1.77366C10.5505 1.77366 10.5505 1.77366 10.5704 1.77879C10.6411 1.79579 10.6411 1.79579 10.6411 1.79579C10.5739 1.78823 10.466 1.8808 10.4015 2.00252C10.4015 2.00252 10.4015 2.00252 10.1824 2.16661C9.92407 2.36011 9.92407 2.36011 9.92407 2.36011C9.85283 2.54579 9.85283 2.80757 9.92407 2.94144C9.92407 2.94144 9.92407 2.94144 10.021 3.10363C10.1178 3.26529 10.1178 3.26529 10.1178 3.26529C10.1354 3.35408 10.15 3.45556 10.15 3.49145C10.15 3.49145 10.15 3.49145 10.15 3.58861C10.15 3.68523 10.1178 3.97616 10.1178 4.07305C10.1178 4.16967 9.9238 4.68676 9.9238 4.78392C9.9238 4.88107 9.86686 5.14286 9.7975 5.46321C9.7975 5.46321 9.7975 5.46321 9.60211 5.59221C9.40671 5.72175 9.57107 5.81864 9.60211 5.9803C9.63287 6.14196 9.37703 6.10957 9.60211 6.30335C9.82665 6.49712 9.73003 6.30335 9.82665 6.49712C9.92353 6.6909 9.85903 6.56162 10.0528 6.49712C10.2347 6.4364 10.2347 6.4364 10.2347 6.4364C10.5278 6.07476 10.7612 5.78356 10.754 5.78949C10.7583 5.78545 10.7626 5.78248 10.7688 5.77762C10.7704 5.77627 10.7715 5.77492 10.7731 5.77357C10.7747 5.77276 10.8055 5.74955 10.8468 5.71744C10.8468 5.71744 10.8468 5.71743 10.9259 5.65698C11.3461 5.33339 11.0873 5.49505 11.3461 5.33339C11.6044 5.17174 11.2813 5.26889 11.6044 5.17173C11.9274 5.07512 11.9274 5.07512 11.9274 5.07512C12.1409 4.96851 12.4313 4.707 12.574 4.49352C12.574 4.49352 12.574 4.49352 12.6062 4.39664C12.6385 4.30002 12.703 4.30002 12.6062 4.17021C12.5093 4.0412 12.3803 4.36425 12.5093 4.0412C12.6385 3.71815 12.5797 3.71815 12.6574 3.58888C12.7357 3.45934 12.5149 3.65338 12.6574 3.29768C12.7999 2.94198 12.7999 2.94198 12.7999 2.94198C12.8534 2.85345 12.8099 2.72256 12.7033 2.65158C12.7033 2.65158 12.7033 2.65158 12.8971 2.52231C13.0911 2.39304 13.1421 2.32044 13.2045 2.23165C13.2663 2.14259 13.2447 1.99712 13.1559 1.90887C13.1559 1.90887 13.1559 1.90887 13.3176 1.81198C13.4485 1.73318 13.4522 1.82791 13.5005 1.72697C15.0864 1.95718 16.5575 2.54714 17.8273 3.41103C17.8505 3.47904 17.8694 3.54273 17.8483 3.58942C17.79 3.71869 17.79 3.71869 17.79 3.71869C17.8219 3.82557 18.0488 4.07251 18.2942 4.26763C18.2942 4.26763 18.2942 4.26763 18.4407 4.3324C18.5098 4.36236 18.5098 4.36236 18.5098 4.36236C18.6145 4.49082 18.6958 4.60202 18.6912 4.6093C18.6858 4.61686 18.6688 4.63737 18.6523 4.65518C18.6523 4.65518 18.6523 4.65518 18.4407 4.75207C18.2294 4.84869 18.2294 4.84869 18.2294 4.84869C18.0197 4.95556 17.6707 5.10157 17.4538 5.17201C17.4538 5.17201 17.4538 5.17201 17.4216 5.043C17.3893 4.91373 17.3893 4.91373 17.3893 4.91373C17.2295 4.8781 17.0403 4.79093 16.9691 4.71968C16.9691 4.71968 16.9691 4.71968 16.8074 4.65491C16.6457 4.59041 16.6457 4.59041 16.6457 4.59041C16.5391 4.50162 16.3211 4.3853 16.161 4.33213C16.161 4.33213 16.161 4.33213 16.0318 4.46141C15.9025 4.59068 15.5144 4.68757 15.4502 4.914C15.3854 5.14043 15.2882 5.36632 15.2561 5.49559C15.2237 5.62514 14.8359 6.10957 14.7066 6.23885C14.5774 6.36812 14.416 6.62667 14.5129 6.75594C14.6095 6.88521 14.868 7.2088 14.9652 7.14376C15.0621 7.07926 15.1641 7.15185 15.2882 7.24091C15.4126 7.32944 15.682 7.04363 15.8868 6.60561C15.8868 6.60561 15.8868 6.60561 15.8623 6.59995C15.8377 6.59428 15.7168 6.14223 15.8744 6.04507C16.0318 5.94818 16.1284 5.46375 16.2255 5.56063C16.3224 5.65725 16.3224 5.65725 16.3224 5.65725C16.198 6.04804 16.2199 6.42021 16.371 6.48363C16.5224 6.54732 16.8201 6.51493 17.0336 6.41157C17.0336 6.41157 17.0336 6.41157 16.8719 6.59968C16.71 6.78805 16.4193 6.98183 16.3869 7.07872C16.3545 7.1756 16.3545 7.1756 16.3545 7.1756C16.0836 7.47787 15.7694 7.72481 15.6561 7.72481C15.5427 7.72481 15.2899 7.66679 15.0945 7.59581C15.0945 7.59581 15.0945 7.59581 14.868 7.72481C14.6419 7.85436 14.6419 7.85435 14.6419 7.85435C14.393 8.10292 14.1895 8.40896 14.1895 8.53311C14.1895 8.65725 14.0441 8.6721 13.8662 8.56522C13.8662 8.56522 13.8662 8.56522 13.8017 8.75927C13.7372 8.95304 13.7372 8.95304 13.7372 8.95304C13.7729 9.08555 13.8311 9.25639 13.8665 9.33223C13.9021 9.40752 13.9027 9.52492 13.8679 9.59239C13.8679 9.59239 13.8678 9.59239 13.625 9.62801C13.3821 9.66418 13.3173 9.4337 13.2528 9.62963C13.188 9.82557 13.188 9.82557 13.188 9.82557C13.2236 9.98588 13.2463 10.1999 13.2388 10.3016C13.2309 10.4037 13.2952 10.2606 13.3821 9.98399C13.3821 9.98399 13.3821 9.98399 13.3499 10.4862C13.3176 10.9893 13.5761 10.5694 13.3176 10.9893C13.059 11.4092 13.3176 11.0859 13.059 11.4095C12.8002 11.7323 12.8002 11.8643 12.6064 12.1374C12.4127 12.411 12.3522 12.702 12.2372 12.7824C12.1217 12.8639 12.2553 12.9284 12.2372 13.0577C12.2189 13.1869 12.2189 13.1869 12.2189 13.1869C12.2289 13.4001 12.3454 13.7926 12.4774 14.0592C12.4774 14.0592 12.4774 14.0592 12.5419 14.1561C12.6064 14.253 12.6388 14.3501 12.7681 14.5118C12.8974 14.6734 13.0285 14.63 13.1883 14.5763C13.1883 14.5763 13.1883 14.5763 13.2852 14.6732C13.3821 14.7701 13.5418 14.7701 13.7378 14.7701C13.7378 14.7701 13.7378 14.7701 13.8344 14.7701C13.9315 14.7701 13.9963 14.8343 14.0932 14.7701C14.1901 14.7056 14.1901 14.7056 14.1901 14.7056C14.3318 14.6521 14.5355 14.6513 14.6424 14.7034C14.7493 14.7558 14.9091 14.8286 14.9978 14.8651C15.0866 14.9018 15.1301 15.1932 15.0947 15.5128C15.0947 15.5128 15.0947 15.5128 15.1913 15.642C15.2882 15.7713 15.5144 16.0946 15.6116 16.0946C15.7087 16.0946 15.7087 16.0946 15.7087 16.0946C15.7932 16.1656 15.8623 16.3618 15.8623 16.5308C15.8623 16.6997 15.8277 16.918 15.7854 17.0157C15.7433 17.1137 15.7012 17.2368 15.6922 17.2902C15.6836 17.3436 15.6472 17.5328 15.6113 17.7107C15.6113 17.7107 15.6113 17.7107 15.6761 17.9047C15.7406 18.0988 15.7762 18.5511 15.8876 18.648C15.9991 18.7449 15.9991 18.7449 15.9991 18.7449C16.0345 18.9225 16.1219 19.1918 16.1931 19.3429C16.2644 19.4941 16.5842 19.5302 16.9043 19.4236C16.9043 19.4236 16.9043 19.4236 17.0981 19.3586C17.2918 19.2944 17.4532 19.1327 17.5828 18.8096C17.712 18.4866 17.725 18.1312 17.8478 18.034C17.9706 17.9374 18.132 17.7757 18.2612 17.6138C18.3905 17.4516 18.6817 17.0643 18.7138 16.9351C18.746 16.8058 18.746 16.8058 18.746 16.8058C18.6928 16.3616 18.6199 15.8957 18.5843 15.7713C18.5843 15.7713 18.5843 15.7713 18.7136 15.642C18.8428 15.5128 19.2628 15.0607 19.3275 14.9312C19.3918 14.8019 19.812 14.2848 19.8444 14.1879C19.8768 14.091 19.9413 13.6385 19.8444 13.7032C19.7478 13.7675 19.7478 13.7675 19.7478 13.7675C19.5343 13.8743 19.229 13.7729 19.0687 13.5416C19.0687 13.5416 19.0687 13.5416 19.198 13.5734C19.3273 13.6061 19.8444 13.4987 20.135 13.2933C20.426 13.089 20.426 13.089 20.426 13.089C20.6394 12.8404 20.8141 12.5241 20.8141 12.3865C20.8141 12.2491 20.7412 12.0856 20.6524 12.0219C20.6524 12.0219 20.6524 12.0219 20.5558 11.99C20.4584 11.9574 20.4584 11.9574 20.4584 11.9574C20.2986 11.9398 20.1094 11.8745 20.0384 11.8124C19.9674 11.7504 19.6185 11.5102 19.2628 11.2789C19.2628 11.2789 19.2628 11.2789 19.4889 11.3115C19.7154 11.3434 19.7154 11.3434 19.7154 11.3434C20.1952 11.539 20.8351 11.7137 21.1374 11.7315C21.1374 11.7315 21.1374 11.7315 21.2343 11.6991C21.3309 11.667 21.8806 12.0569 21.9775 12.1366C22.0533 12.1989 22.229 12.451 22.3632 12.6423C22.0315 18.0694 17.5104 22.384 12 22.384Z" fill="#3C3C3C"/>
</svg>
