<svg width="24" height="24" viewBox="0 0 24 24" fill="none" xmlns="http://www.w3.org/2000/svg">
<mask id="mask0" mask-type="alpha" maskUnits="userSpaceOnUse" x="0" y="0" width="9" height="24">
<path fill-rule="evenodd" clip-rule="evenodd" d="M0 0.746094V23.2531H8.86737V0.746094L0 0.746094Z" fill="white"/>
</mask>
<g mask="url(#mask0)">
<path fill-rule="evenodd" clip-rule="evenodd" d="M-0.00439453 11.9997C-0.00439453 17.1591 3.25259 21.5578 7.82262 23.2531L8.86649 11.9997L7.82262 0.746094C3.25259 2.44167 -0.00439453 6.84005 -0.00439453 11.9997Z" fill="#6DA544"/>
</g>
<path fill-rule="evenodd" clip-rule="evenodd" d="M23.9998 12C23.9998 5.37249 18.6262 0 11.998 0C10.53 0 9.1235 0.264139 7.82324 0.746364V23.2536C9.1235 23.7359 10.53 24 11.998 24C18.6262 24 23.9998 18.6272 23.9998 12Z" fill="#D80027"/>
<path fill-rule="evenodd" clip-rule="evenodd" d="M11.9974 12.0001C11.9974 14.3051 10.1283 16.1739 7.8229 16.1739C5.51732 16.1739 3.64844 14.3051 3.64844 12.0001C3.64844 9.69478 5.51732 7.82617 7.8229 7.82617C10.1283 7.82617 11.9974 9.69478 11.9974 12.0001Z" fill="#FFDA44"/>
<path fill-rule="evenodd" clip-rule="evenodd" d="M5.47461 9.91309V12.5216C5.47461 13.8182 6.52581 14.8694 7.82279 14.8694C9.1196 14.8694 10.171 13.8185 10.171 12.5216V9.91309H5.47461Z" fill="#D80027"/>
<path fill-rule="evenodd" clip-rule="evenodd" d="M7.82388 13.3047C7.39216 13.3047 7.04102 12.9536 7.04102 12.5219V11.4785H8.60657V12.5219C8.60657 12.9536 8.25542 13.3047 7.82388 13.3047Z" fill="#F3F3F3"/>
</svg>
