<svg width="24" height="24" viewBox="0 0 24 24" fill="none" xmlns="http://www.w3.org/2000/svg">
<path d="M16.001 0.686523L14.5981 4.5671C15.89 8.83118 15.89 15.1642 14.5981 19.4283L16.001 23.3089C20.6587 21.6588 23.9993 17.2181 23.9993 11.9952C23.9993 6.77736 20.6587 2.33665 16.001 0.686523Z" fill="#DF1E26"/>
<path d="M16.0027 4.56686V0.686291C14.7512 0.24222 13.4038 0 12.001 0C13.853 0 11.2844 6.2725 16.0027 4.56686Z" fill="#FFD72E"/>
<path d="M12.0006 23.9999C13.4035 23.9999 14.7508 23.7577 16.0023 23.3136V19.0797C11.3345 18.6104 12.0006 23.9999 12.0006 23.9999Z" fill="#FFD72E"/>
<path d="M10.1985 0.136419C9.45669 0.247436 8.73507 0.429101 8.04373 0.671322C3.36081 2.30631 0 6.75711 0 12.0002C0 17.2432 3.36081 21.694 8.04373 23.329C8.17494 23.3744 8.31119 23.4199 8.44743 23.4602C9.5677 23.8084 11.1573 14.922 11.4903 12.1213C11.8486 9.12885 10.7889 0.0455859 10.1985 0.136419Z" fill="#1F429A"/>
<path d="M16.0017 19.4331V4.56686C15.1842 1.87216 13.852 0 12 0C10.6123 0 9.28516 0.237174 8.04883 0.671152V23.3288C9.28516 23.7628 10.6174 24 12 24C13.852 24 15.1842 22.1278 16.0017 19.4331Z" fill="#FFD72E"/>
<path d="M16.002 4.56641V19.4276C17.2938 15.1635 17.2938 8.83554 16.002 4.56641Z" fill="#DF1E26"/>
</svg>
