<svg width="24" height="24" viewBox="0 0 24 24" fill="none" xmlns="http://www.w3.org/2000/svg">
<g clip-path="url(#clip0)">
<path d="M12.0012 23.9995C18.6282 23.9995 24.0004 18.6272 24.0004 12.0002C24.0004 5.37322 18.6282 0.000976562 12.0012 0.000976562C5.3742 0.000976562 0.00195312 5.37322 0.00195312 12.0002C0.00195312 18.6272 5.3742 23.9995 12.0012 23.9995Z" fill="white"/>
<path d="M23.3134 7.99936C23.3123 7.99556 23.3111 7.99237 23.3096 7.98892C21.774 3.65865 17.8235 0.472714 13.0771 0.0498047C14.9137 1.05664 15.4502 4.24657 15.92 7.99936C16.2411 10.5627 16.243 13.3869 15.9262 15.9537C15.4603 19.7268 14.9214 22.9392 13.0771 23.9502C17.8321 23.5266 21.788 20.3297 23.3178 15.9878C23.3217 15.9762 23.3252 15.9649 23.3293 15.9537C23.7615 14.7155 23.9991 13.3858 23.9991 12.0004C23.9991 10.5968 23.756 9.25101 23.3134 7.99936Z" fill="#1C468C"/>
<path d="M16.5387 7.9988C16.0688 4.24597 14.9145 1.05608 13.0779 0.0492474C12.7226 0.0177838 12.3634 0 12 0C6.77991 0 2.34085 3.33393 0.690002 7.98841C0.688888 7.99181 0.687723 7.99505 0.686203 7.99885C0.243584 9.25051 0.000488281 10.5962 0.000488281 11.9999C0.000488281 13.3855 0.238467 14.715 0.670243 15.9532C0.674245 15.9644 0.677995 15.9757 0.681795 15.9873C2.32601 20.6537 6.77155 23.9993 11.9999 23.9993C12.3634 23.9993 12.7226 23.9815 13.0778 23.9497C14.9221 22.9387 16.0786 19.7262 16.5445 15.9531C16.8617 13.3864 16.8597 10.5624 16.5387 7.9988Z" fill="#1C468C"/>
<path d="M23.8392 13.9502C23.854 13.861 23.8659 13.7711 23.8785 13.6815C23.8928 13.5821 23.9061 13.482 23.9181 13.3818C23.9274 13.2988 23.9363 13.216 23.944 13.133C23.9556 13.0146 23.9643 12.8958 23.972 12.7766C23.9764 12.7086 23.9817 12.6408 23.9849 12.5727C23.9938 12.3829 23.9997 12.1923 23.9997 12.0004C23.9997 11.7849 23.9923 11.572 23.9808 11.3596C23.977 11.2901 23.9711 11.2213 23.966 11.1516C23.9559 11.0083 23.9434 10.8655 23.9283 10.7234C23.9198 10.645 23.9108 10.5669 23.9008 10.4888C23.8826 10.349 23.8619 10.2101 23.8394 10.0718C23.8278 10.003 23.818 9.93346 23.8057 9.86486C23.8023 9.84591 23.7998 9.82676 23.7964 9.80821H23.7937C23.7592 9.62176 23.7227 9.43552 23.6797 9.25195H18.6595H16.1921C16.204 9.43633 16.2103 9.62273 16.2197 9.80821H15.6274C15.7178 11.1841 15.7241 12.5968 15.643 13.9765H16.2328C16.225 14.1435 16.2208 14.3116 16.2114 14.4779H18.6796H23.7424C23.7772 14.3121 23.8068 14.1444 23.8344 13.9765H23.8355C23.8372 13.9677 23.8379 13.9592 23.8392 13.9502Z" fill="#FAC80D"/>
<path d="M16.7076 9.8076H16.7021C16.6924 9.62211 16.6862 9.43566 16.6744 9.25134H11.3863V0.015625C11.2249 0.0237822 11.0656 0.039286 10.906 0.0537259V0.0510406C10.8786 0.0536752 10.8517 0.0576778 10.8245 0.0603125C10.7129 0.0711043 10.6023 0.0843788 10.492 0.098008C10.3914 0.110523 10.2917 0.124709 10.1923 0.139858C10.0864 0.155767 9.98065 0.171676 9.87588 0.190626C9.76218 0.210892 9.65021 0.234604 9.53768 0.25791C9.44674 0.277214 9.35483 0.294086 9.26464 0.315315C9.07819 0.358887 8.89346 0.40702 8.71025 0.459308C8.63066 0.482209 8.55263 0.50744 8.47379 0.531861C8.35194 0.569202 8.2311 0.607658 8.11113 0.648748C8.03194 0.675854 7.9531 0.704278 7.87467 0.733056C7.7515 0.778149 7.62929 0.825522 7.50785 0.874769C7.43869 0.902433 7.36953 0.929894 7.30093 0.959078C7.14062 1.02712 6.98264 1.09892 6.82613 1.1741C6.79903 1.18697 6.77177 1.19853 6.74466 1.21145C6.74203 1.21297 6.73995 1.21408 6.73727 1.21525V1.2156C6.54195 1.31111 6.34906 1.41132 6.15998 1.51721V9.25134H0.320412C0.277397 9.43495 0.240816 9.621 0.205957 9.8076H0.203678C0.199878 9.82614 0.1978 9.84529 0.194406 9.86424C0.181891 9.93264 0.171859 10.0024 0.160662 10.0712C0.138116 10.2095 0.117089 10.3484 0.0992548 10.4882C0.0892229 10.5663 0.0803057 10.6443 0.0717938 10.7228C0.0562393 10.8649 0.0441301 11.0077 0.0336929 11.151C0.028981 11.2205 0.0229011 11.2893 0.0193038 11.359C0.00775191 11.5715 0 11.7847 0 12C0 12.1921 0.00587726 12.3827 0.0151491 12.5722C0.0185438 12.6406 0.023661 12.7088 0.0280183 12.7768C0.0357702 12.8956 0.0446874 13.0144 0.0560366 13.1325C0.0637885 13.2157 0.0723511 13.299 0.0819777 13.3814C0.0939348 13.4816 0.107159 13.5813 0.121193 13.6808C0.133708 13.7708 0.14602 13.8606 0.160814 13.9499C0.161929 13.9588 0.163094 13.9673 0.164614 13.9762H0.165374C0.193392 14.1443 0.222779 14.3118 0.257434 14.4775H6.15977V22.4823C6.34886 22.5878 6.54175 22.688 6.73706 22.7835V22.7839C6.73782 22.7842 6.73858 22.7846 6.73934 22.785C6.77856 22.8043 6.81894 22.8212 6.85851 22.8398C7.00291 22.9085 7.14857 22.9753 7.29637 23.0381C7.36892 23.0692 7.44188 23.098 7.51464 23.1273C7.63269 23.1751 7.75109 23.2209 7.87102 23.2651C7.95097 23.2946 8.03168 23.3237 8.1126 23.3513C8.23141 23.3921 8.35209 23.4302 8.47258 23.4675C8.55142 23.4915 8.62985 23.5171 8.70939 23.54C8.89508 23.5929 9.08285 23.6422 9.27229 23.6861C9.35736 23.706 9.44395 23.7219 9.52978 23.7397C9.64514 23.7641 9.76076 23.7882 9.87724 23.8089C9.9805 23.8275 10.0845 23.8434 10.1885 23.8593C10.2899 23.8744 10.3917 23.8888 10.4937 23.9015C10.6029 23.9152 10.7124 23.9282 10.8223 23.9389C10.8499 23.9419 10.8774 23.9459 10.9053 23.9485V23.9455C11.0648 23.9599 11.2243 23.9758 11.3856 23.984V14.4772H16.693C16.7027 14.3107 16.7066 14.1426 16.7144 13.9759H16.7226C16.8043 12.5962 16.7978 11.1835 16.7076 9.8076Z" fill="#FAC80D"/>
</g>
<defs>
<clipPath id="clip0">
<rect width="24" height="24" fill="white"/>
</clipPath>
</defs>
</svg>
