<svg width="24" height="24" viewBox="0 0 24 24" fill="none" xmlns="http://www.w3.org/2000/svg">
<g clip-path="url(#clip0)">
<path d="M12.0012 23.9995C18.6282 23.9995 24.0004 18.6272 24.0004 12.0002C24.0004 5.37322 18.6282 0.000976562 12.0012 0.000976562C5.3742 0.000976562 0.00195312 5.37322 0.00195312 12.0002C0.00195312 18.6272 5.3742 23.9995 12.0012 23.9995Z" fill="white"/>
<path d="M23.3148 7.99946C23.3137 7.99566 23.3125 7.99247 23.311 7.98902C21.7753 3.6587 17.8249 0.472714 13.0786 0.0498047C14.9152 1.05664 14.9229 22.9396 13.0786 23.9506C17.8336 23.5269 21.7895 20.33 23.3193 15.9885C23.3233 15.9765 23.3267 15.9652 23.3309 15.954C23.7631 14.7158 24.0007 13.3861 24.0007 12.0007C24.0005 10.597 23.7574 9.25091 23.3148 7.99946Z" fill="#DB2727"/>
<path d="M16.5385 7.99885C16.0686 4.24602 14.9144 1.05608 13.0776 0.0492474C12.7364 0.0193038 12.3911 0.00263463 12.0426 0.00111465C12.0282 0.00111465 12.0141 0 11.9995 0C6.77942 0 2.34032 3.33393 0.689464 7.98846C0.688349 7.99186 0.687184 7.9951 0.685664 7.9989C0.243096 9.2503 0 10.5963 0 11.9999C0 13.3855 0.237978 14.715 0.669754 15.9532C0.673757 15.9644 0.677506 15.9758 0.681306 15.9877C2.32557 20.6538 6.77111 23.9995 11.9995 23.9995C12.0139 23.9995 12.028 23.9987 12.0426 23.9984C12.3912 23.9973 12.7364 23.9805 13.0776 23.9499C14.9219 22.9389 16.0785 19.7264 16.5443 15.9533C16.8616 13.3865 16.8595 10.5622 16.5385 7.99885Z" fill="#DB2727"/>
<path d="M5.638 6.44884C5.638 4.82206 6.95689 3.50312 8.58409 3.50312C9.13148 3.50312 9.64362 3.65263 10.0828 3.91275C9.43857 3.27634 8.55338 2.88281 7.57608 2.88281C5.60654 2.88281 4.01025 4.4793 4.01025 6.44864C4.01025 8.41798 5.60674 10.0145 7.57608 10.0145C8.55338 10.0145 9.43857 9.62074 10.0828 8.98412C9.64362 9.24424 9.13143 9.39411 8.58409 9.39411C6.95689 9.39441 5.638 8.07558 5.638 6.44884Z" fill="#F3F4F5"/>
<path d="M11.9426 4.52148L12.6753 5.71538L14.0372 5.38721L13.1283 6.45333L13.861 7.64662L12.567 7.11194L11.6577 8.17775L11.7662 6.78114L10.4722 6.24646L11.8339 5.9185L11.9426 4.52148Z" fill="#F3F4F5"/>
</g>
<defs>
<clipPath id="clip0">
<rect width="24" height="24" fill="white"/>
</clipPath>
</defs>
</svg>
