<svg width="24" height="24" viewBox="0 0 24 24" fill="none" xmlns="http://www.w3.org/2000/svg">
<g clip-path="url(#clip0)">
<path d="M16.4538 12.0002H23.9992C23.9992 5.37237 18.6266 0 11.999 0C15.3127 0 16.454 6.00029 16.4538 12.0002Z" fill="#44C1EF"/>
<path d="M0 12.0002H16.9703C16.9705 6.00029 15.3135 0 11.9998 0C5.37257 0 0 5.37237 0 12.0002Z" fill="#44C1EF"/>
<path d="M16.2012 12C16.2012 17.9999 15.3129 23.9998 11.999 23.9998C18.6267 23.9998 23.9992 18.6272 23.9992 12H16.2012Z" fill="#FDCE0C"/>
<path d="M16.9703 12H0C0 18.6272 5.37257 23.9998 11.9998 23.9998C15.3135 23.9998 16.9703 17.9999 16.9703 12Z" fill="#FDCE0C"/>
</g>
<defs>
<clipPath id="clip0">
<rect width="24" height="24" fill="white"/>
</clipPath>
</defs>
</svg>
