<svg width="24" height="24" viewBox="0 0 24 24" fill="none" xmlns="http://www.w3.org/2000/svg">
<mask id="mask0" mask-type="alpha" maskUnits="userSpaceOnUse" x="0" y="0" width="24" height="24">
<path fill-rule="evenodd" clip-rule="evenodd" d="M0 0V23.9998H23.9998V0H0Z" fill="white"/>
</mask>
<g mask="url(#mask0)">
<path fill-rule="evenodd" clip-rule="evenodd" d="M23.9989 11.9999C23.9989 18.627 18.6254 23.9998 11.9972 23.9998C5.36883 23.9998 -0.00439453 18.627 -0.00439453 11.9999C-0.00439453 5.37245 5.36883 0 11.9972 0C18.6254 0 23.9989 5.37245 23.9989 11.9999Z" fill="#F3F3F3"/>
</g>
<path fill-rule="evenodd" clip-rule="evenodd" d="M11.4761 11.9995H23.9996C23.9996 10.9164 23.8552 9.86704 23.586 8.86914H11.4761V11.9995Z" fill="#D80027"/>
<path fill-rule="evenodd" clip-rule="evenodd" d="M11.4761 5.73878H22.2379C21.5033 4.54015 20.5639 3.48044 19.4687 2.6084H11.4761V5.73878Z" fill="#D80027"/>
<path fill-rule="evenodd" clip-rule="evenodd" d="M11.9982 24.0004C14.8227 24.0004 17.4188 23.0242 19.4689 21.3916H4.52734C6.57752 23.0242 9.17362 24.0004 11.9982 24.0004Z" fill="#D80027"/>
<mask id="mask1" mask-type="alpha" maskUnits="userSpaceOnUse" x="0" y="0" width="24" height="19">
<path fill-rule="evenodd" clip-rule="evenodd" d="M0 0V18.2606H23.5861V0H0Z" fill="white"/>
</mask>
<g mask="url(#mask1)">
<path fill-rule="evenodd" clip-rule="evenodd" d="M1.75627 18.2602H22.2363C22.8262 17.298 23.2836 16.2461 23.5844 15.1299H0.408203C0.709005 16.2461 1.16657 17.298 1.75627 18.2602Z" fill="#D80027"/>
<path fill-rule="evenodd" clip-rule="evenodd" d="M5.55495 1.8738H6.64869L5.63143 2.61289L6.0199 3.80854L5.00258 3.06974L3.98531 3.80854L4.3211 2.77561C3.42538 3.52173 2.64023 4.39564 1.99333 5.36952H2.34377L1.69622 5.83984C1.59525 6.0083 1.49844 6.17927 1.40567 6.35276L1.71497 7.3042L1.1381 6.88514C0.994585 7.18883 0.863435 7.49966 0.745529 7.81665L1.08636 8.86517H2.34377L1.3265 9.6042L1.71497 10.7999L0.697651 10.0608L0.088313 10.5035C0.0274261 10.9937 -0.00439453 11.4931 -0.00439453 11.9999H11.9973V0C9.62641 0 7.41625 0.68753 5.55495 1.8738ZM6.01834 10.8003L5.00102 10.0612L3.98375 10.8003L4.37246 9.6046L3.35513 8.86557H4.61255L5.00102 7.66992L5.38972 8.86557H6.64713L5.62987 9.6046L6.01834 10.8003ZM5.62987 6.10857L6.01834 7.30421L5.00102 6.56518L3.98375 7.30421L4.37246 6.10857L3.35513 5.36953H4.61255L5.00102 4.17383L5.38972 5.36953H6.64713L5.62987 6.10857ZM10.3246 10.8003L9.30733 10.0612L8.29006 10.8003L8.67877 9.6046L7.66145 8.86557H8.91886L9.30733 7.66992L9.69603 8.86557H10.9534L9.93618 9.6046L10.3246 10.8003ZM9.93618 6.10857L10.3246 7.30421L9.30733 6.56518L8.29006 7.30421L8.67877 6.10857L7.66145 5.36953H8.91886L9.30733 4.17383L9.69603 5.36953H10.9534L9.93618 6.10857ZM9.93618 2.61247L10.3246 3.80812L9.30733 3.06932L8.29006 3.80812L8.67877 2.61247L7.66145 1.87338H8.91886L9.30733 0.677734L9.69603 1.87338H10.9534L9.93618 2.61247Z" fill="#0052B4"/>
</g>
</svg>
