<svg width="32" height="32" viewBox="0 0 32 32" fill="none" xmlns="http://www.w3.org/2000/svg">
<path d="M26.2402 10.3632C25.1163 11.362 23.5183 13.3014 23.5449 16.2301C23.5769 19.9066 25.855 21.9132 27.2388 22.7862C27.3407 22.8505 27.4097 22.9388 27.4409 23.0132C27.4687 23.0797 27.4592 23.111 27.4533 23.1256C27.1293 23.9291 26.5752 25.1074 25.753 26.2529C25.7481 26.2596 25.7434 26.2664 25.7388 26.2732C25.0871 27.2302 24.4862 28.073 23.8159 28.688C23.1667 29.2835 22.5161 29.6059 21.7601 29.6178L21.7601 29.6178L21.7532 29.618C20.9457 29.6362 20.425 29.4186 19.6922 29.1122L19.6866 29.1099C18.9227 28.7906 17.998 28.412 16.596 28.412C15.197 28.412 14.2648 28.7609 13.48 29.0829C13.4321 29.1026 13.385 29.1219 13.3388 29.141C12.6471 29.426 12.1395 29.6351 11.3951 29.6656C10.75 29.6881 10.0955 29.3765 9.37344 28.7109C8.64896 28.043 7.98107 27.1352 7.30634 26.1875C6.0525 24.3873 4.92197 21.8219 4.44254 19.1521C3.9615 16.4734 4.15572 13.8129 5.387 11.7192L5.38701 11.7192L5.38965 11.7146C6.5744 9.67548 8.7256 8.38132 10.9918 8.347L10.9918 8.34701L10.9967 8.34691C11.8054 8.33067 12.6296 8.59995 13.5137 8.94302C13.6186 8.98373 13.7268 9.02643 13.8366 9.06977C14.1595 9.19724 14.4965 9.33026 14.8065 9.4348C15.2218 9.57489 15.7013 9.70523 16.1823 9.70523C16.6777 9.70523 17.198 9.54492 17.6346 9.39014C17.8726 9.30577 18.1659 9.19176 18.4573 9.07851C18.6763 8.99336 18.8943 8.90864 19.0868 8.83728C20.1088 8.45836 21.1167 8.1765 22.0842 8.27651C22.1089 8.27906 22.1337 8.28069 22.1584 8.2814C22.9162 8.3031 24.8657 8.54703 26.4026 10.0561C26.4031 10.0629 26.4031 10.0744 26.4006 10.0913C26.3894 10.1658 26.3381 10.2762 26.2402 10.3632Z" fill="#717984" stroke="#717984" stroke-width="2" stroke-linejoin="round"/>
<path fill-rule="evenodd" clip-rule="evenodd" d="M20.8181 5.24217C21.7675 4.05477 22.4171 2.43934 22.2368 0.800018C20.8627 0.860855 19.1442 1.75059 18.1546 2.91191C17.2791 3.93527 16.497 5.61262 16.699 7.19002C18.2426 7.30518 19.8275 6.4111 20.8181 5.24217V5.24217Z" fill="#717984"/>
</svg>
