<svg width="32" height="32" viewBox="0 0 32 32" fill="none" xmlns="http://www.w3.org/2000/svg">
<path fill-rule="evenodd" clip-rule="evenodd" d="M1.3335 16.0007C1.3335 7.8163 7.81581 1.33398 16.0002 1.33398C24.1852 1.33398 30.6668 7.8163 30.6668 16.0007C30.6668 24.1857 24.1845 30.6673 16.0002 30.6673C7.81581 30.6673 1.3335 24.1857 1.3335 16.0007ZM17.4781 10.8238V11.0655C17.4781 11.168 17.4576 11.262 17.4166 11.3475C17.3763 11.4331 17.3197 11.5066 17.2477 11.5681C17.1756 11.6303 17.0893 11.679 16.9911 11.7137C16.8928 11.7483 16.7861 11.766 16.6723 11.766C16.4942 11.766 16.3514 11.7271 16.2454 11.6479C16.1386 11.5695 16.0856 11.4635 16.0856 11.3306C16.0856 11.1942 16.1393 11.0874 16.2468 11.0104C16.3542 10.934 16.514 10.8888 16.7267 10.8754L17.4781 10.8238ZM18.8473 10.0273C18.9166 9.83291 19.0141 9.6661 19.1406 9.52756C19.2672 9.38902 19.4191 9.28229 19.5973 9.20737C19.7754 9.13244 19.974 9.09498 20.1924 9.09498C20.3896 9.09498 20.5677 9.12467 20.7261 9.18334C20.8851 9.242 21.0208 9.32117 21.1346 9.42083C21.2484 9.52049 21.3389 9.63641 21.4053 9.7693C21.4718 9.90218 21.5113 10.0428 21.5248 10.1906H20.936C20.9211 10.1093 20.8943 10.0329 20.8561 9.96297C20.8179 9.89299 20.7678 9.8322 20.7056 9.78061C20.6427 9.72901 20.5691 9.68872 20.485 9.65974C20.4002 9.63005 20.3055 9.61591 20.1988 9.61591C20.0737 9.61591 19.9599 9.64136 19.8588 9.69154C19.757 9.74173 19.6701 9.81312 19.598 9.90501C19.5259 9.99689 19.47 10.1093 19.4304 10.2407C19.3902 10.3729 19.3704 10.5192 19.3704 10.6804C19.3704 10.8472 19.3902 10.9971 19.4304 11.1285C19.47 11.2607 19.5266 11.3717 19.6001 11.4629C19.6729 11.554 19.7612 11.624 19.8637 11.6721C19.9662 11.7201 20.0793 11.7449 20.2023 11.7449C20.4037 11.7449 20.5677 11.6975 20.695 11.6028C20.8222 11.5081 20.9042 11.3696 20.9424 11.1872H21.5318C21.5149 11.3483 21.4704 11.4954 21.3983 11.6283C21.3262 11.7611 21.2329 11.8742 21.1184 11.9682C21.0031 12.0622 20.8681 12.135 20.7126 12.1859C20.5571 12.2368 20.3861 12.263 20.2002 12.263C19.9797 12.263 19.781 12.2262 19.6022 12.1534C19.4241 12.0806 19.2707 11.9753 19.1435 11.8389C19.0162 11.7025 18.918 11.5364 18.8487 11.3406C18.7795 11.1448 18.7448 10.925 18.7448 10.6797C18.7434 10.4401 18.778 10.2224 18.8473 10.0273ZM11.0586 9.13527H10.4692V12.2269H11.0523V10.3305C11.0523 10.2535 11.0823 10.1806 11.1103 10.1126C11.1187 10.0919 11.127 10.0717 11.1343 10.052C11.1661 9.9665 11.2113 9.89299 11.2693 9.83008C11.3272 9.76788 11.3965 9.71911 11.4771 9.68377C11.5584 9.64843 11.646 9.63076 11.7407 9.63076C11.8319 9.63076 11.9139 9.64489 11.9874 9.67246C12.0602 9.70002 12.1231 9.7389 12.174 9.7905C12.2256 9.8421 12.2645 9.90359 12.2921 9.97569C12.3196 10.0478 12.3338 10.1284 12.3338 10.2174V12.2276H12.9402V10.3086C12.9402 10.2096 12.9565 10.1185 12.989 10.0351C13.0208 9.95166 13.0653 9.87956 13.1226 9.82019C13.1791 9.76011 13.2477 9.71345 13.3262 9.68023C13.4053 9.64701 13.4923 9.63005 13.587 9.63005C13.7806 9.63005 13.9298 9.68589 14.0337 9.79686C14.1383 9.90783 14.1906 10.0655 14.1906 10.2683V12.2276H14.8055V10.1206C14.8055 9.9665 14.7815 9.82655 14.7342 9.70073C14.6868 9.57492 14.6189 9.46748 14.5306 9.37912C14.4422 9.29077 14.3362 9.22292 14.2118 9.17414C14.0874 9.12537 13.9496 9.10134 13.7976 9.10134C13.6873 9.10134 13.5827 9.11477 13.4831 9.14234C13.3834 9.1699 13.2915 9.20949 13.2081 9.26179C13.1247 9.3141 13.0505 9.37771 12.9862 9.45122C12.9218 9.52473 12.8695 9.60814 12.83 9.70144H12.8151C12.7529 9.50777 12.6469 9.35933 12.4978 9.25614C12.3493 9.15294 12.1662 9.10134 11.95 9.10134C11.8496 9.10134 11.7535 9.11406 11.6623 9.13951C11.5718 9.16496 11.4877 9.20171 11.4121 9.25048C11.3357 9.29925 11.2693 9.35721 11.2113 9.42578C11.1534 9.49363 11.106 9.57209 11.07 9.65903H11.0586V9.13527ZM11.8072 23.9355C9.10358 23.9355 7.40791 22.0568 7.40791 19.0584C7.40791 16.0601 9.10358 14.175 11.8072 14.175C14.5108 14.175 16.2001 16.0601 16.2001 19.0584C16.2001 22.0561 14.5108 23.9355 11.8072 23.9355ZM16.507 12.258C16.6116 12.258 16.7134 12.2453 16.813 12.2199C16.9127 12.1944 17.0046 12.1577 17.0894 12.1103C17.1735 12.063 17.2492 12.005 17.317 11.9378C17.3842 11.8707 17.4393 11.7951 17.4831 11.7117H17.498V12.2269H18.0867V10.1057C18.0867 9.95236 18.0571 9.81312 17.9984 9.68872C17.9397 9.56432 17.8563 9.45829 17.7482 9.36994C17.64 9.28159 17.5093 9.21444 17.3566 9.16637C17.2039 9.11831 17.0336 9.09498 16.8456 9.09498C16.671 9.09498 16.5098 9.11901 16.3614 9.16637C16.2129 9.21373 16.085 9.28017 15.9755 9.3657C15.8659 9.45122 15.7797 9.55159 15.7161 9.66751C15.6524 9.78343 15.6185 9.90995 15.615 10.0464H16.1932C16.2066 9.97993 16.2313 9.91914 16.2674 9.86542C16.3027 9.811 16.3487 9.76435 16.4038 9.72547C16.4589 9.6866 16.5225 9.65691 16.5946 9.6357C16.6667 9.61521 16.7452 9.6046 16.8286 9.6046C17.0357 9.6046 17.1954 9.65126 17.3085 9.74385C17.4216 9.83644 17.4782 9.97286 17.4782 10.151V10.3899L16.6441 10.438C16.2603 10.4627 15.9677 10.5518 15.7655 10.7044C15.5634 10.8571 15.4623 11.0692 15.4623 11.3406C15.4623 11.4791 15.4877 11.6049 15.5393 11.718C15.5902 11.8311 15.6623 11.9272 15.7542 12.0071C15.8461 12.087 15.9557 12.1485 16.0843 12.1923C16.2122 12.2361 16.3529 12.258 16.507 12.258ZM20.7026 23.9355C18.6408 23.9355 17.2392 22.8555 17.1416 21.1598H18.4839C18.5885 22.1289 19.525 22.7707 20.8079 22.7707C22.0385 22.7707 22.9228 22.1289 22.9228 21.2517C22.9228 20.4926 22.3856 20.0339 21.1423 19.72L19.9308 19.4189C18.1891 18.987 17.3975 18.1947 17.3975 16.892C17.3975 15.2882 18.7984 14.175 20.7952 14.175C22.7461 14.175 24.1074 15.2946 24.1597 16.9047H22.8309C22.739 15.9357 21.9473 15.3398 20.7684 15.3398C19.5964 15.3398 18.785 15.942 18.785 16.8128C18.785 17.4999 19.2953 17.9063 20.5393 18.2201L21.5607 18.4753C23.5052 18.9468 24.3039 19.713 24.3039 21.0877C24.3032 22.8421 22.9157 23.9355 20.7026 23.9355ZM8.79623 19.0577C8.79623 16.7994 9.95472 15.3787 11.8073 15.3787C13.6536 15.3787 14.8191 16.7994 14.8184 19.0577C14.8184 21.3097 13.6536 22.7304 11.8073 22.7304C9.95472 22.7304 8.79623 21.3097 8.79623 19.0577Z" fill="#717984"/>
</svg>
